<svg xmlns="http://www.w3.org/2000/svg" xmlns:xlink="http://www.w3.org/1999/xlink" width="60" zoomAndPan="magnify" viewBox="0 0 45 44.999999" height="60" preserveAspectRatio="xMidYMid meet" version="1.0"><defs><clipPath id="00413c214d"><path d="M 33 31 L 42.710938 31 L 42.710938 42 L 33 42 Z M 33 31 " clip-rule="nonzero"/></clipPath><clipPath id="57d445bd96"><path d="M 2.210938 23 L 24 23 L 24 42 L 2.210938 42 Z M 2.210938 23 " clip-rule="nonzero"/></clipPath><clipPath id="babb478ac8"><path d="M 9 1.765625 L 17 1.765625 L 17 12 L 9 12 Z M 9 1.765625 " clip-rule="nonzero"/></clipPath></defs><path fill="#f6edeb" d="M 13.105469 18.410156 C 11.96875 19.714844 10.828125 21.03125 9.980469 22.539062 C 9.132812 24.046875 8.59375 25.777344 8.765625 27.496094 C 9.015625 30.023438 11.566406 32.136719 13.199219 34.085938 C 14.832031 32.136719 17.191406 30.023438 17.441406 27.496094 C 17.613281 25.777344 17.074219 24.046875 16.226562 22.539062 C 15.378906 21.03125 14.238281 19.714844 13.105469 18.410156 " fill-opacity="1" fill-rule="nonzero"/><path fill="#f6edeb" d="M 33.363281 31.097656 C 32.875 30.503906 31.957031 30.453125 31.417969 31.003906 C 30.984375 31.453125 30.421875 31.722656 29.808594 31.722656 C 29.195312 31.722656 28.636719 31.453125 28.199219 31.003906 C 27.660156 30.453125 26.742188 30.503906 26.253906 31.097656 C 25.34375 32.214844 24.777344 33.761719 24.777344 35.46875 C 24.777344 38.878906 27.03125 41.644531 29.808594 41.644531 C 32.585938 41.644531 34.839844 38.878906 34.839844 35.46875 C 34.839844 33.761719 34.277344 32.214844 33.363281 31.097656 " fill-opacity="1" fill-rule="nonzero"/><g clip-path="url(#00413c214d)"><path fill="#f6edeb" d="M 41.269531 35.097656 C 40.714844 35.105469 40.195312 34.921875 39.808594 34.539062 C 39.421875 34.152344 39.238281 33.632812 39.246094 33.078125 C 39.257812 32.390625 38.648438 31.84375 37.964844 31.914062 C 37.546875 31.953125 36.40625 32.152344 35.300781 32.71875 C 35.605469 33.578125 35.761719 34.507812 35.761719 35.46875 C 35.761719 37.625 34.949219 39.558594 33.671875 40.859375 C 35.4375 42.503906 38.511719 42.160156 40.617188 40.054688 C 41.6875 38.980469 42.304688 37.65625 42.433594 36.378906 C 42.503906 35.699219 41.957031 35.089844 41.269531 35.097656 " fill-opacity="1" fill-rule="nonzero"/></g><g clip-path="url(#57d445bd96)"><path fill="#f6edeb" d="M 18.808594 24.050781 C 18.535156 24.132812 18.265625 24.226562 18 24.335938 C 18.339844 25.449219 18.464844 26.546875 18.363281 27.589844 C 18.128906 29.933594 16.402344 31.867188 14.878906 33.566406 C 14.53125 33.953125 14.207031 34.316406 13.90625 34.675781 L 13.199219 35.519531 L 12.492188 34.675781 C 12.144531 34.261719 11.75 33.835938 11.332031 33.382812 C 9.804688 31.734375 8.074219 29.863281 7.847656 27.589844 C 7.746094 26.546875 7.867188 25.449219 8.207031 24.335938 C 7.945312 24.226562 7.675781 24.132812 7.398438 24.050781 C 7.382812 24.042969 7.367188 24.039062 7.347656 24.035156 C 5.6875 23.550781 3.949219 23.410156 2.226562 23.273438 C 2.332031 25 2.4375 26.738281 2.890625 28.40625 C 3.339844 30.078125 4.167969 31.691406 5.492188 32.800781 C 6.136719 33.335938 7.191406 34.128906 8.316406 34.945312 C 10.082031 36.226562 11.289062 38.171875 11.628906 40.363281 C 11.746094 41.09375 12.363281 41.644531 13.105469 41.644531 C 13.847656 41.644531 14.464844 41.09375 14.578125 40.355469 C 14.914062 38.230469 16.070312 36.265625 17.890625 34.945312 C 19.015625 34.128906 20.074219 33.335938 20.714844 32.800781 C 22.042969 31.691406 22.867188 30.078125 23.320312 28.40625 C 23.769531 26.738281 23.875 25 23.980469 23.273438 C 22.257812 23.410156 20.519531 23.550781 18.859375 24.035156 C 18.84375 24.039062 18.828125 24.042969 18.808594 24.050781 " fill-opacity="1" fill-rule="nonzero"/></g><path fill="#f6edeb" d="M 11.050781 19.398438 C 11.496094 18.851562 11.957031 18.324219 12.40625 17.804688 L 13.105469 17.003906 L 13.800781 17.804688 C 14.269531 18.34375 14.742188 18.890625 15.199219 19.457031 C 15.851562 18.574219 16.421875 17.558594 16.515625 16.605469 C 16.652344 15.25 16.226562 13.886719 15.5625 12.703125 C 14.894531 11.515625 13.996094 10.480469 13.105469 9.453125 C 12.210938 10.480469 11.3125 11.515625 10.648438 12.703125 C 9.980469 13.886719 9.554688 15.25 9.691406 16.605469 C 9.78125 17.519531 10.382812 18.527344 11.050781 19.398438 " fill-opacity="1" fill-rule="nonzero"/><path fill="#f6edeb" d="M 7.117188 20.773438 C 7.539062 21.128906 8.316406 21.679688 9.09375 22.238281 C 9.125 22.1875 9.148438 22.136719 9.175781 22.085938 C 9.5625 21.402344 10 20.761719 10.464844 20.148438 L 10.320312 19.960938 C 9.375 18.730469 8.871094 17.660156 8.773438 16.695312 C 8.6875 15.84375 8.792969 14.949219 9.070312 14.046875 C 8.917969 13.988281 8.769531 13.933594 8.617188 13.890625 C 8.601562 13.886719 8.589844 13.882812 8.578125 13.878906 C 7.269531 13.5 5.902344 13.386719 4.546875 13.277344 C 4.628906 14.636719 4.714844 16.003906 5.066406 17.320312 C 5.421875 18.632812 6.074219 19.902344 7.117188 20.773438 " fill-opacity="1" fill-rule="nonzero"/><path fill="#f6edeb" d="M 17.4375 16.695312 C 17.335938 17.683594 16.835938 18.796875 15.941406 20.003906 L 15.789062 20.210938 C 16.238281 20.804688 16.660156 21.425781 17.03125 22.085938 C 17.058594 22.136719 17.085938 22.1875 17.113281 22.238281 C 17.894531 21.679688 18.667969 21.128906 19.089844 20.773438 C 20.136719 19.902344 20.785156 18.632812 21.140625 17.320312 C 21.496094 16.003906 21.578125 14.636719 21.660156 13.277344 C 20.304688 13.386719 18.9375 13.5 17.632812 13.878906 C 17.617188 13.882812 17.605469 13.886719 17.59375 13.890625 C 17.4375 13.933594 17.289062 13.988281 17.140625 14.046875 C 17.414062 14.949219 17.519531 15.84375 17.4375 16.695312 " fill-opacity="1" fill-rule="nonzero"/><g clip-path="url(#babb478ac8)"><path fill="#f6edeb" d="M 10 10.058594 C 10.15625 10.414062 10.359375 10.757812 10.585938 11.089844 C 11.15625 10.292969 11.789062 9.5625 12.40625 8.847656 L 13.105469 8.046875 L 13.800781 8.847656 C 14.429688 9.570312 15.070312 10.316406 15.644531 11.121094 C 15.867188 10.78125 16.066406 10.433594 16.214844 10.074219 C 16.371094 9.699219 16.476562 9.3125 16.515625 8.914062 C 16.652344 7.5625 16.226562 6.199219 15.5625 5.011719 C 14.894531 3.828125 13.996094 2.789062 13.105469 1.765625 C 12.210938 2.789062 11.3125 3.828125 10.648438 5.011719 C 9.980469 6.199219 9.554688 7.5625 9.691406 8.914062 C 9.730469 9.308594 9.839844 9.691406 10 10.058594 " fill-opacity="1" fill-rule="nonzero"/></g></svg>