<svg xmlns="http://www.w3.org/2000/svg" xmlns:xlink="http://www.w3.org/1999/xlink" width="115" zoomAndPan="magnify" viewBox="0 0 86.25 86.249996" height="115" preserveAspectRatio="xMidYMid meet" version="1.0"><defs><clipPath id="10a66fd7c6"><path d="M 11 29 L 82.3125 29 L 82.3125 56 L 11 56 Z M 11 29 " clip-rule="nonzero"/></clipPath></defs><path fill="#ffffff" d="M 18.039062 52.011719 L 15.410156 53.875 C 13.007812 55.574219 11.363281 56.289062 7.820312 50.019531 L 6.339844 47.421875 C 2.796875 41.148438 4.082031 39.792969 6.476562 38.097656 L 9.109375 36.234375 Z M 18.039062 52.011719 " fill-opacity="1" fill-rule="nonzero"/><g clip-path="url(#10a66fd7c6)"><path fill="#ffffff" d="M 81.554688 37.671875 C 81.976562 38.457031 82.171875 39.390625 82.078125 40.25 C 81.96875 41.273438 81.488281 42.023438 81.070312 42.164062 L 53.503906 54.695312 C 49.503906 55.996094 43.207031 53.855469 37.648438 51.964844 C 32.925781 50.359375 28.84375 48.972656 26.363281 49.796875 L 20.417969 50.894531 L 11.386719 34.941406 L 19.359375 31.316406 C 25.464844 28.53125 29.136719 29.925781 35.222656 32.234375 C 38.949219 33.652344 43.589844 35.40625 50.027344 36.617188 C 55.328125 37.613281 56.886719 41.183594 57.242188 42.253906 C 57.671875 43.558594 57.605469 44.824219 57.078125 45.480469 C 56.511719 46.183594 56.171875 46.167969 53.441406 45.359375 C 52.984375 45.226562 52.484375 45.078125 51.925781 44.921875 C 51.847656 44.902344 51.761719 44.890625 51.675781 44.886719 L 39.480469 44.253906 C 38.769531 44.214844 38.1875 44.847656 38.183594 45.65625 C 38.183594 46.464844 38.757812 47.15625 39.46875 47.191406 L 51.542969 47.820312 C 52.03125 47.960938 52.484375 48.085938 52.890625 48.210938 C 55.597656 49.007812 57.382812 49.539062 59.011719 47.527344 C 59.875 46.445312 60.226562 44.878906 60.054688 43.183594 L 78.804688 36.003906 C 79.527344 35.785156 80.390625 36.140625 81.0625 36.941406 C 81.25 37.167969 81.414062 37.414062 81.550781 37.679688 L 81.550781 37.671875 Z M 81.554688 37.671875 " fill-opacity="1" fill-rule="nonzero"/></g></svg>