<svg xmlns="http://www.w3.org/2000/svg" xmlns:xlink="http://www.w3.org/1999/xlink" width="103" zoomAndPan="magnify" viewBox="0 0 77.25 76.499999" height="102" preserveAspectRatio="xMidYMid meet" version="1.0"><defs><clipPath id="52fe883389"><path d="M 1 7.207031 L 74 7.207031 L 74 68 L 1 68 Z M 1 7.207031 " clip-rule="nonzero"/></clipPath><clipPath id="8c0bde5bc9"><path d="M 0.695312 7.207031 L 74.976562 7.207031 L 74.976562 68.113281 L 0.695312 68.113281 Z M 0.695312 7.207031 " clip-rule="nonzero"/></clipPath></defs><g clip-path="url(#52fe883389)"><path fill="#8a2b32" d="M 20.332031 20.507812 C 21.148438 19.324219 22.222656 18.46875 23.535156 17.914062 C 24.847656 17.355469 26.203125 17.351562 27.605469 17.71875 C 27.542969 17.3125 27.328125 17.082031 27.15625 16.835938 C 26.519531 15.933594 26.1875 14.917969 26.097656 13.832031 C 25.988281 12.460938 26.476562 11.316406 27.417969 10.308594 C 28.417969 9.238281 29.628906 8.8125 31.046875 8.828125 C 32.367188 8.84375 33.570312 9.226562 34.632812 10.011719 C 35.964844 10.992188 37.164062 12.105469 37.984375 13.578125 C 38.375 14.273438 38.722656 14.988281 39.0625 15.707031 C 39.683594 17.019531 40.089844 18.414062 40.550781 19.789062 C 40.578125 19.863281 40.570312 19.957031 40.691406 20.003906 C 40.765625 19.398438 40.855469 18.800781 40.90625 18.203125 C 40.992188 17.175781 41.0625 16.144531 41.125 15.117188 C 41.152344 14.660156 41.148438 14.195312 41.160156 13.734375 C 41.203125 12.285156 41.609375 10.960938 42.554688 9.835938 C 43.667969 8.511719 45.066406 7.796875 46.816406 7.832031 C 47.082031 7.835938 47.34375 7.871094 47.597656 7.949219 C 49.019531 8.382812 50.246094 9.078125 51.015625 10.4375 C 51.644531 11.554688 52.109375 12.71875 52.347656 13.980469 C 52.46875 14.617188 52.496094 15.253906 52.519531 15.894531 C 52.53125 16.199219 52.625 16.496094 52.578125 16.8125 C 52.769531 16.820312 52.84375 16.679688 52.949219 16.601562 C 53.71875 16.023438 54.511719 15.492188 55.441406 15.179688 C 56.855469 14.707031 58.183594 14.878906 59.429688 15.679688 C 60.328125 16.253906 61.105469 16.96875 61.667969 17.890625 C 62.167969 18.710938 62.390625 19.621094 62.433594 20.558594 C 62.550781 23.007812 61.992188 25.316406 60.921875 27.511719 C 60.699219 27.964844 60.410156 28.371094 60.136719 28.78125 C 60.179688 28.894531 60.273438 28.9375 60.355469 28.980469 C 61.84375 29.753906 63.394531 30.371094 65.015625 30.78125 C 65.855469 30.992188 66.71875 31.0625 67.570312 31.171875 C 68.164062 31.25 68.757812 31.320312 69.347656 31.386719 C 70.566406 31.527344 71.5625 32.066406 72.355469 33.007812 C 73.171875 33.980469 73.75 35.054688 73.902344 36.332031 C 73.953125 36.738281 73.890625 37.140625 73.789062 37.53125 C 73.304688 39.414062 72.121094 40.679688 70.355469 41.417969 C 70.136719 41.511719 69.914062 41.59375 69.695312 41.683594 C 69.746094 41.890625 69.890625 42.027344 69.992188 42.195312 C 70.472656 43.007812 70.835938 43.859375 70.902344 44.816406 C 70.933594 45.265625 70.890625 45.707031 70.757812 46.140625 C 70.3125 47.585938 69.542969 48.8125 68.410156 49.832031 C 67.324219 50.808594 66.074219 51.402344 64.648438 51.582031 C 63.414062 51.734375 62.175781 51.640625 60.980469 51.234375 C 60.125 50.945312 59.273438 50.640625 58.433594 50.308594 C 57.253906 49.839844 56.042969 49.6875 54.792969 49.953125 C 54.480469 50.019531 54.179688 50.121094 53.878906 50.207031 C 53.878906 50.257812 53.867188 50.289062 53.878906 50.304688 C 54.367188 50.976562 54.511719 51.742188 54.539062 52.554688 C 54.570312 53.519531 54.421875 54.441406 54.035156 55.328125 C 53.96875 55.480469 53.902344 55.636719 53.8125 55.773438 C 53.160156 56.769531 52.347656 57.605469 51.320312 58.203125 C 50.324219 58.785156 49.230469 59.019531 48.078125 58.984375 C 47.394531 58.960938 46.714844 58.964844 46.035156 59.054688 C 45.277344 59.15625 44.589844 59.433594 43.9375 59.824219 C 43.101562 60.324219 42.304688 60.886719 41.445312 61.355469 C 41.066406 61.5625 40.679688 61.753906 40.265625 61.878906 C 38.949219 62.269531 37.660156 62.25 36.433594 61.546875 C 36.15625 61.386719 35.855469 61.277344 35.582031 61.027344 C 35.519531 61.179688 35.480469 61.300781 35.480469 61.4375 C 35.476562 62.164062 35.273438 62.851562 34.957031 63.484375 C 33.886719 65.632812 32.207031 67.027344 29.832031 67.515625 C 29.167969 67.652344 28.507812 67.546875 27.84375 67.445312 C 26.625 67.257812 25.476562 66.828125 24.320312 66.433594 C 23.078125 66.007812 21.800781 65.742188 20.488281 65.6875 C 19.234375 65.632812 18.003906 65.429688 16.765625 65.25 C 15.808594 65.113281 14.882812 64.878906 13.984375 64.539062 C 12.855469 64.117188 11.859375 63.507812 11.125 62.519531 C 10.796875 62.078125 10.558594 61.59375 10.34375 61.089844 C 10.179688 60.707031 10.160156 60.296875 10.25 59.898438 C 10.351562 59.4375 10.144531 59.058594 9.992188 58.660156 C 9.929688 58.503906 9.804688 58.480469 9.652344 58.582031 C 9.304688 58.816406 8.925781 58.996094 8.535156 59.144531 C 6.351562 59.96875 4.410156 59.503906 2.773438 57.914062 C 1.824219 56.992188 1.269531 55.789062 1.234375 54.4375 C 1.210938 53.617188 1.335938 52.796875 1.5 51.988281 C 2.109375 48.972656 3.386719 46.277344 5.40625 43.957031 C 6.320312 42.90625 7.351562 41.960938 8.582031 41.265625 C 9.007812 41.023438 9.429688 40.789062 9.90625 40.65625 C 10.160156 40.585938 10.1875 40.488281 10.054688 40.269531 C 9.980469 40.148438 9.90625 40.03125 9.835938 39.914062 C 9.328125 39.105469 9.246094 38.25 9.539062 37.34375 C 9.605469 37.136719 9.765625 36.902344 9.6875 36.707031 C 9.597656 36.496094 9.296875 36.546875 9.089844 36.492188 C 7.695312 36.132812 6.90625 35.152344 6.355469 33.886719 C 5.878906 32.792969 5.84375 31.710938 6.25 30.59375 C 6.527344 29.832031 6.820312 29.082031 7.257812 28.394531 C 7.824219 27.511719 8.578125 26.820312 9.414062 26.207031 C 9.617188 26.058594 9.816406 25.90625 10.03125 25.773438 C 11.242188 25.023438 12.234375 24.039062 13.113281 22.925781 C 13.433594 22.519531 13.753906 22.117188 14.03125 21.683594 C 14.507812 20.9375 15.191406 20.484375 16.03125 20.277344 C 16.84375 20.078125 17.671875 19.96875 18.507812 19.976562 C 19.152344 19.984375 19.722656 20.246094 20.332031 20.507812 " fill-opacity="1" fill-rule="nonzero"/></g><path fill="#6b191f" d="M 49.722656 25.300781 C 49.835938 25.210938 49.988281 25.144531 49.894531 24.925781 C 49.773438 25.027344 49.753906 25.164062 49.722656 25.300781 Z M 28.78125 31.242188 C 28.523438 30.730469 28.496094 30.722656 28.109375 30.917969 C 28.335938 31.027344 28.558594 31.136719 28.78125 31.242188 Z M 66.480469 38.277344 C 66.46875 38.304688 66.453125 38.332031 66.441406 38.359375 C 66.640625 38.5 66.839844 38.644531 67.042969 38.78125 C 67.082031 38.808594 67.148438 38.855469 67.183594 38.800781 C 67.230469 38.734375 67.253906 38.652344 67.273438 38.570312 C 67.292969 38.484375 67.222656 38.453125 67.15625 38.433594 C 66.929688 38.378906 66.707031 38.332031 66.480469 38.277344 Z M 36.292969 30.582031 C 35.875 30.464844 35.484375 30.355469 35.09375 30.246094 C 35.402344 30.496094 35.679688 30.753906 35.960938 31.132812 C 35.949219 30.832031 36.144531 30.746094 36.292969 30.582031 Z M 16.691406 45.726562 C 17.113281 45.238281 17.558594 44.773438 18.046875 44.25 C 17.699219 44.320312 17.4375 44.371094 17.191406 44.417969 C 17.261719 44.972656 16.761719 45.253906 16.691406 45.726562 Z M 34.5625 51.0625 C 34.816406 50.738281 35.003906 50.347656 35.316406 50.082031 C 35.691406 49.765625 35.898438 49.351562 36.121094 48.941406 C 36.21875 48.757812 36.335938 48.582031 36.445312 48.40625 C 35.578125 49.132812 34.886719 49.972656 34.5625 51.0625 Z M 41.132812 23.164062 C 41.003906 23.6875 40.871094 24.207031 40.871094 24.757812 C 40.871094 25.15625 40.835938 25.558594 40.753906 25.957031 C 40.589844 26.769531 40.261719 27.519531 39.871094 28.242188 C 39.820312 28.332031 39.726562 28.410156 39.765625 28.53125 C 40.007812 28.617188 40.050781 28.441406 40.113281 28.285156 C 40.554688 27.183594 40.957031 26.078125 41.21875 24.917969 C 41.285156 24.613281 41.351562 24.324219 41.296875 24.019531 C 41.246094 23.734375 41.1875 23.449219 41.132812 23.164062 Z M 32.351562 36.167969 C 32.289062 35.199219 32.203125 34.234375 32.574219 33.253906 C 32.03125 33.480469 31.597656 33.121094 31.066406 33.039062 C 31.289062 33.484375 31.492188 33.878906 31.558594 34.324219 C 31.566406 34.382812 31.613281 34.417969 31.65625 34.457031 C 31.859375 34.636719 31.945312 34.894531 32.050781 35.132812 C 32.199219 35.464844 32.226562 35.824219 32.351562 36.167969 Z M 45.503906 42.140625 C 45.570312 42.011719 45.609375 41.96875 45.621094 41.917969 C 45.691406 41.535156 45.929688 41.277344 46.222656 41.046875 C 46.492188 40.832031 46.804688 40.71875 47.132812 40.652344 C 47.746094 40.53125 48.351562 40.386719 48.949219 40.1875 C 49.128906 40.125 49.320312 40.085938 49.511719 40.054688 C 49.742188 40.015625 50.007812 40.234375 50.175781 40.042969 C 50.324219 39.878906 50.363281 39.617188 50.453125 39.398438 C 50.503906 39.28125 50.5625 39.167969 50.609375 39.054688 C 50.636719 38.992188 50.71875 38.933594 50.617188 38.816406 C 50.421875 39.136719 50.175781 39.378906 49.878906 39.5625 C 48.976562 40.121094 48.011719 40.480469 46.933594 40.480469 C 46.425781 40.480469 45.921875 40.480469 45.371094 40.480469 C 45.710938 41.007812 45.511719 41.539062 45.503906 42.140625 Z M 30.230469 39.882812 C 29.484375 40.382812 28.679688 40.605469 27.816406 40.660156 C 27.304688 40.695312 26.792969 40.757812 26.289062 40.859375 C 24.515625 41.210938 22.839844 41.832031 21.234375 42.644531 C 20.476562 43.027344 19.742188 43.460938 18.988281 43.84375 C 18.738281 43.96875 18.546875 44.121094 18.410156 44.359375 C 18.085938 44.925781 17.761719 45.496094 17.425781 46.058594 C 17.199219 46.433594 17.050781 46.847656 17.023438 47.277344 C 16.976562 48.03125 17.1875 48.683594 17.902344 49.078125 C 18.210938 49.25 18.539062 49.363281 18.875 49.445312 C 19.824219 49.683594 20.792969 49.78125 21.765625 49.828125 C 23.558594 49.917969 25.351562 49.890625 27.132812 49.617188 C 28.894531 49.34375 30.621094 48.929688 32.257812 48.191406 C 33.945312 47.433594 35.078125 46.144531 35.746094 44.433594 C 35.980469 43.84375 36.078125 43.226562 35.894531 42.59375 C 35.847656 42.421875 35.773438 42.292969 35.617188 42.199219 C 34.464844 41.523438 33.28125 40.960938 31.894531 41.03125 C 31.644531 41.042969 31.398438 41.003906 31.164062 40.898438 C 30.71875 40.695312 30.46875 40.320312 30.230469 39.882812 Z M 45.539062 43.554688 C 45.488281 43.746094 45.449219 43.894531 45.414062 44.039062 C 45.351562 44.300781 45.191406 44.449219 44.917969 44.46875 C 44.820312 44.476562 44.726562 44.492188 44.628906 44.503906 C 43.359375 44.636719 42.136719 44.941406 40.980469 45.484375 C 40.664062 45.628906 40.347656 45.773438 40.027344 45.910156 C 39.777344 46.019531 39.535156 46.039062 39.269531 45.894531 C 38.988281 45.742188 38.867188 45.808594 38.726562 46.128906 C 38.582031 46.457031 38.363281 46.722656 38.097656 46.953125 C 37.867188 47.152344 37.617188 47.328125 37.375 47.515625 C 37.125 47.710938 36.855469 47.882812 36.660156 48.15625 C 36.992188 48.195312 37.003906 48.203125 36.894531 48.4375 C 36.230469 49.878906 36.132812 51.390625 36.300781 52.9375 C 36.410156 53.960938 36.742188 54.902344 37.414062 55.6875 C 38.382812 56.828125 39.203125 57.101562 40.453125 56.578125 C 40.519531 56.550781 40.585938 56.535156 40.648438 56.503906 C 41.1875 56.246094 41.726562 55.988281 42.261719 55.71875 C 42.984375 55.359375 43.722656 55.035156 44.507812 54.824219 C 45.375 54.589844 46.269531 54.628906 47.15625 54.574219 C 48.019531 54.515625 48.871094 54.421875 49.707031 54.183594 C 50.761719 53.882812 51.664062 53.324219 52.414062 52.523438 C 53.199219 51.683594 53.535156 50.347656 52.792969 49.257812 C 52.1875 48.367188 51.535156 47.515625 50.6875 46.839844 C 50.628906 46.792969 50.527344 46.769531 50.5625 46.660156 C 50.636719 46.578125 50.75 46.730469 50.828125 46.59375 C 49.84375 45.808594 48.816406 45.109375 47.613281 44.695312 C 46.863281 44.441406 46.097656 44.21875 45.539062 43.554688 Z M 16.175781 46.605469 C 16.128906 46.6875 16.074219 46.769531 16.035156 46.855469 C 15.671875 47.582031 15.4375 48.355469 15.246094 49.144531 C 14.902344 50.542969 14.410156 51.867188 13.375 52.921875 C 13.328125 52.96875 13.253906 53.054688 13.265625 53.089844 C 13.371094 53.335938 13.171875 53.480469 13.078125 53.648438 C 12.695312 54.378906 12.25 55.074219 11.941406 55.835938 C 11.5625 56.769531 11.601562 57.691406 12.15625 58.558594 C 12.488281 59.078125 12.875 59.554688 13.320312 59.980469 C 14.703125 61.304688 16.308594 61.796875 18.1875 61.300781 C 18.929688 61.101562 19.632812 60.796875 20.363281 60.570312 C 21.964844 60.070312 23.539062 60.125 25.09375 60.769531 C 25.851562 61.082031 26.578125 61.464844 27.324219 61.8125 C 28.222656 62.234375 29.15625 62.527344 30.152344 62.625 C 31.179688 62.726562 31.964844 62.40625 32.667969 61.632812 C 33.726562 60.464844 34.375 59.167969 34.304688 57.5625 C 34.296875 57.320312 34.316406 57.113281 34.605469 57.050781 C 34.710938 57.027344 34.726562 56.953125 34.683594 56.859375 C 34.632812 56.757812 34.589844 56.65625 34.535156 56.558594 C 34.101562 55.753906 33.929688 54.886719 33.933594 53.976562 C 33.933594 53.890625 33.996094 53.785156 33.875 53.714844 C 33.746094 53.859375 33.625 54.011719 33.484375 54.144531 C 33.171875 54.4375 33.070312 54.441406 32.738281 54.160156 C 32.257812 53.753906 31.730469 53.417969 31.207031 53.074219 C 30.019531 52.292969 28.738281 51.667969 27.570312 50.851562 C 27.445312 50.761719 27.328125 50.75 27.183594 50.765625 C 26.6875 50.824219 26.191406 50.878906 25.691406 50.925781 C 24.804688 51.003906 23.910156 50.953125 23.019531 50.957031 C 21.667969 50.964844 20.328125 50.839844 19.003906 50.558594 C 18.804688 50.515625 18.628906 50.527344 18.441406 50.621094 C 18.191406 50.75 17.90625 50.824219 17.632812 50.769531 C 17.289062 50.695312 17.046875 50.769531 16.859375 51.058594 C 16.828125 51.105469 16.78125 51.140625 16.738281 51.175781 C 16.425781 51.457031 16.300781 51.4375 16.109375 51.070312 C 16.089844 51.03125 16.066406 50.996094 16.054688 50.957031 C 15.824219 50.160156 15.683594 49.355469 15.78125 48.523438 C 15.855469 47.871094 16.125 47.265625 16.175781 46.605469 Z M 52.527344 33.417969 C 51.789062 33.066406 51.742188 33.039062 51.457031 32.488281 C 51.113281 31.828125 50.710938 31.210938 50.265625 30.621094 C 49.796875 29.996094 49.316406 29.382812 48.855469 28.753906 C 48.460938 28.226562 48.429688 27.65625 48.671875 27.050781 C 48.730469 26.902344 48.839844 26.765625 48.824219 26.578125 C 48.746094 26.574219 48.675781 26.558594 48.609375 26.566406 C 48.234375 26.601562 48.003906 26.417969 47.859375 26.089844 C 47.828125 26.011719 47.78125 25.941406 47.753906 25.863281 C 47.449219 24.917969 46.792969 24.253906 46.054688 23.636719 C 45.15625 22.878906 44.109375 22.398438 43.058594 21.921875 C 42.585938 21.707031 42.054688 21.714844 41.492188 21.6875 C 41.605469 21.914062 41.6875 22.074219 41.765625 22.234375 C 42.167969 23.074219 42.386719 23.964844 42.46875 24.886719 C 42.558594 25.953125 42.425781 27 42.175781 28.039062 C 41.972656 28.875 41.671875 29.691406 41.527344 30.542969 C 41.476562 30.84375 41.394531 31.152344 41.480469 31.449219 C 41.792969 32.558594 42.148438 33.648438 43.148438 34.363281 C 43.171875 34.378906 43.191406 34.402344 43.210938 34.421875 C 44.140625 35.347656 45.179688 36.140625 46.277344 36.859375 C 46.710938 37.140625 47.15625 37.398438 47.648438 37.5625 C 48.21875 37.753906 48.792969 37.910156 49.402344 37.882812 C 50.167969 37.851562 50.589844 37.542969 50.816406 36.816406 C 50.949219 36.402344 51.011719 35.972656 51.023438 35.539062 C 51.050781 34.40625 50.9375 33.285156 50.707031 32.175781 C 50.6875 32.089844 50.667969 32.003906 50.722656 31.886719 C 50.878906 32.046875 50.953125 32.207031 51.027344 32.371094 C 51.308594 32.964844 51.496094 33.589844 51.667969 34.222656 C 52.011719 35.496094 52.042969 36.753906 51.507812 37.988281 C 51.46875 38.074219 51.453125 38.148438 51.539062 38.210938 C 51.730469 38.351562 51.671875 38.519531 51.601562 38.695312 C 51.539062 38.851562 51.476562 39.007812 51.414062 39.160156 C 50.960938 40.332031 50.714844 41.535156 50.828125 42.796875 C 50.882812 43.429688 51.035156 44.027344 51.371094 44.578125 C 51.617188 44.976562 51.972656 45.183594 52.417969 45.257812 C 53.015625 45.355469 53.609375 45.308594 54.203125 45.210938 C 54.957031 45.085938 55.699219 44.898438 56.457031 44.789062 C 57.371094 44.660156 58.28125 44.621094 59.199219 44.738281 C 60.113281 44.851562 61 45.089844 61.890625 45.308594 C 63.066406 45.597656 64.246094 45.863281 65.46875 45.8125 C 66.253906 45.777344 67.019531 45.652344 67.710938 45.25 C 68.335938 44.890625 68.757812 44.34375 68.882812 43.644531 C 68.992188 43.027344 68.910156 42.394531 68.636719 41.804688 C 68.390625 41.28125 68.074219 40.8125 67.675781 40.394531 C 66.90625 39.585938 66.082031 38.835938 65.273438 38.066406 C 65.125 37.929688 64.949219 37.859375 64.757812 37.808594 C 64.128906 37.636719 63.496094 37.46875 62.867188 37.285156 C 61.851562 36.992188 60.851562 36.636719 59.964844 36.039062 C 59.566406 35.769531 59.175781 35.621094 58.679688 35.582031 C 57.0625 35.457031 55.488281 35.597656 53.957031 36.148438 C 53.617188 36.269531 53.285156 36.414062 52.941406 36.53125 C 52.535156 36.664062 52.378906 36.566406 52.277344 36.15625 C 52.203125 35.84375 52.121094 35.535156 52.046875 35.222656 C 52 35.019531 51.925781 34.8125 51.972656 34.609375 C 52.0625 34.1875 52.148438 33.761719 52.527344 33.417969 Z M 26.152344 13.414062 C 26.808594 14.34375 27.777344 14.78125 28.738281 15.226562 C 29.128906 15.410156 29.523438 15.578125 29.914062 15.765625 C 30.71875 16.148438 31.207031 16.800781 31.5625 17.582031 C 32.023438 18.605469 32.261719 19.695312 32.453125 20.796875 C 32.570312 21.484375 32.707031 22.164062 32.847656 22.847656 C 33.054688 23.875 33.632812 24.648438 34.402344 25.304688 C 34.9375 25.761719 35.511719 26.128906 36.222656 26.273438 C 37.210938 26.472656 38.441406 25.921875 38.894531 25.046875 C 39.390625 24.082031 39.707031 23.070312 39.828125 21.988281 C 39.871094 21.585938 39.859375 21.179688 39.945312 20.78125 C 40.007812 20.476562 40.121094 20.238281 40.476562 20.183594 C 40.65625 20.152344 40.710938 20 40.726562 19.8125 C 40.800781 19.039062 40.890625 18.265625 40.976562 17.488281 C 40.996094 17.324219 40.992188 17.132812 41.074219 17 C 41.308594 16.625 41.183594 16.246094 41.109375 15.878906 C 41.039062 15.535156 41.132812 15.210938 41.15625 14.882812 C 41.160156 14.800781 41.207031 14.710938 41.292969 14.6875 C 41.410156 14.648438 41.464844 14.753906 41.519531 14.828125 C 41.597656 14.929688 41.628906 15.050781 41.652344 15.175781 C 42 16.777344 42.796875 18.125 43.949219 19.277344 C 44.3125 19.640625 44.683594 20 45.082031 20.328125 C 45.652344 20.789062 46.28125 21.140625 46.972656 21.371094 C 48.292969 21.804688 49.695312 21.457031 50.53125 20.257812 C 50.914062 19.710938 51.273438 19.144531 51.542969 18.53125 C 51.566406 18.480469 51.605469 18.441406 51.636719 18.394531 C 51.796875 18.515625 51.761719 18.6875 51.738281 18.824219 C 51.59375 19.667969 51.371094 20.496094 50.914062 21.222656 C 50.679688 21.589844 50.441406 21.886719 50.59375 22.375 C 50.675781 22.632812 50.585938 22.933594 50.78125 23.191406 C 50.890625 23.339844 50.828125 23.546875 50.824219 23.726562 C 50.8125 24.503906 50.90625 25.261719 51.214844 25.976562 C 52.113281 28.039062 53.910156 29.214844 56.308594 29.074219 C 57.675781 28.996094 58.84375 28.398438 60.011719 27.769531 C 60.070312 27.738281 60.125 27.699219 60.1875 27.660156 C 60.320312 27.765625 60.25 27.863281 60.214844 27.964844 C 60.03125 28.433594 59.695312 28.789062 59.367188 29.148438 C 58.972656 29.578125 58.570312 30 58.15625 30.414062 C 57.882812 30.6875 57.582031 30.9375 57.316406 31.246094 C 57.59375 31.167969 57.863281 31.078125 58.144531 31.015625 C 58.316406 30.976562 58.339844 30.835938 58.402344 30.714844 C 58.691406 30.148438 59.042969 29.636719 59.613281 29.3125 C 59.785156 29.21875 59.949219 29.113281 60.140625 29.070312 C 60.285156 29.039062 60.433594 29.039062 60.515625 29.175781 C 60.601562 29.320312 60.460938 29.40625 60.378906 29.488281 C 59.867188 29.984375 59.496094 30.5625 59.285156 31.246094 C 58.933594 32.402344 59.226562 33.414062 59.960938 34.328125 C 60.542969 35.058594 61.3125 35.53125 62.164062 35.863281 C 64.386719 36.730469 66.664062 37.398438 69.050781 37.609375 C 69.824219 37.675781 70.609375 37.699219 71.375 37.476562 C 72.304688 37.207031 72.992188 36.691406 73.269531 35.714844 C 73.332031 35.492188 73.429688 35.273438 73.515625 35.03125 C 73.691406 35.1875 73.699219 35.390625 73.753906 35.566406 C 73.964844 36.238281 73.957031 36.90625 73.773438 37.585938 C 73.628906 38.101562 73.425781 38.585938 73.175781 39.054688 C 72.75 39.839844 72.058594 40.320312 71.3125 40.742188 C 70.890625 40.984375 70.449219 41.191406 70 41.382812 C 69.730469 41.5 69.652344 41.722656 69.832031 41.945312 C 70.320312 42.542969 70.386719 43.238281 70.285156 43.960938 C 70.261719 44.144531 70.289062 44.28125 70.367188 44.433594 C 70.527344 44.742188 70.636719 45.074219 70.742188 45.40625 C 70.835938 45.703125 70.824219 45.976562 70.730469 46.265625 C 70.113281 48.140625 68.984375 49.621094 67.304688 50.65625 C 65.863281 51.546875 64.273438 51.761719 62.605469 51.585938 C 61.382812 51.457031 60.269531 50.984375 59.132812 50.574219 C 58.324219 50.28125 57.53125 49.929688 56.65625 49.859375 C 56.046875 49.8125 55.433594 49.789062 54.832031 49.945312 C 54.558594 50.015625 54.316406 50.027344 54.066406 49.691406 C 54.101562 49.984375 54.160156 50.203125 53.898438 50.210938 C 54.722656 52.203125 54.773438 54.1875 53.617188 56.015625 C 52.609375 57.613281 51.125 58.660156 49.1875 58.925781 C 48.789062 58.980469 48.386719 58.984375 47.980469 58.980469 C 47.339844 58.96875 46.703125 58.96875 46.066406 59.050781 C 45.273438 59.152344 44.566406 59.445312 43.890625 59.851562 C 43.054688 60.355469 42.261719 60.921875 41.398438 61.378906 C 40.832031 61.683594 40.25 61.96875 39.609375 62.050781 C 38.519531 62.195312 37.460938 62.128906 36.449219 61.578125 C 35.976562 61.320312 35.742188 61.015625 35.699219 60.5 C 35.671875 60.183594 35.609375 59.867188 35.554688 59.554688 C 35.53125 59.433594 35.550781 59.296875 35.421875 59.210938 C 35.359375 59.34375 35.363281 59.476562 35.390625 59.609375 C 35.578125 60.636719 35.460938 61.632812 35.121094 62.613281 C 34.921875 63.179688 34.675781 63.726562 34.429688 64.273438 C 33.988281 65.238281 33.214844 65.898438 32.371094 66.476562 C 31.425781 67.121094 30.382812 67.53125 29.21875 67.578125 C 28.601562 67.605469 28.007812 67.457031 27.40625 67.355469 C 26.316406 67.171875 25.296875 66.753906 24.253906 66.40625 C 23.019531 65.992188 21.757812 65.738281 20.457031 65.683594 C 19.21875 65.632812 18 65.429688 16.773438 65.253906 C 15.820312 65.113281 14.894531 64.882812 13.992188 64.542969 C 12.949219 64.152344 12.011719 63.605469 11.289062 62.722656 C 10.941406 62.296875 10.667969 61.835938 10.523438 61.300781 C 10.234375 60.214844 10.140625 59.121094 10.296875 58.007812 C 10.332031 57.75 10.398438 57.507812 10.683594 57.414062 C 10.777344 57.382812 10.8125 57.308594 10.816406 57.222656 C 10.824219 56.890625 10.917969 56.570312 10.933594 56.226562 C 10.589844 56.664062 10.25 57.097656 9.910156 57.535156 C 9.839844 57.625 9.910156 57.679688 9.957031 57.75 C 10.191406 58.078125 10.179688 58.136719 9.867188 58.382812 C 9.578125 58.609375 9.261719 58.769531 8.917969 58.894531 C 8.394531 59.089844 7.878906 59.328125 7.320312 59.355469 C 6.59375 59.394531 5.859375 59.480469 5.140625 59.277344 C 4.390625 59.066406 3.714844 58.710938 3.144531 58.179688 C 2.460938 57.546875 2.058594 56.742188 1.863281 55.832031 C 1.816406 55.59375 1.734375 55.386719 1.589844 55.191406 C 1.332031 54.835938 1.191406 54.457031 1.253906 53.984375 C 1.3125 53.542969 1.304688 53.09375 1.394531 52.65625 C 1.523438 52.683594 1.511719 52.792969 1.53125 52.878906 C 1.589844 53.109375 1.652344 53.339844 1.710938 53.566406 C 2 54.726562 2.777344 55.40625 3.882812 55.726562 C 5.355469 56.15625 6.683594 55.757812 7.910156 54.921875 C 9.066406 54.132812 9.949219 53.074219 10.789062 51.972656 C 11.753906 50.703125 12.398438 49.273438 12.855469 47.753906 C 13.121094 46.863281 13.007812 46.011719 12.53125 45.21875 C 11.640625 43.730469 10.296875 42.882812 8.640625 42.496094 C 8.332031 42.421875 8.011719 42.378906 7.699219 42.320312 C 7.601562 42.304688 7.5 42.285156 7.492188 42.15625 C 7.484375 42.042969 7.554688 41.96875 7.644531 41.929688 C 7.734375 41.890625 7.832031 41.875 7.925781 41.847656 C 7.976562 41.832031 8.070312 41.820312 8.078125 41.792969 C 8.164062 41.320312 8.636719 41.300781 8.925781 41.070312 C 8.992188 41.019531 9.078125 41 9.148438 40.953125 C 9.65625 40.59375 10.128906 40.734375 10.558594 41.082031 C 10.949219 41.394531 11.304688 41.753906 11.691406 42.070312 C 12.0625 42.378906 12.460938 42.65625 12.929688 42.835938 C 12.945312 42.703125 12.847656 42.699219 12.792969 42.660156 C 12.734375 42.621094 12.671875 42.589844 12.613281 42.554688 C 11.539062 41.875 10.621094 41.039062 9.980469 39.921875 C 9.738281 39.5 9.621094 39.054688 9.546875 38.578125 C 9.4375 37.890625 9.554688 37.226562 9.71875 36.566406 C 9.773438 36.347656 9.980469 36.230469 10.078125 36.027344 C 9.894531 36.140625 9.710938 36.261719 9.519531 36.359375 C 9.167969 36.542969 8.964844 36.527344 8.691406 36.253906 C 8.480469 36.039062 8.246094 35.894531 7.964844 35.785156 C 7.492188 35.597656 7.179688 35.21875 6.980469 34.753906 C 6.894531 34.546875 6.789062 34.359375 6.660156 34.175781 C 6.347656 33.746094 6.230469 33.246094 6.132812 32.734375 C 5.921875 31.632812 6.171875 30.605469 6.625 29.609375 C 6.707031 29.425781 6.742188 29.210938 6.929688 29.058594 C 6.878906 29.738281 6.804688 30.398438 6.816406 31.0625 C 6.824219 31.59375 6.902344 32.117188 7.082031 32.621094 C 7.210938 32.96875 7.421875 33.253906 7.683594 33.515625 C 8.082031 33.90625 8.574219 34.007812 9.101562 34.023438 C 9.605469 34.035156 10.097656 33.957031 10.566406 33.75 C 10.792969 33.648438 11.015625 33.527344 11.265625 33.492188 C 11.378906 33.476562 11.5 33.476562 11.570312 33.585938 C 11.652344 33.714844 11.539062 33.789062 11.46875 33.867188 C 11.363281 33.984375 11.269531 34.117188 11.140625 34.191406 C 10.808594 34.382812 10.886719 34.769531 10.707031 35.027344 C 10.679688 35.066406 10.695312 35.109375 10.742188 35.121094 C 10.980469 35.171875 10.929688 35.394531 10.945312 35.53125 C 11.074219 36.746094 11.75 37.578125 12.734375 38.210938 C 13.289062 38.566406 13.886719 38.835938 14.507812 39.039062 C 16.070312 39.550781 17.675781 39.777344 19.320312 39.6875 C 21.230469 39.578125 23.097656 39.226562 24.929688 38.683594 C 26.089844 38.34375 27.246094 37.980469 28.34375 37.46875 C 28.894531 37.214844 29.40625 36.902344 29.835938 36.480469 C 30.796875 35.53125 30.914062 34.621094 30.28125 33.457031 C 30.058594 33.046875 29.726562 32.722656 29.375 32.425781 C 29.015625 32.117188 28.628906 31.839844 28.273438 31.527344 C 27.621094 30.957031 26.851562 30.613281 26.042969 30.34375 C 25.789062 30.261719 25.527344 30.285156 25.265625 30.359375 C 24.855469 30.472656 24.441406 30.578125 24.027344 30.667969 C 23.546875 30.773438 23.125 30.574219 22.707031 30.386719 C 22.621094 30.347656 22.542969 30.292969 22.460938 30.242188 C 22.328125 30.371094 22.296875 30.542969 22.234375 30.695312 C 22.15625 30.890625 22.039062 31.015625 21.804688 31.015625 C 21.511719 31.015625 21.21875 31.054688 20.929688 31.050781 C 19.691406 31.046875 18.453125 31.125 17.222656 31.242188 C 16.863281 31.273438 16.496094 31.222656 16.144531 31.316406 C 16.101562 31.328125 16.03125 31.34375 16.023438 31.324219 C 15.84375 31.023438 15.660156 31.246094 15.480469 31.320312 C 14.652344 31.652344 13.808594 31.925781 12.949219 32.171875 C 12.867188 32.195312 12.769531 32.253906 12.65625 32.15625 C 12.707031 31.972656 12.878906 31.890625 13.015625 31.789062 C 13.542969 31.398438 14.109375 31.070312 14.671875 30.734375 C 16.230469 29.816406 17.53125 28.609375 18.554688 27.117188 C 19.242188 26.109375 19.664062 24.996094 19.769531 23.773438 C 19.78125 23.621094 19.777344 23.4375 19.890625 23.34375 C 20.019531 23.242188 19.980469 23.175781 19.933594 23.066406 C 19.816406 22.800781 19.722656 22.523438 19.605469 22.253906 C 19.46875 21.9375 19.527344 21.679688 19.742188 21.40625 C 19.9375 21.152344 20.136719 20.949219 20.460938 20.886719 C 20.722656 20.839844 20.957031 20.925781 21.191406 21.007812 C 21.738281 21.207031 22.195312 21.554688 22.597656 21.964844 C 23.808594 23.203125 24.664062 24.65625 25.132812 26.328125 C 25.296875 26.914062 25.398438 27.523438 25.5 28.128906 C 25.558594 28.472656 25.742188 28.703125 26.007812 28.90625 C 26.929688 29.617188 27.964844 29.722656 29.058594 29.464844 C 29.601562 29.339844 30.105469 29.105469 30.574219 28.792969 C 31.019531 28.496094 31.179688 28.046875 31.324219 27.574219 C 31.351562 27.480469 31.3125 27.410156 31.265625 27.34375 C 30.113281 25.773438 29.546875 23.953125 28.996094 22.117188 C 28.570312 20.703125 28.09375 19.300781 27.671875 17.886719 C 27.464844 17.199219 27.082031 16.597656 26.820312 15.941406 C 26.691406 15.617188 26.550781 15.300781 26.453125 14.964844 C 26.425781 14.871094 26.417969 14.773438 26.355469 14.691406 C 26.0625 14.3125 26.078125 13.875 26.152344 13.414062 " fill-opacity="1" fill-rule="nonzero"/><path fill="#aa3941" d="M 24.683594 52.097656 C 25.84375 52.121094 27.183594 52.550781 28.4375 53.265625 C 29.558594 53.902344 30.539062 54.722656 31.375 55.710938 C 31.855469 56.277344 32.199219 56.902344 32.21875 57.667969 C 32.242188 58.613281 31.714844 59.40625 30.828125 59.738281 C 30 60.046875 29.167969 60.027344 28.324219 59.816406 C 27.660156 59.648438 27.023438 59.417969 26.410156 59.113281 C 25.585938 58.707031 24.789062 58.25 23.921875 57.933594 C 23.226562 57.683594 22.503906 57.535156 21.800781 57.316406 C 21.386719 57.183594 20.988281 57.019531 20.644531 56.75 C 19.914062 56.183594 19.804688 55.316406 20.066406 54.523438 C 20.398438 53.535156 21.082031 52.917969 22.027344 52.550781 C 22.789062 52.253906 23.574219 52.09375 24.683594 52.097656 " fill-opacity="1" fill-rule="nonzero"/><path fill="#aa3941" d="M 46.359375 46.472656 C 48.039062 46.484375 49.328125 46.871094 50.433594 47.800781 C 51.46875 48.675781 51.554688 50.074219 50.621094 51.054688 C 49.707031 52.015625 48.5625 52.335938 47.277344 52.179688 C 46.726562 52.109375 46.183594 51.972656 45.640625 51.855469 C 45.074219 51.730469 44.507812 51.753906 43.941406 51.839844 C 43.417969 51.917969 42.902344 52.011719 42.371094 52.058594 C 41.308594 52.15625 40.914062 51.464844 40.988281 50.546875 C 41.070312 49.523438 41.542969 48.679688 42.34375 48.046875 C 43.59375 47.0625 45.015625 46.519531 46.359375 46.472656 " fill-opacity="1" fill-rule="nonzero"/><path fill="#aa3941" d="M 30.464844 41.699219 C 31.074219 41.722656 31.730469 41.796875 32.375 41.984375 C 32.882812 42.132812 33.328125 42.390625 33.695312 42.757812 C 34.222656 43.289062 34.332031 44.304688 33.824219 44.949219 C 33.410156 45.472656 32.890625 45.859375 32.28125 46.125 C 31.3125 46.546875 30.289062 46.773438 29.25 46.835938 C 27.742188 46.925781 26.230469 46.972656 24.726562 47.167969 C 24.449219 47.203125 24.171875 47.164062 23.902344 47.09375 C 23.34375 46.949219 23.085938 46.507812 23.148438 45.925781 C 23.238281 45.132812 23.671875 44.523438 24.183594 43.96875 C 25.027344 43.050781 26.125 42.542969 27.285156 42.160156 C 28.296875 41.828125 29.347656 41.726562 30.464844 41.699219 " fill-opacity="1" fill-rule="nonzero"/><path fill="#aa3941" d="M 60.878906 37.925781 C 62.222656 37.945312 63.476562 38.3125 64.652344 38.960938 C 64.957031 39.128906 65.265625 39.292969 65.570312 39.457031 C 66.417969 39.914062 66.953125 40.589844 67.09375 41.570312 C 67.128906 41.816406 67.125 42.050781 67.03125 42.265625 C 66.808594 42.769531 66.496094 43.214844 66.003906 43.492188 C 65.128906 43.988281 64.191406 44.070312 63.21875 43.875 C 62.464844 43.726562 61.757812 43.4375 61.054688 43.140625 C 60.320312 42.832031 59.558594 42.632812 58.777344 42.492188 C 58.433594 42.429688 58.09375 42.359375 57.777344 42.214844 C 57.132812 41.921875 56.875 41.40625 56.976562 40.675781 C 57.183594 39.207031 58.0625 38.328125 59.550781 38.050781 C 59.988281 37.96875 60.429688 37.917969 60.878906 37.925781 " fill-opacity="1" fill-rule="nonzero"/><path fill="#aa3941" d="M 43.222656 12.25 C 43.195312 11.496094 43.625 10.523438 44.390625 9.695312 C 44.863281 9.183594 45.457031 8.90625 46.171875 8.921875 C 46.738281 8.933594 47.148438 9.195312 47.421875 9.6875 C 47.632812 10.074219 47.714844 10.5 47.8125 10.917969 C 48.015625 11.746094 48.394531 12.480469 48.90625 13.152344 C 49.058594 13.351562 49.214844 13.550781 49.332031 13.769531 C 49.863281 14.753906 49.765625 15.757812 49.449219 16.769531 C 49.300781 17.238281 49.101562 17.6875 48.730469 18.027344 C 47.976562 18.710938 46.800781 18.746094 45.960938 18.117188 C 45.1875 17.539062 44.632812 16.78125 44.15625 15.953125 C 43.585938 14.953125 43.242188 13.722656 43.222656 12.25 " fill-opacity="1" fill-rule="nonzero"/><path fill="#aa3941" d="M 37.203125 17.691406 C 37.234375 18.53125 37.003906 19.257812 36.429688 19.851562 C 35.753906 20.546875 34.878906 20.449219 34.355469 19.625 C 34.199219 19.371094 34.121094 19.089844 34.042969 18.808594 C 33.871094 18.191406 33.714844 17.570312 33.488281 16.96875 C 33.238281 16.308594 32.847656 15.773438 32.292969 15.339844 C 31.734375 14.90625 31.164062 14.480469 30.710938 13.917969 C 30.4375 13.578125 30.214844 13.210938 30.066406 12.800781 C 29.921875 12.398438 29.867188 11.992188 30.050781 11.578125 C 30.089844 11.492188 30.09375 11.390625 30.117188 11.296875 C 30.3125 10.527344 31.136719 9.628906 32.238281 9.792969 C 32.613281 9.847656 32.925781 10.023438 33.203125 10.257812 C 33.9375 10.882812 34.574219 11.601562 35.152344 12.375 C 36.089844 13.632812 36.742188 15.019531 37.085938 16.554688 C 37.171875 16.933594 37.21875 17.320312 37.203125 17.691406 " fill-opacity="1" fill-rule="nonzero"/><path fill="#aa3941" d="M 52.742188 22.109375 C 52.726562 20.699219 53.066406 19.371094 53.625 18.09375 C 53.992188 17.253906 54.597656 16.6875 55.523438 16.488281 C 56 16.382812 56.46875 16.269531 56.960938 16.386719 C 57.777344 16.578125 58.183594 17.097656 58.214844 17.933594 C 58.238281 18.601562 58.117188 19.230469 57.875 19.851562 C 57.46875 20.890625 57.074219 21.9375 56.902344 23.046875 C 56.8125 23.597656 56.765625 24.152344 56.707031 24.703125 C 56.6875 24.859375 56.632812 25 56.585938 25.144531 C 56.292969 26.023438 55.589844 26.3125 54.679688 26.070312 C 54.191406 25.941406 53.8125 25.640625 53.523438 25.222656 C 53.054688 24.539062 52.855469 23.761719 52.78125 22.945312 C 52.753906 22.667969 52.753906 22.386719 52.742188 22.109375 " fill-opacity="1" fill-rule="nonzero"/><path fill="#aa3941" d="M 50.1875 34.792969 C 50.199219 35.171875 50.128906 35.597656 49.773438 35.9375 C 49.605469 36.097656 49.417969 36.195312 49.183594 36.207031 C 48.726562 36.238281 48.300781 36.15625 47.914062 35.898438 C 47.503906 35.628906 47.117188 35.335938 46.777344 34.980469 C 46.003906 34.179688 45.1875 33.425781 44.332031 32.714844 C 44.019531 32.457031 43.734375 32.171875 43.515625 31.824219 C 43.203125 31.335938 43.097656 30.800781 43.171875 30.226562 C 43.21875 29.863281 43.390625 29.566406 43.683594 29.351562 C 44.109375 29.039062 44.5 28.988281 44.914062 29.269531 C 45.171875 29.441406 45.410156 29.632812 45.605469 29.871094 C 46.273438 30.679688 47.046875 31.332031 48.039062 31.710938 C 48.644531 31.945312 49.148438 32.335938 49.550781 32.855469 C 49.980469 33.402344 50.199219 34.015625 50.1875 34.792969 " fill-opacity="1" fill-rule="nonzero"/><path fill="#aa3941" d="M 68.3125 36.511719 C 67.511719 36.464844 66.65625 36.359375 65.855469 36.003906 C 64.898438 35.582031 64.742188 35.019531 65.222656 34.046875 C 65.390625 33.710938 65.664062 33.464844 65.988281 33.292969 C 67.75 32.367188 69.515625 32.269531 71.257812 33.351562 C 71.566406 33.542969 71.839844 33.785156 72.03125 34.101562 C 72.324219 34.585938 72.289062 34.972656 71.910156 35.398438 C 71.664062 35.675781 71.359375 35.867188 71.023438 36.011719 C 70.175781 36.371094 69.285156 36.484375 68.3125 36.511719 " fill-opacity="1" fill-rule="nonzero"/><path fill="#aa3941" d="M 5.789062 46.855469 C 5.910156 46.011719 6.363281 45.195312 7.246094 44.671875 C 7.753906 44.371094 8.242188 44.519531 8.605469 44.992188 C 8.914062 45.394531 9.015625 45.828125 8.898438 46.328125 C 8.765625 46.878906 8.550781 47.382812 8.148438 47.796875 C 8.011719 47.9375 7.863281 48.058594 7.691406 48.15625 C 6.75 48.6875 5.777344 48.109375 5.789062 46.855469 " fill-opacity="1" fill-rule="nonzero"/><path fill="#aa3941" d="M 23.632812 35.9375 C 23.46875 35.9375 23.300781 35.9375 23.140625 35.890625 C 22.632812 35.746094 22.441406 35.242188 22.738281 34.804688 C 22.804688 34.703125 22.894531 34.605469 22.996094 34.535156 C 23.59375 34.140625 24.242188 33.929688 24.96875 34.019531 C 25.152344 34.042969 25.3125 34.113281 25.453125 34.242188 C 25.847656 34.601562 25.832031 35.066406 25.386719 35.367188 C 24.863281 35.722656 24.289062 35.96875 23.632812 35.9375 " fill-opacity="1" fill-rule="nonzero"/><path fill="#aa3941" d="M 26.007812 21.042969 C 25.992188 21.132812 25.980469 21.261719 25.945312 21.378906 C 25.792969 21.886719 25.246094 22.082031 24.863281 21.71875 C 24.425781 21.308594 24.167969 20.785156 24.199219 20.160156 C 24.203125 20.050781 24.238281 19.941406 24.277344 19.839844 C 24.382812 19.578125 24.550781 19.386719 24.84375 19.34375 C 25.152344 19.300781 25.390625 19.425781 25.554688 19.679688 C 25.820312 20.082031 25.953125 20.53125 26.007812 21.042969 " fill-opacity="1" fill-rule="nonzero"/><path fill="#aa3941" d="M 17.601562 24.355469 C 17.570312 24.742188 17.386719 25.105469 17.007812 25.34375 C 16.726562 25.519531 16.425781 25.523438 16.140625 25.34375 C 15.859375 25.164062 15.734375 24.890625 15.765625 24.5625 C 15.796875 24.199219 15.960938 23.894531 16.242188 23.664062 C 16.53125 23.433594 16.859375 23.425781 17.183594 23.582031 C 17.472656 23.726562 17.59375 23.980469 17.601562 24.355469 " fill-opacity="1" fill-rule="nonzero"/><path fill="#aa3941" d="M 8.09375 49.316406 C 8.101562 49.710938 7.789062 50.035156 7.394531 50.050781 C 6.992188 50.0625 6.664062 49.757812 6.644531 49.363281 C 6.628906 48.957031 6.960938 48.613281 7.371094 48.605469 C 7.769531 48.601562 8.089844 48.914062 8.09375 49.316406 " fill-opacity="1" fill-rule="nonzero"/><path fill="#aa3941" d="M 22.027344 36.222656 C 22.035156 36.433594 21.886719 36.601562 21.6875 36.621094 C 21.472656 36.640625 21.277344 36.464844 21.265625 36.25 C 21.257812 36.03125 21.433594 35.851562 21.65625 35.855469 C 21.867188 35.855469 22.019531 36.007812 22.027344 36.222656 " fill-opacity="1" fill-rule="nonzero"/><path fill="#aa3941" d="M 15.628906 26.914062 C 15.4375 26.917969 15.277344 26.773438 15.273438 26.582031 C 15.269531 26.402344 15.421875 26.238281 15.609375 26.226562 C 15.796875 26.214844 15.957031 26.367188 15.960938 26.558594 C 15.964844 26.75 15.816406 26.90625 15.628906 26.914062 " fill-opacity="1" fill-rule="nonzero"/><path fill="#aa3941" d="M 26.054688 22.84375 C 26.175781 22.855469 26.261719 22.914062 26.261719 23.046875 C 26.261719 23.1875 26.1875 23.28125 26.042969 23.292969 C 25.890625 23.300781 25.804688 23.214844 25.8125 23.070312 C 25.816406 22.925781 25.914062 22.855469 26.054688 22.84375 " fill-opacity="1" fill-rule="nonzero"/><path fill="#e35861" d="M 28.984375 56.0625 C 29.566406 56.054688 30.035156 56.339844 30.421875 56.722656 C 30.722656 57.015625 30.761719 57.417969 30.597656 57.8125 C 30.476562 58.109375 30.203125 58.292969 29.867188 58.25 C 29.191406 58.167969 28.632812 57.839844 28.222656 57.296875 C 28.035156 57.050781 28.015625 56.746094 28.175781 56.46875 C 28.351562 56.152344 28.644531 56.050781 28.984375 56.0625 " fill-opacity="1" fill-rule="nonzero"/><path fill="#e35861" d="M 31.613281 44.328125 C 31.273438 44.320312 30.976562 44.269531 30.707031 44.101562 C 30.230469 43.796875 30.246094 43.230469 30.738281 42.957031 C 30.847656 42.894531 30.96875 42.851562 31.089844 42.828125 C 31.414062 42.761719 31.746094 42.707031 32.074219 42.660156 C 32.332031 42.625 32.574219 42.6875 32.785156 42.839844 C 33.273438 43.191406 33.222656 43.835938 32.679688 44.089844 C 32.335938 44.25 31.960938 44.300781 31.613281 44.328125 " fill-opacity="1" fill-rule="nonzero"/><path fill="#e35861" d="M 48.695312 50.113281 C 48.429688 50.113281 48.171875 50.0625 47.9375 49.921875 C 47.476562 49.644531 47.417969 49.050781 47.855469 48.734375 C 48.359375 48.371094 48.9375 48.285156 49.523438 48.5 C 50.035156 48.6875 50.148438 49.253906 49.78125 49.664062 C 49.496094 49.984375 49.121094 50.109375 48.695312 50.113281 " fill-opacity="1" fill-rule="nonzero"/><path fill="#e35861" d="M 64.9375 42.078125 C 64.582031 42.0625 64.253906 41.957031 63.972656 41.738281 C 63.507812 41.375 63.570312 40.78125 64.089844 40.511719 C 64.761719 40.160156 65.671875 40.558594 65.867188 41.289062 C 65.925781 41.519531 65.855469 41.703125 65.675781 41.84375 C 65.457031 42.011719 65.210938 42.089844 64.9375 42.078125 " fill-opacity="1" fill-rule="nonzero"/><path fill="#e35861" d="M 46.015625 11.316406 C 46.015625 11.625 45.964844 11.882812 45.8125 12.109375 C 45.640625 12.371094 45.398438 12.515625 45.078125 12.480469 C 44.769531 12.445312 44.574219 12.261719 44.457031 11.988281 C 44.242188 11.480469 44.433594 10.886719 44.902344 10.605469 C 45.386719 10.3125 45.898438 10.542969 45.996094 11.105469 C 46.011719 11.1875 46.011719 11.269531 46.015625 11.316406 " fill-opacity="1" fill-rule="nonzero"/><path fill="#e35861" d="M 31.644531 11.558594 C 31.65625 11.445312 31.664062 11.320312 31.6875 11.195312 C 31.765625 10.753906 32.160156 10.558594 32.566406 10.761719 C 32.960938 10.960938 33.320312 11.625 33.269531 12.058594 C 33.214844 12.53125 32.792969 12.792969 32.359375 12.621094 C 31.972656 12.464844 31.648438 11.988281 31.644531 11.558594 " fill-opacity="1" fill-rule="nonzero"/><path fill="#e35861" d="M 54.746094 18.726562 C 54.761719 18.414062 54.890625 18.085938 55.148438 17.8125 C 55.382812 17.570312 55.808594 17.503906 56.066406 17.660156 C 56.3125 17.808594 56.398438 18.109375 56.296875 18.476562 C 56.207031 18.789062 56.050781 19.066406 55.800781 19.277344 C 55.59375 19.453125 55.355469 19.511719 55.101562 19.402344 C 54.847656 19.289062 54.75 19.0625 54.746094 18.726562 " fill-opacity="1" fill-rule="nonzero"/><path fill="#e35861" d="M 70.128906 35.15625 C 69.859375 35.144531 69.628906 35.113281 69.429688 34.964844 C 69.0625 34.6875 69.066406 34.203125 69.453125 33.953125 C 69.796875 33.726562 70.175781 33.707031 70.5625 33.851562 C 70.898438 33.976562 70.953125 34.300781 70.957031 34.605469 C 70.957031 34.839844 70.746094 35.039062 70.46875 35.105469 C 70.347656 35.136719 70.222656 35.140625 70.128906 35.15625 " fill-opacity="1" fill-rule="nonzero"/><path fill="#e35861" d="M 44.101562 30.707031 C 44.09375 30.347656 44.238281 30.070312 44.457031 30 C 44.765625 29.90625 45.070312 30.050781 45.25 30.390625 C 45.378906 30.628906 45.457031 30.878906 45.359375 31.152344 C 45.277344 31.378906 45.125 31.535156 44.886719 31.574219 C 44.644531 31.621094 44.453125 31.507812 44.308594 31.320312 C 44.164062 31.136719 44.117188 30.921875 44.101562 30.707031 " fill-opacity="1" fill-rule="nonzero"/><path fill="#e35861" d="M 29.28125 44.539062 C 29.089844 44.539062 28.941406 44.394531 28.933594 44.199219 C 28.925781 43.976562 29.105469 43.800781 29.328125 43.816406 C 29.523438 43.824219 29.664062 43.976562 29.660156 44.171875 C 29.652344 44.375 29.484375 44.539062 29.28125 44.539062 " fill-opacity="1" fill-rule="nonzero"/><path fill="#e35861" d="M 45.925781 12.664062 C 46.109375 12.667969 46.257812 12.824219 46.261719 13.011719 C 46.261719 13.203125 46.121094 13.359375 45.933594 13.367188 C 45.738281 13.375 45.566406 13.199219 45.578125 13 C 45.585938 12.8125 45.746094 12.660156 45.925781 12.664062 " fill-opacity="1" fill-rule="nonzero"/><path fill="#e35861" d="M 33.144531 13.183594 C 33.316406 13.191406 33.457031 13.335938 33.457031 13.507812 C 33.457031 13.695312 33.296875 13.84375 33.105469 13.824219 C 32.933594 13.8125 32.800781 13.65625 32.8125 13.488281 C 32.820312 13.324219 32.980469 13.179688 33.144531 13.183594 " fill-opacity="1" fill-rule="nonzero"/><path fill="#e35861" d="M 46.527344 49.296875 C 46.683594 49.304688 46.800781 49.457031 46.78125 49.613281 C 46.761719 49.773438 46.613281 49.890625 46.457031 49.867188 C 46.296875 49.839844 46.21875 49.734375 46.222656 49.574219 C 46.226562 49.417969 46.375 49.285156 46.527344 49.296875 " fill-opacity="1" fill-rule="nonzero"/><path fill="#e35861" d="M 55.488281 20.355469 C 55.632812 20.363281 55.757812 20.488281 55.738281 20.628906 C 55.714844 20.765625 55.632812 20.855469 55.484375 20.855469 C 55.34375 20.855469 55.230469 20.730469 55.242188 20.582031 C 55.25 20.449219 55.355469 20.351562 55.488281 20.355469 " fill-opacity="1" fill-rule="nonzero"/><path fill="#e35861" d="M 67.890625 34.445312 C 68.03125 34.464844 68.132812 34.527344 68.125 34.65625 C 68.113281 34.796875 68.011719 34.878906 67.871094 34.878906 C 67.742188 34.878906 67.652344 34.804688 67.660156 34.671875 C 67.667969 34.53125 67.769531 34.457031 67.890625 34.445312 " fill-opacity="1" fill-rule="nonzero"/><path fill="#e35861" d="M 62.421875 41.398438 C 62.277344 41.375 62.191406 41.296875 62.207031 41.148438 C 62.21875 41.015625 62.308594 40.953125 62.4375 40.953125 C 62.5625 40.957031 62.648438 41.027344 62.652344 41.15625 C 62.65625 41.304688 62.570312 41.386719 62.421875 41.398438 " fill-opacity="1" fill-rule="nonzero"/><path fill="#e35861" d="M 45.945312 32.410156 C 45.933594 32.570312 45.859375 32.648438 45.730469 32.640625 C 45.605469 32.636719 45.523438 32.554688 45.53125 32.421875 C 45.539062 32.3125 45.613281 32.246094 45.722656 32.242188 C 45.855469 32.234375 45.925781 32.308594 45.945312 32.410156 " fill-opacity="1" fill-rule="nonzero"/><path fill="#e35861" d="M 27.183594 56.257812 C 27.164062 56.328125 27.117188 56.378906 27.039062 56.363281 C 26.960938 56.347656 26.925781 56.285156 26.945312 56.207031 C 26.957031 56.148438 27.011719 56.109375 27.066406 56.117188 C 27.132812 56.125 27.191406 56.171875 27.183594 56.257812 " fill-opacity="1" fill-rule="nonzero"/><path fill="#ffe3d1" d="M 21.703125 62.160156 C 22.648438 62.109375 23.410156 62.515625 24.101562 63.085938 C 24.484375 63.402344 24.660156 63.847656 24.742188 64.324219 C 24.789062 64.601562 24.667969 64.847656 24.496094 65.058594 C 24.15625 65.476562 23.695312 65.691406 23.1875 65.824219 C 23.105469 65.847656 22.992188 65.875 22.949219 65.816406 C 22.773438 65.574219 22.566406 65.703125 22.363281 65.742188 C 21.335938 65.9375 20.441406 65.617188 19.625 65.015625 C 19.316406 64.789062 19.296875 64.425781 19.292969 64.070312 C 19.292969 64.058594 19.304688 64.046875 19.304688 64.03125 C 19.476562 62.816406 19.800781 62.335938 21.378906 62.164062 C 21.488281 62.152344 21.601562 62.160156 21.703125 62.160156 " fill-opacity="1" fill-rule="nonzero"/><path fill="#ffe3d1" d="M 57.433594 44.671875 C 58.183594 44.648438 58.894531 44.824219 59.585938 45.101562 C 60.222656 45.355469 60.59375 45.871094 60.824219 46.492188 C 60.945312 46.828125 60.835938 47.070312 60.546875 47.28125 C 60.3125 47.453125 60.054688 47.585938 59.828125 47.769531 C 59.605469 47.945312 59.332031 48.03125 59.050781 48.050781 C 58.054688 48.125 57.085938 48 56.179688 47.546875 C 56.003906 47.460938 55.820312 47.378906 55.855469 47.121094 C 55.875 46.980469 55.738281 46.945312 55.648438 46.886719 C 55.027344 46.488281 54.941406 45.976562 55.503906 45.363281 C 55.929688 44.898438 56.464844 44.726562 57.058594 44.675781 C 57.183594 44.664062 57.308594 44.671875 57.433594 44.671875 " fill-opacity="1" fill-rule="nonzero"/><path fill="#ffe3d1" d="M 20.484375 33.53125 C 20.019531 33.554688 19.390625 33.367188 18.773438 33.160156 C 18.1875 32.960938 17.980469 32.457031 17.863281 31.90625 C 17.851562 31.847656 17.847656 31.785156 17.894531 31.75 C 18.066406 31.632812 18.039062 31.429688 18.113281 31.273438 C 18.210938 31.0625 18.292969 31.019531 18.5 31.089844 C 18.515625 31.09375 18.527344 31.101562 18.539062 31.105469 C 18.714844 31.171875 18.898438 31.402344 19.042969 31.316406 C 19.210938 31.21875 19.40625 31.191406 19.5625 31.078125 C 19.664062 31 19.792969 30.976562 19.917969 30.972656 C 20.625 30.957031 21.335938 30.894531 22.042969 30.925781 C 22.265625 30.933594 22.492188 30.949219 22.695312 31.050781 C 22.855469 31.128906 23 31.234375 23.1875 31.105469 C 23.242188 31.066406 23.320312 31.117188 23.386719 31.144531 C 23.589844 31.234375 23.777344 31.355469 23.945312 31.503906 C 24.21875 31.738281 24.246094 31.984375 24.027344 32.273438 C 23.664062 32.75 23.207031 33.101562 22.621094 33.265625 C 21.988281 33.4375 21.34375 33.515625 20.484375 33.53125 " fill-opacity="1" fill-rule="nonzero"/><path fill="#ffe3d1" d="M 31.046875 20.976562 C 31.113281 21.433594 30.9375 21.859375 30.546875 22.214844 C 30.179688 22.546875 29.875 22.515625 29.578125 22.125 C 29.308594 21.769531 29.191406 21.375 29.117188 20.941406 C 28.988281 20.199219 28.808594 19.472656 28.496094 18.78125 C 28.253906 18.234375 28.195312 17.664062 28.34375 17.070312 C 28.488281 16.492188 28.902344 16.382812 29.398438 16.597656 C 29.898438 16.8125 30.230469 17.171875 30.429688 17.683594 C 30.675781 18.328125 31.046875 20.152344 31.046875 20.976562 " fill-opacity="1" fill-rule="nonzero"/><path fill="#ffe3d1" d="M 45.722656 26.574219 C 45.726562 26.355469 45.742188 26.132812 45.832031 25.925781 C 45.976562 25.59375 46.210938 25.441406 46.554688 25.484375 C 47.089844 25.546875 47.535156 25.765625 47.847656 26.226562 C 48.007812 26.457031 48.140625 26.703125 48.25 26.960938 C 48.414062 27.328125 48.5625 27.707031 48.726562 28.074219 C 48.898438 28.460938 48.945312 28.882812 48.972656 29.292969 C 49.015625 29.878906 48.363281 30.273438 47.8125 29.996094 C 47.238281 29.703125 46.730469 29.300781 46.390625 28.738281 C 46.046875 28.175781 45.789062 27.578125 45.714844 26.910156 C 45.703125 26.796875 45.6875 26.6875 45.722656 26.574219 " fill-opacity="1" fill-rule="nonzero"/><path fill="#ffe3d1" d="M 60.011719 27.867188 C 59.425781 27.867188 59.171875 27.617188 59.128906 27.015625 C 59.078125 26.28125 59.222656 25.578125 59.507812 24.902344 C 59.757812 24.300781 60.144531 23.796875 60.628906 23.371094 C 60.777344 23.242188 60.949219 23.152344 61.136719 23.09375 C 61.578125 22.953125 61.9375 23.101562 62.15625 23.503906 C 62.21875 23.613281 62.210938 23.71875 62.183594 23.824219 C 61.914062 24.976562 61.570312 26.105469 61.09375 27.191406 C 60.863281 27.710938 60.496094 27.882812 60.011719 27.867188 " fill-opacity="1" fill-rule="nonzero"/><path fill="#ffe3d1" d="M 44.421875 59.308594 C 44.21875 59.332031 43.996094 59.292969 43.78125 59.246094 C 43.242188 59.125 42.980469 58.707031 43.15625 58.1875 C 43.453125 57.320312 44.089844 56.792969 44.933594 56.507812 C 45.304688 56.382812 45.699219 56.382812 46.089844 56.371094 C 46.808594 56.34375 47.542969 57.25 47.21875 58.121094 C 47.140625 58.324219 46.996094 58.46875 46.773438 58.523438 C 46.554688 58.578125 46.371094 58.695312 46.179688 58.808594 C 45.648438 59.128906 45.074219 59.332031 44.421875 59.308594 " fill-opacity="1" fill-rule="nonzero"/><path fill="#ffe3d1" d="M 12.242188 52.125 C 12.359375 50.796875 13.089844 49.65625 14.296875 49.109375 C 14.640625 48.957031 14.898438 49.039062 15.160156 49.390625 C 15.40625 49.714844 15.582031 50.078125 15.726562 50.457031 C 15.851562 50.792969 15.714844 51.078125 15.410156 51.269531 C 14.859375 51.617188 14.359375 52.039062 13.90625 52.511719 C 13.71875 52.707031 13.511719 52.84375 13.242188 52.910156 C 12.5625 53.078125 12.234375 52.832031 12.242188 52.125 " fill-opacity="1" fill-rule="nonzero"/><path fill="#ffe3d1" d="M 22.34375 27.714844 C 22.386719 27.097656 22.308594 26.640625 22.085938 26.203125 C 21.945312 25.929688 21.886719 25.625 21.859375 25.320312 C 21.824219 24.890625 22.042969 24.699219 22.460938 24.753906 C 23.425781 24.878906 24.136719 25.59375 24.28125 26.359375 C 24.371094 26.824219 24.449219 27.28125 24.371094 27.761719 C 24.273438 28.386719 23.941406 28.847656 23.453125 29.199219 C 23.035156 29.496094 22.683594 29.351562 22.527344 28.851562 C 22.398438 28.4375 22.269531 28.023438 22.34375 27.714844 " fill-opacity="1" fill-rule="nonzero"/><path fill="#ffe3d1" d="M 10.859375 26.945312 C 10.242188 26.945312 9.894531 26.527344 9.960938 25.9375 C 9.976562 25.820312 10.039062 25.765625 10.125 25.710938 C 10.773438 25.289062 11.351562 24.746094 12.128906 24.542969 C 12.378906 24.476562 12.5625 24.3125 12.71875 24.105469 C 13.054688 23.660156 13.402344 23.222656 13.558594 22.675781 C 13.605469 22.503906 13.710938 22.496094 13.84375 22.515625 C 14.304688 22.597656 14.546875 22.984375 14.433594 23.441406 C 14.332031 23.835938 14.160156 24.199219 13.9375 24.539062 C 13.402344 25.351562 12.714844 26.015625 11.945312 26.601562 C 11.613281 26.855469 11.238281 26.980469 10.859375 26.945312 " fill-opacity="1" fill-rule="nonzero"/><path fill="#ffe3d1" d="M 64.222656 32.210938 C 63.292969 32.171875 62.53125 31.789062 61.96875 31.042969 C 61.703125 30.6875 61.71875 30.304688 61.941406 29.996094 C 62.039062 29.863281 62.128906 29.828125 62.292969 29.890625 C 62.746094 30.0625 63.214844 30.203125 63.671875 30.375 C 64.335938 30.621094 65.015625 30.8125 65.71875 30.921875 C 65.964844 30.957031 66.113281 31.09375 66.148438 31.296875 C 66.191406 31.527344 66.066406 31.648438 65.886719 31.765625 C 65.378906 32.097656 64.820312 32.226562 64.222656 32.210938 " fill-opacity="1" fill-rule="nonzero"/><path fill="#ffe3d1" d="M 51.417969 13.226562 C 51.21875 13.296875 51.074219 13.175781 50.933594 13.0625 C 50.59375 12.789062 50.332031 12.445312 50.121094 12.066406 C 49.835938 11.558594 49.574219 11.039062 49.300781 10.519531 C 49.214844 10.359375 49.152344 10.195312 49.152344 10.007812 C 49.148438 9.597656 49.339844 9.425781 49.75 9.476562 C 50.246094 9.539062 50.621094 9.746094 50.875 10.210938 C 51.242188 10.882812 51.628906 11.539062 51.886719 12.265625 C 51.949219 12.445312 51.972656 12.609375 51.933594 12.789062 C 51.855469 13.164062 51.816406 13.203125 51.417969 13.226562 " fill-opacity="1" fill-rule="nonzero"/><g clip-path="url(#8c0bde5bc9)"><path fill="#560f18" d="M 49.792969 9.613281 C 49.617188 9.832031 49.628906 10.0625 49.644531 10.277344 C 49.707031 11.183594 50.148438 11.902344 50.792969 12.515625 C 50.945312 12.660156 51.136719 12.75 51.339844 12.796875 C 51.585938 12.859375 51.6875 12.746094 51.601562 12.511719 C 51.492188 12.210938 51.382812 11.910156 51.238281 11.625 C 50.867188 10.894531 50.480469 10.171875 49.792969 9.613281 Z M 61.957031 29.945312 C 61.976562 30.339844 62.070312 30.625 62.246094 30.886719 C 62.808594 31.726562 64.140625 32.179688 65.101562 31.855469 C 65.414062 31.75 65.621094 31.527344 65.871094 31.214844 C 64.421875 31.164062 63.175781 30.6875 61.957031 29.945312 Z M 10.839844 26.527344 C 11.164062 26.527344 11.460938 26.460938 11.75 26.292969 C 12.953125 25.601562 13.726562 24.566406 14.121094 23.238281 C 14.160156 23.105469 14.175781 22.964844 14.160156 22.824219 C 14.152344 22.726562 14.085938 22.675781 14.007812 22.644531 C 13.90625 22.597656 13.863281 22.679688 13.820312 22.75 C 13.679688 22.976562 13.539062 23.199219 13.402344 23.425781 C 12.957031 24.152344 12.363281 24.730469 11.671875 25.214844 C 11.316406 25.464844 10.933594 25.667969 10.566406 25.890625 C 10.46875 25.949219 10.304688 25.980469 10.34375 26.152344 C 10.382812 26.304688 10.460938 26.4375 10.625 26.488281 C 10.71875 26.515625 10.816406 26.523438 10.839844 26.527344 Z M 22.019531 25.375 C 22.117188 25.566406 22.21875 25.761719 22.316406 25.960938 C 22.527344 26.390625 22.660156 26.84375 22.683594 27.320312 C 22.710938 27.789062 22.808594 28.261719 22.695312 28.734375 C 22.671875 28.832031 22.660156 28.964844 22.785156 29.027344 C 22.910156 29.089844 22.996094 28.996094 23.085938 28.941406 C 23.511719 28.699219 23.75 28.339844 23.859375 27.859375 C 24.023438 27.152344 24.070312 26.453125 23.769531 25.777344 C 23.421875 25 22.628906 24.746094 22.019531 25.375 Z M 12.8125 52.789062 C 13.652344 52.109375 14.53125 51.53125 15.496094 51.09375 C 15.617188 51.039062 15.601562 50.960938 15.535156 50.863281 C 15.296875 50.511719 15.132812 50.132812 15.078125 49.710938 C 15.054688 49.546875 14.957031 49.46875 14.8125 49.425781 C 14.480469 49.320312 14.179688 49.421875 13.894531 49.578125 C 13.121094 50.003906 12.710938 50.675781 12.554688 51.535156 C 12.472656 51.988281 12.53125 52.382812 12.8125 52.789062 Z M 43.554688 58.382812 C 43.519531 58.734375 43.761719 58.921875 43.976562 59.113281 C 44.171875 59.289062 44.34375 59.09375 44.507812 59.023438 C 45.085938 58.777344 45.671875 58.582031 46.296875 58.476562 C 46.902344 58.375 47.167969 57.769531 46.855469 57.242188 C 46.707031 56.988281 46.488281 56.820312 46.210938 56.742188 C 45.558594 56.558594 44.941406 56.664062 44.367188 57.007812 C 43.847656 57.316406 43.597656 57.792969 43.554688 58.382812 Z M 45.921875 26.46875 C 45.933594 27.191406 46.292969 28.15625 46.777344 28.761719 C 46.988281 29.019531 47.222656 29.261719 47.515625 29.429688 C 47.734375 29.554688 47.960938 29.65625 48.21875 29.664062 C 48.640625 29.675781 48.828125 29.394531 48.644531 29.03125 C 48.425781 28.609375 48.230469 28.183594 48.09375 27.726562 C 47.957031 27.273438 47.757812 26.847656 47.597656 26.402344 C 47.441406 25.96875 47.160156 25.714844 46.753906 25.550781 C 46.476562 25.4375 46.367188 25.453125 46.175781 25.675781 C 45.960938 25.921875 45.949219 26.234375 45.921875 26.46875 Z M 30.777344 20.113281 C 30.746094 19.355469 30.492188 18.59375 30.144531 17.859375 C 29.992188 17.542969 29.792969 17.261719 29.570312 16.992188 C 29.269531 16.632812 28.792969 16.652344 28.574219 17.160156 C 28.398438 17.5625 28.371094 17.996094 28.585938 18.410156 C 28.804688 18.832031 28.984375 19.265625 29.132812 19.71875 C 29.324219 20.304688 29.40625 20.910156 29.46875 21.519531 C 29.507812 21.898438 29.703125 22.03125 30.050781 21.949219 C 30.214844 21.910156 30.300781 21.777344 30.386719 21.652344 C 30.675781 21.203125 30.757812 20.699219 30.777344 20.113281 Z M 59.371094 26.210938 C 59.386719 26.699219 59.4375 27.101562 59.628906 27.46875 C 59.699219 27.605469 59.785156 27.753906 59.972656 27.710938 C 60.308594 27.636719 60.621094 27.554688 60.816406 27.191406 C 61.351562 26.203125 61.757812 25.171875 62.011719 24.078125 C 62.085938 23.742188 62.050781 23.667969 61.765625 23.488281 C 61.59375 23.382812 61.410156 23.347656 61.210938 23.363281 C 60.824219 23.394531 60.507812 23.574219 60.28125 23.867188 C 59.734375 24.578125 59.421875 25.390625 59.371094 26.210938 Z M 20.847656 33.273438 C 21.605469 33.273438 22.484375 33.113281 23.289062 32.648438 C 23.46875 32.542969 23.628906 32.410156 23.773438 32.257812 C 23.863281 32.164062 23.878906 32.0625 23.832031 31.949219 C 23.71875 31.691406 23.226562 31.433594 22.949219 31.476562 C 22.191406 31.582031 21.445312 31.769531 20.675781 31.71875 C 20.082031 31.679688 19.484375 31.707031 18.890625 31.609375 C 18.769531 31.585938 18.648438 31.574219 18.542969 31.679688 C 18.09375 32.132812 18.25 32.742188 18.695312 32.9375 C 18.832031 33 18.976562 33.054688 19.125 33.09375 C 19.636719 33.234375 20.160156 33.269531 20.847656 33.273438 Z M 21.523438 62.492188 C 21.242188 62.488281 20.96875 62.527344 20.699219 62.605469 C 20.230469 62.746094 19.894531 63.023438 19.722656 63.496094 C 19.65625 63.679688 19.605469 63.863281 19.554688 64.050781 C 19.460938 64.390625 19.601562 64.617188 19.84375 64.8125 C 20 64.9375 20.171875 65.003906 20.378906 65.019531 C 21.195312 65.097656 22.003906 65.242188 22.792969 65.457031 C 23.191406 65.5625 23.488281 65.464844 23.796875 65.25 C 24.460938 64.792969 24.539062 64.3125 24.046875 63.667969 C 24.003906 63.613281 23.953125 63.566406 23.90625 63.515625 C 23.261719 62.824219 22.453125 62.519531 21.523438 62.492188 Z M 45.210938 41.171875 C 45.15625 41.140625 45.132812 41.121094 45.109375 41.113281 C 45.042969 41.089844 44.976562 41.074219 44.910156 41.054688 C 43.585938 40.71875 42.378906 40.140625 41.273438 39.335938 C 39.789062 38.25 38.496094 36.96875 37.375 35.515625 C 36.738281 34.691406 36.261719 33.78125 35.910156 32.804688 C 35.863281 32.671875 35.851562 32.507812 35.765625 32.417969 C 35.644531 32.300781 35.476562 32.433594 35.328125 32.433594 C 34.269531 32.449219 33.453125 32.953125 32.765625 33.722656 C 32.566406 33.941406 32.515625 34.132812 32.628906 34.425781 C 32.863281 35.039062 32.996094 35.675781 32.914062 36.347656 C 32.765625 37.539062 32.15625 38.484375 31.375 39.34375 C 31.179688 39.558594 30.992188 39.777344 30.792969 40 C 30.839844 40.058594 30.945312 40.019531 31.035156 40.023438 C 32.417969 40.09375 33.773438 40.296875 35.074219 40.789062 C 36.566406 41.355469 37.792969 42.25 38.554688 43.691406 C 38.847656 44.25 39.070312 44.835938 38.902344 45.492188 C 38.882812 45.554688 38.863281 45.628906 38.945312 45.714844 C 40.835938 44.523438 42.898438 43.867188 45.171875 43.917969 C 44.738281 43.042969 44.820312 42.09375 45.210938 41.171875 Z M 21.679688 24.773438 C 21.765625 24.703125 21.820312 24.660156 21.875 24.621094 C 22.546875 24.113281 23.304688 24.148438 23.929688 24.707031 C 24.1875 24.933594 24.375 25.207031 24.488281 25.527344 C 24.894531 26.6875 24.683594 27.785156 24.101562 28.820312 C 23.867188 29.242188 23.457031 29.417969 22.964844 29.367188 C 22.902344 29.359375 22.839844 29.308594 22.769531 29.371094 C 22.707031 29.597656 22.792969 29.808594 22.859375 30.019531 C 22.964844 30.351562 23.003906 30.371094 23.339844 30.296875 C 24.046875 30.148438 24.757812 30.011719 25.480469 29.984375 C 26.105469 29.957031 26.730469 29.917969 27.351562 30.054688 C 28.96875 30.40625 30.292969 31.257812 31.40625 32.46875 C 31.628906 32.710938 31.839844 32.96875 32.058594 33.222656 C 32.167969 33.148438 32.191406 33.035156 32.234375 32.941406 C 32.347656 32.699219 32.484375 32.476562 32.679688 32.289062 C 33.441406 31.558594 34.34375 31.320312 35.367188 31.480469 C 35.453125 31.492188 35.566406 31.570312 35.605469 31.417969 C 35.640625 31.285156 35.613281 31.167969 35.445312 31.140625 C 35.433594 31.136719 35.421875 31.128906 35.40625 31.125 C 34.519531 30.90625 33.796875 30.390625 33.105469 29.820312 C 32.257812 29.117188 31.609375 28.246094 30.972656 27.363281 C 29.785156 25.722656 28.984375 23.914062 28.683594 21.902344 C 28.488281 20.617188 28.117188 19.402344 27.4375 18.289062 C 27.328125 18.109375 27.203125 17.996094 26.992188 17.957031 C 26.417969 17.847656 25.832031 17.789062 25.25 17.867188 C 24.230469 18 23.28125 18.355469 22.4375 18.957031 C 21.714844 19.46875 21.078125 20.074219 20.683594 20.882812 C 20.375 21.507812 20.21875 22.167969 20.515625 22.851562 C 20.8125 23.535156 21.222656 24.144531 21.679688 24.773438 Z M 52.703125 36.152344 C 53.128906 35.988281 53.496094 35.816406 53.878906 35.703125 C 55.050781 35.351562 56.261719 35.292969 57.46875 35.300781 C 58.398438 35.3125 59.328125 35.390625 60.253906 35.527344 C 62.324219 35.835938 64.285156 36.460938 66.078125 37.566406 C 67.515625 38.449219 68.765625 39.542969 69.722656 40.953125 C 69.816406 41.09375 69.882812 41.242188 70.109375 41.140625 C 71.078125 40.707031 72.015625 40.242188 72.675781 39.347656 C 73.449219 38.308594 73.765625 37.1875 73.417969 35.925781 C 72.898438 34.035156 71.640625 32.742188 69.953125 31.84375 C 69 31.335938 67.960938 31.1875 66.878906 31.246094 C 66.570312 31.261719 66.402344 31.328125 66.3125 31.636719 C 66.183594 32.097656 65.925781 32.464844 65.4375 32.625 C 64.09375 33.074219 62.910156 32.894531 61.976562 31.917969 C 61.429688 31.34375 61.242188 30.679688 61.40625 29.917969 C 61.449219 29.722656 61.457031 29.609375 61.234375 29.539062 C 61.078125 29.492188 60.925781 29.410156 60.792969 29.3125 C 60.605469 29.179688 60.5 29.21875 60.34375 29.386719 C 58.636719 31.214844 56.589844 32.511719 54.21875 33.304688 C 53.640625 33.496094 53.0625 33.679688 52.449219 33.777344 C 52.617188 34.558594 52.753906 35.3125 52.703125 36.152344 Z M 22.277344 30.464844 C 22.019531 29.972656 21.917969 29.488281 21.898438 28.976562 C 21.882812 28.660156 21.855469 28.339844 21.855469 28.019531 C 21.855469 27.304688 21.683594 26.636719 21.289062 26.035156 C 21.082031 25.722656 20.890625 25.398438 20.679688 25.085938 C 20.320312 24.554688 19.988281 24.007812 19.714844 23.425781 C 19.492188 22.964844 19.390625 22.480469 19.421875 21.964844 C 19.445312 21.617188 19.507812 21.273438 19.621094 20.945312 C 19.683594 20.761719 19.621094 20.691406 19.460938 20.640625 C 19.089844 20.519531 18.707031 20.453125 18.316406 20.425781 C 17.347656 20.355469 16.402344 20.453125 15.488281 20.796875 C 14.972656 20.988281 14.578125 21.324219 14.308594 21.808594 C 14.21875 21.972656 14.203125 22.070312 14.417969 22.148438 C 14.714844 22.253906 14.832031 22.492188 14.820312 22.808594 C 14.804688 23.261719 14.722656 23.703125 14.535156 24.109375 C 14.144531 24.960938 13.648438 25.753906 12.945312 26.390625 C 12.441406 26.847656 11.882812 27.203125 11.191406 27.300781 C 10.648438 27.375 10.113281 27.261719 9.859375 26.574219 C 9.835938 26.511719 9.824219 26.4375 9.734375 26.398438 C 9.699219 26.417969 9.648438 26.4375 9.605469 26.46875 C 8.082031 27.558594 7.085938 29.003906 6.636719 30.828125 C 6.507812 31.351562 6.511719 31.878906 6.589844 32.417969 C 6.921875 31.648438 7.46875 31.058594 8.058594 30.503906 C 8.984375 29.625 9.664062 29.175781 10.070312 29.210938 C 9.992188 29.285156 9.929688 29.339844 9.871094 29.394531 C 9.042969 30.191406 8.320312 31.070312 7.609375 31.96875 C 7.285156 32.375 7.039062 32.824219 6.863281 33.3125 C 6.777344 33.554688 6.785156 33.765625 6.890625 34 C 7.386719 35.101562 8.214844 35.796875 9.382812 36.101562 C 9.558594 36.148438 9.632812 36.089844 9.695312 35.9375 C 10.097656 34.941406 10.730469 34.09375 11.417969 33.285156 C 12.089844 32.5 12.898438 31.898438 13.816406 31.433594 C 15.089844 30.785156 16.472656 30.640625 17.867188 30.613281 C 18.855469 30.59375 19.84375 30.625 20.832031 30.636719 C 21.304688 30.644531 21.769531 30.582031 22.277344 30.464844 Z M 49.210938 9.15625 C 49.042969 8.984375 48.824219 8.894531 48.605469 8.804688 C 47.824219 8.488281 47.011719 8.339844 46.164062 8.363281 C 45.039062 8.394531 44.070312 8.800781 43.296875 9.613281 C 42.417969 10.535156 41.941406 11.664062 41.726562 12.921875 C 41.53125 14.054688 41.566406 15.199219 41.503906 16.335938 C 41.441406 17.4375 41.335938 18.527344 41.171875 19.617188 C 41.105469 20.066406 40.96875 20.515625 41.125 20.980469 C 41.179688 21.140625 41.226562 21.207031 41.40625 21.1875 C 42.574219 21.0625 43.632812 21.402344 44.644531 21.945312 C 46.285156 22.832031 47.421875 24.1875 48.230469 25.847656 C 48.320312 26.027344 48.375 26.226562 48.527344 26.378906 C 48.765625 25.992188 48.988281 25.621094 49.214844 25.257812 C 49.433594 24.910156 49.578125 24.539062 49.671875 24.140625 C 49.917969 23.082031 50.171875 22.027344 50.421875 20.96875 C 50.769531 19.476562 51.234375 18.035156 52.203125 16.816406 C 52.308594 16.683594 52.332031 16.535156 52.320312 16.382812 C 52.265625 15.785156 52.261719 15.183594 52.15625 14.59375 C 52.105469 14.292969 52.039062 13.992188 51.96875 13.695312 C 51.949219 13.605469 51.925781 13.523438 51.773438 13.546875 C 51.113281 13.644531 50.566406 13.367188 50.121094 12.921875 C 49.476562 12.277344 49.078125 11.484375 48.902344 10.582031 C 48.847656 10.289062 48.84375 10 48.9375 9.71875 C 49 9.523438 49.117188 9.347656 49.210938 9.15625 Z M 62.175781 22.824219 C 62.652344 20.011719 61.421875 17.453125 59.890625 16.605469 C 59.886719 16.628906 59.871094 16.660156 59.882812 16.679688 C 60.226562 17.328125 60.304688 18.03125 60.269531 18.75 C 60.242188 19.195312 60.207031 19.640625 60.078125 20.070312 C 60.035156 20.210938 60.023438 20.40625 59.789062 20.410156 C 59.832031 19.582031 59.675781 18.785156 59.566406 17.988281 C 59.460938 17.261719 59.125 16.644531 58.699219 16.066406 C 58.601562 15.933594 58.492188 15.804688 58.320312 15.753906 C 57.3125 15.453125 56.300781 15.371094 55.28125 15.703125 C 54.03125 16.113281 53.128906 16.949219 52.441406 18.042969 C 51.957031 18.816406 51.644531 19.667969 51.417969 20.550781 C 51.121094 21.710938 50.910156 22.894531 50.582031 24.046875 C 50.441406 24.542969 50.277344 25.03125 50.011719 25.480469 C 49.695312 26.003906 49.386719 26.535156 49.054688 27.054688 C 48.914062 27.273438 48.890625 27.464844 48.984375 27.714844 C 49.3125 28.554688 49.757812 29.320312 50.316406 30.023438 C 51.074219 30.972656 51.8125 31.9375 52.21875 33.101562 C 52.285156 33.28125 52.375 33.304688 52.535156 33.234375 C 53.167969 32.949219 53.808594 32.671875 54.441406 32.386719 C 56.0625 31.652344 57.558594 30.722656 58.878906 29.519531 C 59.183594 29.238281 59.519531 28.980469 59.765625 28.601562 C 59.257812 28.492188 58.957031 28.164062 58.777344 27.71875 C 58.648438 27.394531 58.554688 27.054688 58.527344 26.707031 C 58.40625 25.21875 58.949219 23.976562 59.980469 22.933594 C 60.265625 22.644531 60.625 22.515625 61.035156 22.5 C 61.453125 22.480469 61.824219 22.605469 62.175781 22.824219 Z M 36.3125 31.28125 C 36.300781 31.464844 36.359375 31.597656 36.402344 31.726562 C 36.699219 32.632812 37.082031 33.5 37.613281 34.292969 C 38.832031 36.113281 40.40625 37.582031 42.21875 38.792969 C 43.527344 39.671875 44.972656 40.175781 46.5625 40.203125 C 47.65625 40.226562 48.695312 39.992188 49.628906 39.40625 C 50.617188 38.78125 51.320312 37.921875 51.542969 36.734375 C 51.652344 36.136719 51.628906 35.539062 51.578125 34.941406 C 51.402344 32.984375 50.367188 31.449219 49.152344 29.96875 C 48.875 30.355469 48.496094 30.445312 48.074219 30.40625 C 47.824219 30.378906 47.582031 30.316406 47.351562 30.214844 C 46.78125 29.964844 46.363281 29.539062 46.015625 29.042969 C 45.410156 28.175781 44.992188 27.246094 45.152344 26.152344 C 45.226562 25.644531 45.402344 25.183594 45.890625 24.910156 C 46.128906 24.78125 46.375 24.757812 46.648438 24.761719 C 45.332031 22.949219 43.601562 21.925781 41.378906 21.796875 C 41.304688 21.910156 41.339844 21.988281 41.355469 22.070312 C 41.601562 23.367188 41.671875 24.664062 41.402344 25.972656 C 41.15625 27.15625 40.734375 28.25 39.953125 29.179688 C 39 30.3125 37.84375 31.113281 36.3125 31.28125 Z M 12.394531 53.160156 C 11.960938 52.914062 11.769531 52.546875 11.746094 52.085938 C 11.675781 50.675781 12.25 49.605469 13.441406 48.859375 C 13.839844 48.609375 14.257812 48.53125 14.71875 48.628906 C 15.019531 48.691406 15.035156 48.683594 15.054688 48.363281 C 15.097656 47.78125 15.28125 47.242188 15.535156 46.726562 C 15.871094 46.042969 16.332031 45.453125 16.851562 44.902344 C 16.925781 44.820312 17.066406 44.765625 17.039062 44.597656 C 16.699219 44.597656 16.371094 44.558594 16.042969 44.507812 C 13.566406 44.125 11.480469 43.042969 9.910156 41.050781 C 9.773438 40.875 9.683594 40.90625 9.539062 41.003906 C 8.671875 41.582031 7.777344 42.125 6.941406 42.753906 C 6.652344 42.96875 6.378906 43.210938 6.125 43.46875 C 5.023438 44.613281 4.148438 45.914062 3.511719 47.375 C 2.660156 49.335938 1.933594 51.328125 1.753906 53.492188 C 1.652344 54.707031 1.839844 55.851562 2.402344 56.929688 C 2.589844 57.289062 2.851562 57.597656 3.167969 57.859375 C 4.300781 58.816406 5.625 59.105469 7.066406 58.976562 C 7.777344 58.910156 8.449219 58.679688 9.125 58.464844 C 9.488281 58.347656 9.65625 58.15625 9.726562 57.78125 C 9.894531 56.882812 10.25 56.054688 10.722656 55.269531 C 11.1875 54.503906 11.726562 53.800781 12.394531 53.160156 Z M 33.269531 53.863281 C 33.289062 53.808594 33.316406 53.761719 33.332031 53.710938 C 33.347656 53.644531 33.355469 53.574219 33.367188 53.503906 C 33.519531 52.429688 33.867188 51.417969 34.417969 50.480469 C 35.335938 48.914062 36.476562 47.535156 37.933594 46.4375 C 38.144531 46.28125 38.234375 46.089844 38.285156 45.855469 C 38.414062 45.277344 38.203125 44.78125 37.914062 44.3125 C 37.167969 43.09375 36.054688 42.335938 34.761719 41.8125 C 33.628906 41.351562 32.445312 41.148438 31.234375 41.050781 C 29.714844 40.929688 28.207031 40.960938 26.703125 41.195312 C 24.511719 41.539062 22.441406 42.253906 20.488281 43.292969 C 19.339844 43.902344 18.261719 44.625 17.359375 45.574219 C 16.613281 46.363281 16.015625 47.246094 15.863281 48.363281 C 15.765625 49.050781 15.777344 49.726562 16.128906 50.355469 C 16.339844 50.738281 16.332031 50.746094 16.730469 50.601562 C 17.242188 50.417969 17.757812 50.253906 18.28125 50.125 C 20.429688 49.585938 22.597656 49.53125 24.78125 49.855469 C 27.769531 50.300781 30.414062 51.515625 32.742188 53.445312 C 32.910156 53.585938 33.046875 53.773438 33.269531 53.863281 Z M 28.058594 10.296875 C 27.75 10.464844 27.597656 10.667969 27.4375 10.855469 C 26.777344 11.632812 26.351562 12.546875 26.394531 13.5625 C 26.449219 14.929688 27.132812 16.078125 27.894531 17.179688 C 27.96875 17.105469 27.949219 17.03125 27.964844 16.964844 C 28.152344 16.15625 29.109375 15.550781 29.980469 16.300781 C 30.332031 16.605469 30.589844 16.984375 30.808594 17.394531 C 31.25 18.226562 31.53125 19.113281 31.597656 20.058594 C 31.644531 20.679688 31.53125 21.285156 31.242188 21.839844 C 31.074219 22.167969 30.832031 22.433594 30.488281 22.597656 C 30.238281 22.71875 29.980469 22.667969 29.742188 22.617188 C 29.65625 22.722656 29.695312 22.808594 29.714844 22.882812 C 29.839844 23.371094 29.980469 23.851562 30.183594 24.3125 C 30.929688 25.972656 31.996094 27.414062 33.261719 28.707031 C 33.839844 29.296875 34.511719 29.769531 35.316406 30.03125 C 35.84375 30.203125 36.359375 30.234375 36.886719 30.042969 C 36.867188 29.910156 36.761719 29.910156 36.695312 29.875 C 35.542969 29.214844 34.707031 28.269531 34.152344 27.070312 C 33.816406 26.351562 33.535156 25.605469 33.316406 24.839844 C 33.222656 24.503906 33.140625 24.164062 33.117188 23.816406 C 33.109375 23.730469 33.0625 23.621094 33.179688 23.570312 C 33.265625 23.601562 33.273438 23.675781 33.300781 23.738281 C 33.589844 24.464844 33.953125 25.152344 34.332031 25.839844 C 34.746094 26.59375 35.136719 27.367188 35.71875 28.019531 C 36.132812 28.480469 36.570312 28.90625 37.113281 29.203125 C 37.839844 29.601562 38.167969 29.558594 38.742188 28.976562 C 40.4375 27.25 41.023438 25.152344 40.699219 22.796875 C 40.488281 21.234375 40.125 19.699219 39.574219 18.214844 C 39.214844 17.25 38.914062 16.257812 38.382812 15.367188 C 37.6875 14.191406 36.917969 13.054688 36.074219 11.980469 C 35.402344 11.121094 34.644531 10.339844 33.675781 9.804688 C 32.179688 8.976562 30.648438 8.859375 29.074219 9.574219 C 28.84375 9.675781 28.722656 9.828125 28.703125 10.074219 C 28.671875 10.503906 28.640625 10.9375 28.746094 11.363281 C 29 12.386719 29.273438 13.402344 29.769531 14.359375 C 29.472656 14.253906 29.375 14.191406 29.191406 13.917969 C 28.464844 12.851562 27.914062 11.722656 28.058594 10.296875 Z M 12.117188 33.894531 C 12.082031 33.910156 12.054688 33.917969 12.039062 33.9375 C 11.238281 34.878906 10.546875 35.890625 10.261719 37.117188 C 9.914062 38.59375 10.132812 39.945312 11.207031 41.082031 C 11.746094 41.65625 12.371094 42.125 13.03125 42.539062 C 14.433594 43.410156 15.996094 43.78125 17.605469 44 C 17.777344 44.023438 17.898438 43.945312 18.019531 43.847656 C 19.195312 42.914062 20.496094 42.199219 21.871094 41.609375 C 24.300781 40.566406 26.835938 40.003906 29.484375 39.984375 C 29.695312 39.980469 29.84375 39.917969 29.996094 39.773438 C 30.683594 39.105469 31.238281 38.347656 31.625 37.464844 C 31.878906 36.878906 31.953125 36.285156 31.824219 35.667969 C 31.640625 34.753906 31.191406 33.976562 30.585938 33.285156 C 30.3125 32.972656 30.035156 32.664062 29.6875 32.433594 C 29.429688 32.703125 29.203125 32.972656 28.867188 33.105469 C 28.15625 33.390625 27.425781 33.613281 26.671875 33.75 C 26.570312 33.769531 26.464844 33.800781 26.359375 33.707031 C 26.527344 33.535156 26.722656 33.457031 26.902344 33.363281 C 27.460938 33.078125 28.019531 32.800781 28.578125 32.515625 C 28.796875 32.402344 29.027344 32.292969 29.148438 32.058594 C 28.070312 31.121094 25.6875 30.75 24.199219 31.28125 C 24.34375 31.484375 24.519531 31.652344 24.535156 31.933594 C 24.5625 32.410156 24.308594 32.722656 23.980469 33 C 23.359375 33.523438 22.613281 33.800781 21.832031 33.964844 C 20.714844 34.199219 19.59375 34.1875 18.507812 33.773438 C 17.824219 33.515625 17.421875 32.839844 17.683594 32.050781 C 17.730469 31.910156 17.824219 31.78125 17.816406 31.621094 C 16.242188 31.253906 13.148438 32.355469 12.515625 33.507812 C 12.652344 33.65625 12.835938 33.71875 13.023438 33.773438 C 13.960938 34.042969 14.894531 34.308594 15.875 34.363281 C 15.953125 34.367188 16.042969 34.367188 16.042969 34.5 C 15.996094 34.519531 15.945312 34.542969 15.894531 34.558594 C 15.828125 34.578125 15.757812 34.597656 15.691406 34.609375 C 14.914062 34.742188 14.140625 34.707031 13.367188 34.566406 C 12.878906 34.472656 12.425781 34.316406 12.117188 33.894531 Z M 64.457031 46.40625 C 64.832031 46.464844 65.164062 46.507812 65.492188 46.476562 C 66.199219 46.40625 66.902344 46.316406 67.59375 46.152344 C 68.546875 45.929688 69.320312 45.410156 69.914062 44.625 C 70.042969 44.457031 70.082031 44.296875 70.019531 44.082031 C 69.824219 43.441406 69.582031 42.820312 69.253906 42.234375 C 68.070312 40.140625 66.304688 38.691406 64.160156 37.695312 C 61.679688 36.546875 59.058594 36.101562 56.335938 36.164062 C 55.21875 36.1875 54.125 36.359375 53.039062 36.59375 C 52.753906 36.65625 52.652344 36.78125 52.597656 37.042969 C 52.457031 37.714844 52.238281 38.367188 51.820312 38.921875 C 51 40.023438 49.894531 40.722656 48.574219 41.0625 C 47.816406 41.257812 47.042969 41.34375 46.257812 41.242188 C 45.949219 41.203125 45.945312 41.230469 45.863281 41.519531 C 45.640625 42.320312 45.726562 43.089844 46.085938 43.835938 C 46.128906 43.929688 46.179688 43.996094 46.292969 44.007812 C 46.402344 44.019531 46.511719 44.054688 46.621094 44.074219 C 49.964844 44.761719 52.566406 46.480469 54.1875 49.558594 C 54.28125 49.730469 54.351562 49.789062 54.570312 49.722656 C 55.542969 49.429688 56.535156 49.394531 57.535156 49.59375 C 58.289062 49.746094 59 50.035156 59.710938 50.3125 C 60.84375 50.761719 62.007812 51.046875 63.238281 51.058594 C 64.613281 51.070312 65.921875 50.832031 67.125 50.136719 C 68.320312 49.449219 69.3125 48.554688 69.894531 47.269531 C 70.171875 46.65625 70.257812 46.007812 70.191406 45.261719 C 70.011719 45.4375 69.890625 45.566406 69.761719 45.6875 C 69.113281 46.285156 68.386719 46.726562 67.492188 46.828125 C 67.285156 46.855469 67.078125 46.875 66.871094 46.886719 C 66.242188 46.921875 65.617188 46.917969 65.003906 46.765625 C 64.804688 46.714844 64.601562 46.664062 64.457031 46.40625 Z M 39.804688 59.417969 C 39.601562 59.671875 39.320312 59.777344 39.023438 59.847656 C 38.0625 60.074219 37.109375 60.152344 36.136719 59.757812 C 36.136719 60.058594 36.15625 60.335938 36.132812 60.609375 C 36.113281 60.796875 36.191406 60.886719 36.332031 60.972656 C 36.683594 61.191406 37.074219 61.285156 37.464844 61.386719 C 38.742188 61.71875 39.96875 61.640625 41.121094 60.929688 C 41.796875 60.511719 42.480469 60.109375 43.15625 59.695312 C 43.246094 59.640625 43.371094 59.625 43.402344 59.484375 C 43.3125 59.402344 43.222656 59.316406 43.128906 59.238281 C 42.90625 59.054688 42.804688 58.804688 42.8125 58.535156 C 42.828125 57.75 43.0625 57.046875 43.707031 56.550781 C 44.140625 56.214844 44.632812 55.992188 45.171875 55.875 C 45.71875 55.757812 46.21875 55.867188 46.710938 56.09375 C 47.441406 56.433594 47.988281 57.53125 47.371094 58.261719 C 47.363281 58.277344 47.375 58.3125 47.375 58.335938 C 47.703125 58.421875 49.300781 58.460938 49.738281 58.40625 C 52.351562 58.070312 53.902344 55.859375 54.160156 53.820312 C 54.183594 53.644531 54.210938 53.449219 54.097656 53.203125 C 53.707031 53.917969 53.128906 54.34375 52.511719 54.734375 C 51.539062 55.347656 50.941406 55.582031 50.53125 55.503906 C 50.535156 55.457031 50.566406 55.433594 50.605469 55.414062 C 51.289062 55.085938 51.867188 54.605469 52.449219 54.125 C 53.066406 53.613281 53.59375 53.03125 53.882812 52.257812 C 53.972656 52.011719 53.984375 51.785156 53.90625 51.53125 C 53.492188 50.179688 52.753906 49.015625 51.78125 48.019531 C 49.738281 45.929688 47.242188 44.925781 44.3125 45.003906 C 42.707031 45.042969 41.214844 45.476562 39.820312 46.253906 C 38.578125 46.945312 37.503906 47.851562 36.585938 48.933594 C 35.855469 49.792969 35.210938 50.722656 34.75 51.765625 C 34.375 52.613281 34.199219 53.515625 34.042969 54.421875 C 34.003906 54.636719 34.070312 54.785156 34.203125 54.953125 C 35.054688 56.046875 35.640625 57.273438 35.9375 58.628906 C 36.015625 58.984375 36.207031 59.160156 36.5 59.28125 C 36.664062 59.347656 36.84375 59.394531 37.023438 59.417969 C 37.945312 59.53125 38.871094 59.632812 39.804688 59.417969 Z M 35.105469 61.402344 C 34.941406 61.46875 34.910156 61.617188 34.84375 61.730469 C 34.386719 62.507812 33.785156 63.128906 32.996094 63.5625 C 32.730469 63.710938 32.453125 63.847656 32.175781 63.976562 C 31.546875 64.269531 30.910156 64.550781 30.210938 64.648438 C 30 64.679688 29.785156 64.71875 29.570312 64.582031 C 29.621094 64.542969 29.648438 64.507812 29.6875 64.496094 C 30.953125 64.097656 32.054688 63.390625 33.109375 62.617188 C 34.046875 61.925781 34.613281 60.949219 34.957031 59.84375 C 35.011719 59.671875 35.023438 59.503906 34.984375 59.3125 C 34.664062 57.769531 33.945312 56.433594 32.902344 55.273438 C 31.625 53.851562 30.0625 52.816406 28.320312 52.058594 C 26.449219 51.242188 24.484375 50.855469 22.449219 50.785156 C 20.890625 50.730469 19.371094 50.902344 17.867188 51.304688 C 15.855469 51.847656 14.046875 52.753906 12.617188 54.3125 C 11.71875 55.289062 11.050781 56.40625 10.710938 57.707031 C 10.679688 57.828125 10.640625 57.949219 10.660156 58.074219 C 10.773438 58.722656 10.925781 59.355469 11.316406 59.910156 C 11.65625 60.394531 12.105469 60.765625 12.570312 61.125 C 13.125 61.550781 13.671875 61.996094 14.359375 62.304688 C 13.9375 62.394531 13.859375 62.410156 13.46875 62.246094 C 12.441406 61.820312 11.414062 61.390625 10.675781 60.480469 C 10.660156 60.527344 10.644531 60.554688 10.648438 60.578125 C 10.652344 60.632812 10.664062 60.6875 10.679688 60.742188 C 11.09375 62.117188 11.90625 63.164062 13.222656 63.785156 C 13.636719 63.984375 14.0625 64.152344 14.507812 64.277344 C 15.378906 64.523438 16.265625 64.695312 17.164062 64.777344 C 17.714844 64.832031 18.269531 64.890625 18.863281 64.867188 C 18.75 64.496094 18.757812 64.15625 18.847656 63.8125 C 19.015625 63.167969 19.234375 62.554688 19.835938 62.175781 C 20.230469 61.929688 20.65625 61.753906 21.117188 61.695312 C 22.253906 61.542969 23.253906 61.878906 24.152344 62.582031 C 24.570312 62.914062 24.859375 63.320312 25.019531 63.828125 C 25.207031 64.417969 25.070312 64.929688 24.652344 65.367188 C 24.515625 65.511719 24.359375 65.636719 24.1875 65.792969 C 24.5 65.90625 24.769531 66.003906 25.046875 66.101562 C 26.308594 66.539062 27.582031 66.9375 28.914062 67.097656 C 29.699219 67.195312 30.476562 67.179688 31.210938 66.863281 C 32.339844 66.378906 33.246094 65.605469 33.941406 64.597656 C 34.605469 63.644531 34.96875 62.570312 35.105469 61.402344 Z M 70.152344 41.601562 C 70.300781 41.925781 70.453125 42.238281 70.589844 42.554688 C 70.964844 43.421875 71.183594 44.332031 71.210938 45.269531 C 71.257812 46.796875 70.703125 48.105469 69.667969 49.214844 C 68.089844 50.910156 66.121094 51.738281 63.828125 51.890625 C 62.179688 52.003906 60.621094 51.6875 59.109375 51.070312 C 58.167969 50.6875 57.21875 50.332031 56.191406 50.234375 C 55.71875 50.191406 55.246094 50.214844 54.773438 50.210938 C 54.546875 50.210938 54.519531 50.261719 54.605469 50.5 C 54.800781 51.054688 54.957031 51.617188 55.035156 52.199219 C 55.261719 53.863281 54.914062 55.386719 53.933594 56.757812 C 52.601562 58.613281 50.777344 59.457031 48.515625 59.40625 C 47.652344 59.386719 46.789062 59.324219 45.9375 59.53125 C 44.984375 59.765625 44.101562 60.171875 43.261719 60.675781 C 42.628906 61.054688 41.996094 61.433594 41.363281 61.8125 C 39.628906 62.863281 37.945312 62.660156 36.28125 61.65625 C 36.234375 61.628906 36.191406 61.597656 36.113281 61.546875 C 36.007812 61.789062 36.023438 62.042969 35.988281 62.277344 C 35.875 63.039062 35.582031 63.71875 35.140625 64.34375 C 34.597656 65.109375 33.976562 65.808594 33.277344 66.429688 C 32.445312 67.171875 31.492188 67.707031 30.386719 67.9375 C 29.535156 68.113281 28.695312 68 27.859375 67.847656 C 26.722656 67.636719 25.628906 67.273438 24.527344 66.921875 C 22.796875 66.375 21.027344 66.042969 19.214844 65.925781 C 18.050781 65.855469 16.878906 65.835938 15.726562 65.628906 C 14.667969 65.441406 13.644531 65.160156 12.671875 64.679688 C 11.003906 63.847656 10.039062 62.503906 9.636719 60.707031 C 9.515625 60.160156 9.472656 59.609375 9.484375 59.03125 C 9.273438 59.039062 9.132812 59.15625 8.976562 59.230469 C 7.273438 60.023438 5.546875 60.011719 3.828125 59.335938 C 2.296875 58.734375 1.4375 57.523438 1.035156 55.960938 C 0.710938 54.699219 0.742188 53.417969 0.972656 52.148438 C 1.382812 49.863281 2.15625 47.703125 3.28125 45.679688 C 3.980469 44.417969 4.84375 43.273438 5.972656 42.34375 C 6.964844 41.527344 8.046875 40.894531 9.3125 40.613281 C 9.390625 40.59375 9.46875 40.566406 9.582031 40.53125 C 9.320312 39.929688 9.179688 39.3125 9.15625 38.671875 C 9.128906 38.042969 9.226562 37.425781 9.378906 36.832031 C 9.316406 36.773438 9.261719 36.757812 9.203125 36.765625 C 8.28125 36.890625 7.578125 36.46875 6.988281 35.832031 C 6.074219 34.835938 5.660156 33.636719 5.613281 32.289062 C 5.558594 30.761719 6.070312 29.417969 6.84375 28.140625 C 7.71875 26.707031 8.929688 25.652344 10.410156 24.890625 C 10.867188 24.652344 11.292969 24.363281 11.699219 24.042969 C 12.347656 23.527344 12.804688 22.867188 13.199219 22.152344 C 13.394531 21.800781 13.570312 21.4375 13.773438 21.085938 C 14.132812 20.46875 14.65625 20.066406 15.339844 19.847656 C 16.476562 19.480469 17.632812 19.433594 18.800781 19.632812 C 19.203125 19.699219 19.574219 19.851562 19.960938 20.078125 C 20.648438 18.917969 21.585938 18.035156 22.820312 17.496094 C 24.027344 16.96875 25.273438 16.695312 26.589844 17.03125 C 26.613281 16.808594 26.492188 16.695312 26.425781 16.5625 C 26.007812 15.765625 25.691406 14.941406 25.574219 14.039062 C 25.371094 12.496094 25.8125 11.140625 26.761719 9.945312 C 27.289062 9.28125 27.972656 8.796875 28.71875 8.402344 C 29.421875 8.03125 30.175781 7.902344 30.972656 7.898438 C 32.777344 7.894531 34.246094 8.644531 35.546875 9.832031 C 36.421875 10.628906 37.117188 11.566406 37.769531 12.542969 C 38.839844 14.148438 39.796875 15.8125 40.410156 17.65625 C 40.425781 17.703125 40.457031 17.75 40.527344 17.875 C 40.566406 17.441406 40.613281 17.09375 40.628906 16.742188 C 40.671875 15.820312 40.675781 14.898438 40.75 13.980469 C 40.875 12.46875 41.195312 11.007812 42.011719 9.691406 C 42.882812 8.277344 44.167969 7.546875 45.769531 7.34375 C 46.867188 7.203125 47.925781 7.421875 48.941406 7.867188 C 49.777344 8.238281 50.453125 8.820312 50.984375 9.546875 C 52.054688 11.011719 52.621094 12.667969 52.78125 14.472656 C 52.824219 14.988281 52.867188 15.496094 52.785156 16.03125 C 52.953125 16.039062 53.019531 15.898438 53.109375 15.816406 C 53.890625 15.070312 54.796875 14.570312 55.867188 14.449219 C 57.75 14.238281 59.453125 14.65625 60.902344 15.949219 C 62.226562 17.128906 62.933594 18.632812 63.128906 20.363281 C 63.46875 23.355469 62.757812 26.09375 61.019531 28.550781 C 60.960938 28.632812 60.894531 28.703125 60.871094 28.800781 C 60.9375 28.90625 61.046875 28.867188 61.136719 28.875 C 61.617188 28.910156 62.0625 29.050781 62.484375 29.28125 C 63.691406 29.941406 64.988281 30.25 66.359375 30.308594 C 67.109375 30.339844 67.863281 30.269531 68.609375 30.386719 C 70.03125 30.605469 71.246094 31.246094 72.296875 32.207031 C 72.925781 32.785156 73.453125 33.449219 73.886719 34.191406 C 74.957031 36.003906 74.734375 38.300781 73.300781 39.894531 C 72.546875 40.730469 71.632812 41.210938 70.578125 41.496094 C 70.445312 41.53125 70.308594 41.5625 70.152344 41.601562 " fill-opacity="1" fill-rule="nonzero"/></g><path fill="#560f18" d="M 57.46875 44.972656 C 57.09375 44.960938 56.71875 44.984375 56.351562 45.082031 C 56.09375 45.148438 55.847656 45.246094 55.648438 45.425781 C 55.308594 45.726562 55.261719 46.09375 55.511719 46.46875 C 55.667969 46.703125 55.871094 46.894531 56.105469 47.050781 C 56.910156 47.582031 57.800781 47.816406 58.753906 47.765625 C 59.273438 47.742188 59.761719 47.566406 60.191406 47.253906 C 60.523438 47.011719 60.589844 46.808594 60.441406 46.425781 C 60.285156 46.019531 60.011719 45.710938 59.628906 45.507812 C 58.953125 45.148438 58.242188 44.941406 57.46875 44.972656 Z M 57.535156 44.246094 C 58.511719 44.265625 59.40625 44.503906 60.179688 45.078125 C 60.730469 45.484375 61.101562 46.003906 61.050781 46.738281 C 61.035156 46.988281 60.953125 47.191406 60.777344 47.371094 C 60.214844 47.933594 59.582031 48.277344 58.75 48.296875 C 58.148438 48.304688 57.554688 48.316406 56.96875 48.191406 C 56.289062 48.046875 55.6875 47.726562 55.175781 47.257812 C 54.359375 46.515625 54.457031 45.367188 55.394531 44.773438 C 56.054688 44.355469 56.800781 44.277344 57.535156 44.246094 " fill-opacity="1" fill-rule="nonzero"/></svg>