<svg xmlns="http://www.w3.org/2000/svg" xmlns:xlink="http://www.w3.org/1999/xlink" width="104" zoomAndPan="magnify" viewBox="0 0 78 76.499998" height="102" preserveAspectRatio="xMidYMid meet" version="1.0"><defs><clipPath id="9551b2b72e"><path d="M 29 21 L 77.746094 21 L 77.746094 70 L 29 70 Z M 29 21 " clip-rule="nonzero"/></clipPath><clipPath id="9e6a54682f"><path d="M 28 20 L 77.746094 20 L 77.746094 70.402344 L 28 70.402344 Z M 28 20 " clip-rule="nonzero"/></clipPath><clipPath id="dff46fbf50"><path d="M 0.253906 5 L 47 5 L 47 52 L 0.253906 52 Z M 0.253906 5 " clip-rule="nonzero"/></clipPath><clipPath id="1afbe55113"><path d="M 0.253906 4.828125 L 47 4.828125 L 47 52 L 0.253906 52 Z M 0.253906 4.828125 " clip-rule="nonzero"/></clipPath></defs><g clip-path="url(#9551b2b72e)"><path fill="#a75a26" d="M 77.679688 45.679688 C 77.679688 46.472656 77.640625 47.265625 77.5625 48.054688 C 77.484375 48.847656 77.367188 49.628906 77.210938 50.410156 C 77.058594 51.1875 76.863281 51.957031 76.632812 52.71875 C 76.402344 53.476562 76.132812 54.222656 75.828125 54.957031 C 75.523438 55.691406 75.183594 56.40625 74.808594 57.105469 C 74.433594 57.808594 74.023438 58.488281 73.582031 59.148438 C 73.136719 59.808594 72.664062 60.445312 72.160156 61.058594 C 71.652344 61.671875 71.121094 62.257812 70.554688 62.820312 C 69.992188 63.382812 69.402344 63.914062 68.789062 64.417969 C 68.171875 64.921875 67.53125 65.394531 66.871094 65.835938 C 66.207031 66.277344 65.523438 66.683594 64.824219 67.058594 C 64.121094 67.433594 63.402344 67.773438 62.664062 68.074219 C 61.929688 68.378906 61.179688 68.644531 60.417969 68.875 C 59.65625 69.105469 58.882812 69.300781 58.101562 69.453125 C 57.320312 69.609375 56.535156 69.726562 55.742188 69.804688 C 54.949219 69.882812 54.152344 69.921875 53.355469 69.921875 C 52.558594 69.921875 51.765625 69.882812 50.972656 69.804688 C 50.179688 69.726562 49.394531 69.609375 48.613281 69.453125 C 47.832031 69.300781 47.058594 69.105469 46.296875 68.875 C 45.535156 68.644531 44.785156 68.378906 44.046875 68.074219 C 43.3125 67.773438 42.59375 67.433594 41.890625 67.058594 C 41.1875 66.683594 40.503906 66.277344 39.84375 65.835938 C 39.179688 65.394531 38.542969 64.921875 37.925781 64.417969 C 37.308594 63.914062 36.722656 63.382812 36.15625 62.820312 C 35.59375 62.257812 35.058594 61.671875 34.554688 61.058594 C 34.050781 60.445312 33.574219 59.808594 33.132812 59.148438 C 32.691406 58.488281 32.28125 57.808594 31.90625 57.105469 C 31.53125 56.40625 31.191406 55.691406 30.886719 54.957031 C 30.578125 54.222656 30.3125 53.476562 30.082031 52.71875 C 29.847656 51.957031 29.65625 51.1875 29.5 50.410156 C 29.34375 49.628906 29.230469 48.847656 29.152344 48.054688 C 29.074219 47.265625 29.035156 46.472656 29.035156 45.679688 C 29.035156 44.886719 29.074219 44.09375 29.152344 43.304688 C 29.230469 42.515625 29.34375 41.730469 29.5 40.953125 C 29.65625 40.171875 29.847656 39.402344 30.082031 38.644531 C 30.3125 37.882812 30.578125 37.136719 30.886719 36.402344 C 31.191406 35.671875 31.53125 34.953125 31.90625 34.253906 C 32.28125 33.554688 32.691406 32.875 33.132812 32.214844 C 33.574219 31.554688 34.050781 30.917969 34.554688 30.300781 C 35.058594 29.6875 35.59375 29.101562 36.15625 28.539062 C 36.722656 27.980469 37.308594 27.445312 37.925781 26.941406 C 38.542969 26.4375 39.179688 25.964844 39.84375 25.527344 C 40.503906 25.085938 41.1875 24.675781 41.890625 24.300781 C 42.59375 23.929688 43.3125 23.589844 44.046875 23.285156 C 44.785156 22.980469 45.535156 22.714844 46.296875 22.484375 C 47.058594 22.253906 47.832031 22.0625 48.613281 21.90625 C 49.394531 21.75 50.179688 21.636719 50.972656 21.558594 C 51.765625 21.480469 52.558594 21.441406 53.355469 21.441406 C 54.152344 21.441406 54.949219 21.480469 55.742188 21.558594 C 56.535156 21.636719 57.320312 21.75 58.101562 21.90625 C 58.882812 22.0625 59.65625 22.253906 60.417969 22.484375 C 61.179688 22.714844 61.929688 22.980469 62.664062 23.285156 C 63.402344 23.589844 64.121094 23.929688 64.824219 24.300781 C 65.523438 24.675781 66.207031 25.085938 66.871094 25.527344 C 67.53125 25.964844 68.171875 26.4375 68.789062 26.941406 C 69.402344 27.445312 69.992188 27.980469 70.554688 28.539062 C 71.121094 29.101562 71.652344 29.6875 72.160156 30.300781 C 72.664062 30.917969 73.136719 31.554688 73.582031 32.214844 C 74.023438 32.875 74.433594 33.554688 74.808594 34.253906 C 75.183594 34.953125 75.523438 35.671875 75.828125 36.402344 C 76.132812 37.136719 76.402344 37.882812 76.632812 38.644531 C 76.863281 39.402344 77.058594 40.171875 77.210938 40.953125 C 77.367188 41.730469 77.484375 42.515625 77.5625 43.304688 C 77.640625 44.09375 77.679688 44.886719 77.679688 45.679688 Z M 77.679688 45.679688 " fill-opacity="1" fill-rule="nonzero"/></g><path fill="#c8783d" d="M 46.261719 25.949219 C 42.203125 27.761719 41.207031 27.761719 39.789062 29.175781 C 38.523438 30.410156 38.855469 30.855469 37.125 32.976562 C 35.375 35.140625 34.378906 35.472656 33.3125 36.664062 C 30.273438 40 30.207031 46.011719 31.695312 50.011719 C 32.667969 52.597656 33.710938 52.796875 35.265625 56.90625 C 36.152344 59.269531 36.105469 59.953125 36.992188 61.039062 C 38.546875 62.914062 40.585938 63.113281 43.910156 64.019531 C 50.1875 65.746094 49.277344 66.804688 52.914062 67.359375 C 54.175781 67.554688 61.09375 68.484375 65.730469 64.484375 C 67.324219 63.113281 66.59375 62.914062 70.339844 58.03125 C 73.488281 53.921875 74.175781 53.835938 74.953125 51.933594 C 76.148438 48.972656 75.683594 46.300781 75.0625 42.851562 C 74.398438 39.050781 73.753906 35.492188 71.027344 32.15625 C 68.898438 29.550781 66.0625 28.269531 60.40625 25.703125 C 54.53125 23.054688 52.425781 23.273438 51.292969 23.515625 C 49.988281 23.828125 50.429688 24.09375 46.261719 25.949219 Z M 46.261719 25.949219 " fill-opacity="1" fill-rule="nonzero"/><path fill="#dc8e5e" d="M 45.109375 29.636719 C 43.554688 30.941406 44.445312 32.398438 42.914062 34.476562 C 40.5625 37.660156 36.90625 36.289062 35.53125 38.742188 C 34 41.4375 36.773438 45.945312 38.414062 48.640625 C 40.273438 51.691406 41.804688 52.617188 43.023438 56.109375 C 43.777344 58.277344 43.46875 58.695312 44.175781 59.335938 C 46.394531 61.347656 50.140625 57.945312 55.617188 59.445312 C 58.414062 60.21875 58.34375 61.347656 60.121094 61.28125 C 64.222656 61.125 67.082031 55.050781 69.121094 50.695312 C 70.917969 46.875 71.9375 44.640625 71.671875 41.480469 C 71.359375 37.878906 69.367188 33.261719 66.238281 32.621094 C 64.664062 32.289062 64.398438 33.328125 62.203125 33.417969 C 58.546875 33.59375 57.613281 30.832031 52.625 29.394531 C 50.917969 28.910156 47.238281 27.847656 45.109375 29.636719 Z M 45.109375 29.636719 " fill-opacity="0.64" fill-rule="nonzero"/><g clip-path="url(#9e6a54682f)"><path fill="#3f1c13" d="M 77.746094 45.679688 C 77.746094 48.863281 77.148438 52.042969 75.972656 55.003906 C 74.796875 57.988281 73.046875 60.726562 70.808594 63.046875 C 68.566406 65.367188 65.863281 67.246094 62.847656 68.507812 C 59.851562 69.765625 56.59375 70.382812 53.355469 70.363281 C 50.121094 70.320312 46.882812 69.632812 43.933594 68.351562 C 42.449219 67.710938 41.050781 66.9375 39.71875 66.007812 C 38.390625 65.105469 37.171875 64.066406 36.039062 62.9375 C 33.777344 60.660156 31.960938 57.964844 30.71875 55.027344 C 30.097656 53.546875 29.609375 52.023438 29.277344 50.453125 C 28.945312 48.882812 28.765625 47.292969 28.746094 45.679688 C 28.699219 42.476562 29.277344 39.226562 30.496094 36.246094 C 31.714844 33.238281 33.511719 30.5 35.816406 28.179688 C 38.101562 25.882812 40.851562 24.027344 43.84375 22.765625 C 46.839844 21.507812 50.121094 20.867188 53.355469 20.867188 C 56.617188 20.886719 59.875 21.527344 62.867188 22.808594 C 65.863281 24.070312 68.589844 25.96875 70.808594 28.289062 C 73.046875 30.609375 74.796875 33.371094 75.972656 36.332031 C 77.148438 39.316406 77.746094 42.5 77.746094 45.679688 Z M 77.636719 45.679688 C 77.636719 44.089844 77.457031 42.519531 77.148438 40.972656 C 76.816406 39.425781 76.351562 37.902344 75.707031 36.464844 C 74.441406 33.570312 72.601562 30.941406 70.320312 28.796875 C 69.1875 27.714844 67.945312 26.742188 66.636719 25.902344 C 66.304688 25.703125 65.972656 25.484375 65.640625 25.285156 C 65.308594 25.109375 64.953125 24.910156 64.621094 24.734375 C 64.265625 24.554688 63.933594 24.378906 63.578125 24.222656 C 63.222656 24.070312 62.867188 23.894531 62.515625 23.761719 C 61.074219 23.1875 59.566406 22.742188 58.035156 22.433594 C 56.503906 22.148438 54.953125 21.992188 53.402344 21.992188 C 51.847656 21.992188 50.296875 22.148438 48.765625 22.457031 C 47.238281 22.765625 45.75 23.207031 44.308594 23.78125 C 41.429688 24.953125 38.765625 26.699219 36.550781 28.886719 C 34.332031 31.074219 32.535156 33.703125 31.316406 36.554688 C 30.695312 37.992188 30.230469 39.492188 29.898438 41.019531 C 29.566406 42.542969 29.386719 44.113281 29.367188 45.679688 C 29.320312 48.816406 29.898438 51.976562 31.09375 54.894531 C 32.292969 57.8125 34.089844 60.484375 36.328125 62.71875 C 37.460938 63.820312 38.699219 64.816406 40.007812 65.679688 C 41.339844 66.539062 42.734375 67.246094 44.199219 67.820312 C 47.125 68.96875 50.273438 69.546875 53.402344 69.5 C 54.976562 69.480469 56.527344 69.324219 58.058594 69.015625 C 59.585938 68.707031 61.09375 68.242188 62.535156 67.667969 C 62.890625 67.535156 63.246094 67.359375 63.601562 67.203125 C 63.957031 67.046875 64.308594 66.847656 64.644531 66.671875 C 64.996094 66.496094 65.328125 66.296875 65.664062 66.121094 C 65.996094 65.921875 66.328125 65.699219 66.660156 65.5 C 67.96875 64.640625 69.210938 63.6875 70.339844 62.605469 C 72.601562 60.441406 74.464844 57.8125 75.730469 54.917969 C 76.371094 53.480469 76.835938 51.957031 77.171875 50.410156 C 77.457031 48.863281 77.613281 47.269531 77.636719 45.679688 Z M 77.636719 45.679688 " fill-opacity="1" fill-rule="nonzero"/></g><path stroke-linecap="butt" transform="matrix(0.221727, 0, 0, 0.220968, -18.615702, -20.786695)" fill-opacity="1" fill="#3f1c13" fill-rule="nonzero" stroke-linejoin="miter" d="M 303.699718 211.399298 C 299.295367 210.303268 294.591521 215.394503 292.195554 217.798698 C 291.191362 218.806338 280.902798 229.695925 285.50094 238.305062 C 289.500091 245.906559 302.906935 247.497571 309.108261 242.300268 C 318.093137 234.804838 311.504228 213.308511 303.699718 211.399298 Z M 303.699718 211.399298 " stroke="#22100c" stroke-width="0.784" stroke-opacity="1" stroke-miterlimit="10"/><path stroke-linecap="butt" transform="matrix(0.221727, 0, 0, 0.220968, -18.615702, -20.786695)" fill-opacity="1" fill="#3f1c13" fill-rule="nonzero" stroke-linejoin="miter" d="M 356.904277 222.094428 C 350.896742 219.301319 338.599794 225.895176 338.406003 234.698771 C 338.194594 243.997346 351.601438 250.803338 357.503268 247.692027 C 364.497377 244.191803 364.303586 225.594652 356.904277 222.094428 Z M 356.904277 222.094428 " stroke="#22100c" stroke-width="0.784" stroke-opacity="1" stroke-miterlimit="10"/><path stroke-linecap="butt" transform="matrix(0.221727, 0, 0, 0.220968, -18.615702, -20.786695)" fill-opacity="1" fill="#3f1c13" fill-rule="nonzero" stroke-linejoin="miter" d="M 398.60467 254.798543 C 392.491431 255.293525 389.003186 273.006781 387.593793 280.396143 C 385.796818 289.500262 386.994802 292.098913 387.593793 293.194943 C 391.998144 301.096965 408.100451 303.395092 413.896577 297.59674 C 423.198566 287.997641 407.307668 254.003038 398.60467 254.798543 Z M 398.60467 254.798543 " stroke="#22100c" stroke-width="0.784" stroke-opacity="1" stroke-miterlimit="10"/><path stroke-linecap="butt" transform="matrix(0.221727, 0, 0, 0.220968, -18.615702, -20.786695)" fill-opacity="1" fill="#3f1c13" fill-rule="nonzero" stroke-linejoin="miter" d="M 377.393317 342.003627 C 368.496528 342.39254 361.69621 353.193738 363.59889 356.800029 C 364.303586 358.108194 365.994857 358.108194 379.102205 358.497108 C 391.099657 358.797632 392.597136 358.992089 393.196128 357.80767 C 395.292599 354.307445 387.400002 341.597035 377.393317 342.003627 Z M 377.393317 342.003627 " stroke="#22100c" stroke-width="0.784" stroke-opacity="1" stroke-miterlimit="10"/><path stroke-linecap="butt" transform="matrix(0.221727, 0, 0, 0.220968, -18.615702, -20.786695)" fill-opacity="1" fill="#3f1c13" fill-rule="nonzero" stroke-linejoin="miter" d="M 336.291915 323.901456 C 332.292764 325.298011 328.698814 329.805875 328.892605 335.003178 C 329.104014 340.501005 333.508365 344.49621 337.701307 345.804375 C 344.695416 347.996435 352.905126 343.099656 353.891701 337.707897 C 355.195388 330.495313 344.307833 321.108348 336.291915 323.901456 Z M 336.291915 323.901456 " stroke="#22100c" stroke-width="0.784" stroke-opacity="1" stroke-miterlimit="10"/><path stroke-linecap="butt" transform="matrix(0.221727, 0, 0, 0.220968, -18.615702, -20.786695)" fill-opacity="1" fill="#3f1c13" fill-rule="nonzero" stroke-linejoin="miter" d="M 350.103959 269.294422 C 343.796928 266.801838 336.996611 270.40813 334.301148 275.693822 C 331.006694 282.305357 334.001652 291.497865 340.995761 293.902059 C 347.707992 296.200186 355.195388 291.497865 357.203772 284.797941 C 358.895043 278.999589 356.393372 271.804684 350.103959 269.294422 Z M 350.103959 269.294422 " stroke="#22100c" stroke-width="0.784" stroke-opacity="1" stroke-miterlimit="10"/><path stroke-linecap="butt" transform="matrix(0.221727, 0, 0, 0.220968, -18.615702, -20.786695)" fill-opacity="1" fill="#3f1c13" fill-rule="nonzero" stroke-linejoin="miter" d="M 287.791203 283.807978 C 281.008503 284.904008 273.591576 291.303408 274.296272 297.296216 C 274.807177 301.591946 279.405319 305.003781 283.104974 306.400335 C 288.407812 308.397938 290.99757 305.693219 294.591521 308.097413 C 299.101576 311.102656 297.604097 317.201532 300.299559 317.908648 C 303.505927 318.704154 310.20054 311.403181 310.394331 303.801684 C 310.60574 293.194943 298.696376 282.004832 287.791203 283.807978 Z M 287.791203 283.807978 " stroke="#22100c" stroke-width="0.784" stroke-opacity="1" stroke-miterlimit="10"/><path stroke-linecap="butt" transform="matrix(0.221727, 0, 0, 0.220968, -18.615702, -20.786695)" fill-opacity="1" fill="#3f1c13" fill-rule="nonzero" stroke-linejoin="miter" d="M 253.507736 319.499659 C 248.891976 320.807824 246.302218 327.702205 246.407922 333.005575 C 246.496009 339.104451 250.301368 345.804375 257.207391 347.801978 C 263.408717 349.605124 271.001817 347.306997 272.992584 342.693065 C 276.903648 334.207672 261.999324 317.201532 253.507736 319.499659 Z M 253.507736 319.499659 " stroke="#22100c" stroke-width="0.784" stroke-opacity="1" stroke-miterlimit="10"/><path stroke-linecap="butt" transform="matrix(0.221727, 0, 0, 0.220968, -18.615702, -20.786695)" fill-opacity="1" fill="#3f1c13" fill-rule="nonzero" stroke-linejoin="miter" d="M 304.70391 368.007818 C 303.699718 368.591189 299.20728 371.207518 298.608289 376.404821 C 297.903592 382.397629 302.995022 386.304445 303.294518 386.498902 C 307.998365 389.999126 316.595657 390.494108 320.806217 384.501299 C 324.893455 378.596881 322.197992 370.394335 316.807066 367.300702 C 311.292819 364.20707 305.091493 367.707294 304.70391 368.007818 Z M 304.70391 368.007818 " stroke="#22100c" stroke-width="0.784" stroke-opacity="1" stroke-miterlimit="10"/><path stroke-linecap="butt" transform="matrix(0.221727, 0, 0, 0.220968, -18.615702, -20.786695)" fill-opacity="1" fill="#3f1c13" fill-rule="nonzero" stroke-linejoin="miter" d="M 240.999379 247.692027 C 246.196513 246.207084 253.102536 248.204687 256.502694 253.401989 C 256.80219 253.808581 259.902853 258.705359 258.193965 263.796595 C 255.005215 273.201238 237.105933 277.196443 231.908799 271.203635 C 227.293039 265.900265 231.098399 250.502814 240.999379 247.692027 Z M 240.999379 247.692027 " stroke="#22100c" stroke-width="0.784" stroke-opacity="1" stroke-miterlimit="10"/><g clip-path="url(#dff46fbf50)"><path fill="#a75a26" d="M 46.527344 28.355469 C 46.527344 29.109375 46.492188 29.855469 46.417969 30.605469 C 46.34375 31.351562 46.234375 32.09375 46.085938 32.832031 C 45.9375 33.566406 45.753906 34.296875 45.535156 35.015625 C 45.316406 35.734375 45.0625 36.441406 44.777344 37.132812 C 44.488281 37.828125 44.164062 38.507812 43.808594 39.167969 C 43.453125 39.832031 43.066406 40.476562 42.648438 41.097656 C 42.230469 41.722656 41.78125 42.328125 41.304688 42.90625 C 40.824219 43.488281 40.320312 44.042969 39.785156 44.574219 C 39.253906 45.105469 38.695312 45.609375 38.113281 46.085938 C 37.53125 46.5625 36.925781 47.011719 36.300781 47.425781 C 35.671875 47.84375 35.027344 48.230469 34.363281 48.585938 C 33.695312 48.9375 33.015625 49.257812 32.320312 49.546875 C 31.625 49.835938 30.914062 50.085938 30.191406 50.304688 C 29.472656 50.523438 28.742188 50.707031 28.003906 50.851562 C 27.261719 51 26.519531 51.109375 25.769531 51.183594 C 25.019531 51.257812 24.265625 51.292969 23.511719 51.292969 C 22.757812 51.292969 22.007812 51.257812 21.257812 51.183594 C 20.507812 51.109375 19.761719 51 19.023438 50.851562 C 18.28125 50.707031 17.554688 50.523438 16.832031 50.304688 C 16.109375 50.085938 15.402344 49.835938 14.703125 49.546875 C 14.007812 49.257812 13.328125 48.9375 12.664062 48.585938 C 12 48.230469 11.351562 47.84375 10.726562 47.425781 C 10.097656 47.011719 9.496094 46.5625 8.910156 46.085938 C 8.328125 45.609375 7.769531 45.105469 7.238281 44.574219 C 6.707031 44.042969 6.199219 43.488281 5.722656 42.90625 C 5.242188 42.328125 4.792969 41.722656 4.375 41.097656 C 3.957031 40.476562 3.570312 39.832031 3.214844 39.167969 C 2.859375 38.507812 2.539062 37.828125 2.25 37.132812 C 1.960938 36.441406 1.707031 35.734375 1.488281 35.015625 C 1.269531 34.296875 1.085938 33.566406 0.9375 32.832031 C 0.792969 32.09375 0.683594 31.351562 0.609375 30.605469 C 0.535156 29.855469 0.496094 29.109375 0.496094 28.355469 C 0.496094 27.605469 0.535156 26.855469 0.609375 26.109375 C 0.683594 25.359375 0.792969 24.617188 0.9375 23.882812 C 1.085938 23.144531 1.269531 22.417969 1.488281 21.699219 C 1.707031 20.980469 1.960938 20.273438 2.25 19.578125 C 2.539062 18.886719 2.859375 18.207031 3.214844 17.542969 C 3.570312 16.882812 3.957031 16.238281 4.375 15.613281 C 4.792969 14.988281 5.242188 14.386719 5.722656 13.804688 C 6.199219 13.226562 6.707031 12.667969 7.238281 12.136719 C 7.769531 11.605469 8.328125 11.101562 8.910156 10.625 C 9.496094 10.148438 10.097656 9.703125 10.726562 9.285156 C 11.351562 8.867188 12 8.484375 12.664062 8.128906 C 13.328125 7.773438 14.007812 7.453125 14.703125 7.167969 C 15.402344 6.878906 16.109375 6.625 16.832031 6.40625 C 17.554688 6.191406 18.28125 6.007812 19.023438 5.859375 C 19.761719 5.714844 20.507812 5.605469 21.257812 5.53125 C 22.007812 5.457031 22.757812 5.421875 23.511719 5.421875 C 24.265625 5.421875 25.019531 5.457031 25.769531 5.53125 C 26.519531 5.605469 27.261719 5.714844 28.003906 5.859375 C 28.742188 6.007812 29.472656 6.191406 30.191406 6.40625 C 30.914062 6.625 31.625 6.878906 32.320312 7.167969 C 33.015625 7.453125 33.695312 7.773438 34.363281 8.128906 C 35.027344 8.484375 35.671875 8.867188 36.300781 9.285156 C 36.925781 9.703125 37.53125 10.148438 38.113281 10.625 C 38.695312 11.101562 39.253906 11.605469 39.785156 12.136719 C 40.320312 12.667969 40.824219 13.226562 41.304688 13.804688 C 41.78125 14.386719 42.230469 14.988281 42.648438 15.613281 C 43.066406 16.238281 43.453125 16.882812 43.808594 17.542969 C 44.164062 18.207031 44.488281 18.886719 44.777344 19.578125 C 45.0625 20.273438 45.316406 20.980469 45.535156 21.699219 C 45.753906 22.417969 45.9375 23.144531 46.085938 23.882812 C 46.234375 24.617188 46.34375 25.359375 46.417969 26.109375 C 46.492188 26.855469 46.527344 27.605469 46.527344 28.355469 Z M 46.527344 28.355469 " fill-opacity="1" fill-rule="nonzero"/></g><path fill="#c8783d" d="M 33.222656 11.054688 C 29.386719 9.285156 28.789062 8.601562 26.90625 8.46875 C 25.242188 8.359375 25.132812 8.84375 22.535156 8.957031 C 19.898438 9.042969 19.035156 8.558594 17.527344 8.535156 C 13.246094 8.449219 8.902344 12.136719 6.972656 15.695312 C 5.730469 17.992188 6.238281 18.855469 4.265625 22.523438 C 3.136719 24.621094 2.605469 25.019531 2.382812 26.324219 C 2.003906 28.601562 3.136719 30.167969 4.554688 33.105469 C 7.214844 38.632812 5.90625 38.652344 7.769531 41.570312 C 8.414062 42.585938 12.050781 48.089844 17.792969 48.882812 C 19.765625 49.148438 19.453125 48.53125 25.265625 48.15625 C 30.164062 47.847656 30.675781 48.265625 32.492188 47.648438 C 35.351562 46.675781 36.972656 44.640625 39.054688 42.078125 C 41.363281 39.226562 43.488281 36.578125 44.199219 32.554688 C 44.730469 29.417969 43.890625 26.609375 42.203125 21 C 40.453125 15.164062 38.988281 13.816406 38.101562 13.152344 C 37.039062 12.378906 37.148438 12.84375 33.222656 11.054688 Z M 33.222656 11.054688 " fill-opacity="1" fill-rule="nonzero"/><path fill="#dc8e5e" d="M 29.875 12.511719 C 27.96875 12.203125 27.480469 13.75 25.066406 13.949219 C 21.316406 14.257812 20.03125 10.8125 17.414062 11.34375 C 14.554688 11.9375 13.023438 16.710938 12.136719 19.539062 C 11.117188 22.765625 11.40625 24.421875 9.65625 27.472656 C 8.566406 29.351562 8.082031 29.394531 8.058594 30.300781 C 7.992188 33.128906 12.757812 33.660156 15.085938 38.5 C 16.285156 40.972656 15.417969 41.613281 16.574219 42.851562 C 19.234375 45.679688 25.375 43.914062 29.742188 42.675781 C 33.601562 41.570312 35.816406 40.90625 37.902344 38.765625 C 40.296875 36.3125 42.335938 32.023438 40.875 29.394531 C 40.121094 28.070312 39.234375 28.535156 37.792969 27.03125 C 35.375 24.535156 36.792969 22.148438 34.710938 17.726562 C 34 16.203125 32.46875 12.933594 29.875 12.511719 Z M 29.875 12.511719 " fill-opacity="0.64" fill-rule="nonzero"/><g clip-path="url(#1afbe55113)"><path fill="#3f1c13" d="M 38.679688 45.679688 C 36.394531 47.667969 33.757812 49.214844 30.894531 50.230469 C 28.035156 51.25 24.976562 51.714844 21.914062 51.558594 C 18.855469 51.425781 15.820312 50.652344 13.070312 49.304688 C 10.296875 47.957031 7.835938 46.035156 5.839844 43.714844 C 3.84375 41.394531 2.335938 38.675781 1.40625 35.78125 C 0.941406 34.324219 0.628906 32.84375 0.453125 31.339844 C 0.277344 29.835938 0.253906 28.3125 0.363281 26.808594 C 0.585938 23.804688 1.382812 20.820312 2.714844 18.105469 C 3.378906 16.753906 4.179688 15.453125 5.085938 14.238281 C 5.996094 13.019531 7.039062 11.894531 8.167969 10.898438 C 10.429688 8.867188 13.113281 7.277344 16.019531 6.28125 C 18.921875 5.289062 22.003906 4.84375 25.085938 5.042969 C 28.144531 5.242188 31.183594 6.039062 33.957031 7.386719 C 36.726562 8.734375 39.210938 10.65625 41.226562 12.976562 C 43.246094 15.296875 44.796875 18.015625 45.75 20.933594 C 46.703125 23.847656 47.039062 26.941406 46.773438 29.992188 C 46.503906 33.019531 45.617188 36.003906 44.222656 38.675781 C 42.847656 41.304688 40.960938 43.714844 38.679688 45.679688 Z M 38.613281 45.613281 C 39.742188 44.621094 40.761719 43.515625 41.671875 42.34375 C 42.582031 41.152344 43.355469 39.867188 44 38.519531 C 45.285156 35.824219 46.019531 32.886719 46.152344 29.925781 C 46.21875 28.445312 46.128906 26.964844 45.929688 25.507812 C 45.707031 24.046875 45.351562 22.613281 44.886719 21.21875 C 44.398438 19.828125 43.777344 18.480469 43.046875 17.21875 C 42.316406 15.960938 41.449219 14.746094 40.472656 13.664062 C 39.5 12.558594 38.433594 11.539062 37.257812 10.65625 C 36.085938 9.75 34.84375 8.976562 33.535156 8.316406 C 30.894531 6.988281 28.011719 6.195312 25.066406 5.972656 C 22.117188 5.75 19.121094 6.105469 16.304688 7.03125 C 14.910156 7.496094 13.535156 8.09375 12.226562 8.800781 C 10.917969 9.507812 9.699219 10.371094 8.566406 11.320312 C 6.304688 13.242188 4.398438 15.605469 3.046875 18.28125 C 1.695312 20.933594 0.894531 23.871094 0.71875 26.855469 C 0.628906 28.335938 0.695312 29.835938 0.894531 31.316406 C 1.117188 32.796875 1.472656 34.234375 1.960938 35.648438 C 2.957031 38.453125 4.511719 41.039062 6.484375 43.226562 C 7.460938 44.332031 8.566406 45.328125 9.722656 46.234375 C 10.894531 47.140625 12.160156 47.914062 13.46875 48.574219 C 13.800781 48.75 14.132812 48.882812 14.464844 49.039062 C 14.796875 49.195312 15.152344 49.328125 15.484375 49.460938 C 15.820312 49.589844 16.171875 49.703125 16.527344 49.835938 C 16.882812 49.945312 17.238281 50.054688 17.59375 50.167969 C 19.011719 50.5625 20.476562 50.851562 21.960938 50.984375 C 24.929688 51.25 27.945312 50.917969 30.808594 50.035156 C 32.25 49.589844 33.625 48.972656 34.929688 48.242188 C 36.238281 47.46875 37.460938 46.585938 38.613281 45.613281 Z M 38.613281 45.613281 " fill-opacity="1" fill-rule="nonzero"/></g><path stroke-linecap="butt" transform="matrix(0.221727, 0, 0, 0.220968, -18.615702, -20.786695)" fill-opacity="1" fill="#3f1c13" fill-rule="nonzero" stroke-linejoin="miter" d="M 240.699883 151.895485 C 238.6915 148.094736 232.208295 147.794212 229.001928 147.705822 C 227.69824 147.599755 213.498613 147.104774 210.204158 155.696233 C 207.297287 163.29773 214.3971 173.798403 222.007818 175.000501 C 233.001078 176.697579 244.293834 158.701476 240.699883 151.895485 Z M 240.699883 151.895485 " stroke="#22100c" stroke-width="0.741" stroke-opacity="1" stroke-miterlimit="10"/><path stroke-linecap="butt" transform="matrix(0.221727, 0, 0, 0.220968, -18.615702, -20.786695)" fill-opacity="1" fill="#3f1c13" fill-rule="nonzero" stroke-linejoin="miter" d="M 266.192266 196.496828 C 264.395291 190.504019 252.098344 185.801698 245.791313 191.193457 C 239.0967 196.797352 242.602563 210.603792 248.398689 212.901919 C 255.199007 215.695028 268.306355 203.903868 266.192266 196.496828 Z M 266.192266 196.496828 " stroke="#22100c" stroke-width="0.741" stroke-opacity="1" stroke-miterlimit="10"/><path stroke-linecap="butt" transform="matrix(0.221727, 0, 0, 0.220968, -18.615702, -20.786695)" fill-opacity="1" fill="#3f1c13" fill-rule="nonzero" stroke-linejoin="miter" d="M 268.799642 246.507608 C 264.6067 242.494725 249.808081 250.997795 243.694842 254.604087 C 236.101741 259.005884 234.991845 261.3924 234.604262 262.594498 C 231.69739 270.708654 240.100892 283.595843 247.799697 284.002435 C 260.501845 284.797941 274.807177 252.305959 268.799642 246.507608 Z M 268.799642 246.507608 " stroke="#22100c" stroke-width="0.741" stroke-opacity="1" stroke-miterlimit="10"/><path stroke-linecap="butt" transform="matrix(0.221727, 0, 0, 0.220968, -18.615702, -20.786695)" fill-opacity="1" fill="#3f1c13" fill-rule="nonzero" stroke-linejoin="miter" d="M 193.50286 285.699513 C 187.706734 279.600638 175.691665 281.492173 174.29989 285.098465 C 173.806603 286.406629 174.898882 287.608727 182.703391 297.207827 C 189.891292 305.993743 190.807397 307.107451 192.00538 306.895316 C 195.793122 306.099811 200.003682 292.505505 193.50286 285.699513 Z M 193.50286 285.699513 " stroke="#22100c" stroke-width="0.741" stroke-opacity="1" stroke-miterlimit="10"/><path stroke-linecap="butt" transform="matrix(0.221727, 0, 0, 0.220968, -18.615702, -20.786695)" fill-opacity="1" fill="#3f1c13" fill-rule="nonzero" stroke-linejoin="miter" d="M 180.906416 245.093376 C 177.400553 243.095773 171.903923 243.396298 168.39806 246.702065 C 164.592701 250.308357 164.504614 255.894573 166.195884 259.606932 C 168.997052 266.006332 177.506257 268.799441 181.998695 266.094722 C 187.794821 262.700565 187.794821 249.106259 180.906416 245.093376 Z M 180.906416 245.093376 " stroke="#22100c" stroke-width="0.741" stroke-opacity="1" stroke-miterlimit="10"/><path stroke-linecap="butt" transform="matrix(0.221727, 0, 0, 0.220968, -18.615702, -20.786695)" fill-opacity="1" fill="#3f1c13" fill-rule="nonzero" stroke-linejoin="miter" d="M 228.402936 220.998398 C 226.306465 215.005589 219.506147 212.300871 213.9919 213.697425 C 207.191582 215.394503 202.505353 223.296525 205.200816 229.801992 C 207.702487 236.006935 215.700788 238.499519 221.708323 235.706411 C 226.905457 233.302216 230.499407 226.991206 228.402936 220.998398 Z M 228.402936 220.998398 " stroke="#22100c" stroke-width="0.741" stroke-opacity="1" stroke-miterlimit="10"/><path stroke-linecap="butt" transform="matrix(0.221727, 0, 0, 0.220968, -18.615702, -20.786695)" fill-opacity="1" fill="#3f1c13" fill-rule="nonzero" stroke-linejoin="miter" d="M 179.303233 185.607241 C 174.29989 181.399901 165.191692 180.091736 161.298246 184.405144 C 158.497079 187.498776 159.007984 192.908214 160.294054 196.302371 C 162.196734 201.305217 165.702597 201.499673 166.195884 205.494879 C 166.900581 210.497725 161.597742 213.308511 162.795726 215.695028 C 164.205118 218.505814 173.595194 218.806338 179.197528 214.104016 C 186.808246 207.704617 187.301534 192.307165 179.303233 185.607241 Z M 179.303233 185.607241 " stroke="#22100c" stroke-width="0.741" stroke-opacity="1" stroke-miterlimit="10"/><path stroke-linecap="butt" transform="matrix(0.221727, 0, 0, 0.220968, -18.615702, -20.786695)" fill-opacity="1" fill="#3f1c13" fill-rule="nonzero" stroke-linejoin="miter" d="M 132.493792 183.397503 C 128.70605 180.904919 122.205228 183.291436 118.505573 186.703271 C 114.206927 190.592409 111.793343 197.504468 114.59451 203.603344 C 117.201885 209.207238 123.491298 213.096376 128.001354 211.699822 C 136.492942 209.207238 139.399814 187.993757 132.493792 183.397503 Z M 132.493792 183.397503 " stroke="#22100c" stroke-width="0.741" stroke-opacity="1" stroke-miterlimit="10"/><path stroke-linecap="butt" transform="matrix(0.221727, 0, 0, 0.220968, -18.615702, -20.786695)" fill-opacity="1" fill="#3f1c13" fill-rule="nonzero" stroke-linejoin="miter" d="M 129.692624 250.007832 C 128.70605 249.707308 124.002203 248.098619 119.897348 250.891727 C 115.193501 254.091427 115.598702 260.207981 115.598702 260.508505 C 116.003902 266.006332 121.007245 272.405732 127.895649 271.698616 C 134.695967 270.9915 138.800822 263.902662 137.602839 258.104311 C 136.492942 252.394349 130.203529 250.202289 129.692624 250.007832 Z M 129.692624 250.007832 " stroke="#22100c" stroke-width="0.741" stroke-opacity="1" stroke-miterlimit="10"/><path stroke-linecap="butt" transform="matrix(0.221727, 0, 0, 0.220968, -18.615702, -20.786695)" fill-opacity="1" fill="#3f1c13" fill-rule="nonzero" stroke-linejoin="miter" d="M 175.903074 129.904176 C 180.20172 132.697285 183.108592 138.79616 181.505408 144.506122 C 181.399704 144.895036 179.79652 150.198406 175.092673 152.196009 C 166.407293 155.802301 152.401457 145.496085 153.493736 138.106722 C 154.304137 131.406798 167.693364 124.494739 175.903074 129.904176 Z M 175.903074 129.904176 " stroke="#22100c" stroke-width="0.741" stroke-opacity="1" stroke-miterlimit="10"/></svg>