<svg xmlns="http://www.w3.org/2000/svg" xmlns:xlink="http://www.w3.org/1999/xlink" width="115" zoomAndPan="magnify" viewBox="0 0 86.25 86.249996" height="115" preserveAspectRatio="xMidYMid meet" version="1.0"><defs><clipPath id="3ebeec384e"><path d="M 57 29 L 82.3125 29 L 82.3125 56 L 57 56 Z M 57 29 " clip-rule="nonzero"/></clipPath><clipPath id="32c1bf13a3"><path d="M 2.757812 22.394531 L 61 22.394531 L 61 56 L 2.757812 56 Z M 2.757812 22.394531 " clip-rule="nonzero"/></clipPath><clipPath id="0a1004324a"><path d="M 62 49 L 76 49 L 76 62.542969 L 62 62.542969 Z M 62 49 " clip-rule="nonzero"/></clipPath><clipPath id="97eb8c0b85"><path d="M 19 49 L 33 49 L 33 62.542969 L 19 62.542969 Z M 19 49 " clip-rule="nonzero"/></clipPath></defs><g clip-path="url(#3ebeec384e)"><path fill="#ffffff" d="M 63.558594 32.367188 L 71.875 32.367188 L 77.984375 41.140625 L 62.5625 41.140625 Z M 60.84375 29.640625 L 57.871094 55.835938 L 61.515625 55.835938 C 61.515625 55.832031 61.515625 55.832031 61.515625 55.832031 C 61.746094 53.808594 62.769531 51.863281 64.363281 50.433594 C 65.957031 49 67.992188 48.199219 70.015625 48.199219 C 72.039062 48.199219 73.890625 49 75.160156 50.433594 C 76.429688 51.863281 77.015625 53.808594 76.785156 55.832031 C 76.785156 55.832031 76.785156 55.832031 76.785156 55.835938 L 80.425781 55.835938 L 82.09375 41.140625 L 74.085938 29.640625 L 60.84375 29.640625 " fill-opacity="1" fill-rule="nonzero"/></g><g clip-path="url(#32c1bf13a3)"><path fill="#ffffff" d="M 15.492188 22.464844 L 15.039062 26.457031 L 22.25 26.457031 C 23.019531 26.457031 23.566406 27.078125 23.480469 27.84375 C 23.394531 28.613281 22.703125 29.230469 21.9375 29.230469 L 8.9375 29.230469 C 8.171875 29.230469 7.484375 29.851562 7.394531 30.617188 C 7.308594 31.386719 7.855469 32.003906 8.625 32.003906 L 31.148438 32.003906 C 31.914062 32.003906 32.464844 32.625 32.375 33.390625 C 32.289062 34.160156 31.601562 34.777344 30.832031 34.777344 L 13.003906 34.777344 C 12.234375 34.777344 11.546875 35.398438 11.457031 36.164062 C 11.371094 36.933594 11.917969 37.550781 12.6875 37.550781 L 22.675781 37.550781 C 23.441406 37.550781 23.988281 38.171875 23.902344 38.941406 C 23.816406 39.707031 23.128906 40.324219 22.359375 40.324219 L 4.390625 40.324219 C 3.621094 40.324219 2.929688 40.945312 2.84375 41.710938 C 2.757812 42.480469 3.304688 43.101562 4.074219 43.101562 L 13.148438 43.101562 L 11.703125 55.835938 L 18.421875 55.835938 C 18.421875 55.832031 18.421875 55.832031 18.421875 55.832031 C 18.648438 53.808594 19.675781 51.867188 21.269531 50.433594 C 22.863281 49 24.894531 48.199219 26.921875 48.199219 C 28.945312 48.199219 30.796875 49 32.066406 50.433594 C 33.335938 51.863281 33.917969 53.808594 33.6875 55.832031 C 33.6875 55.832031 33.6875 55.832031 33.6875 55.835938 L 57.171875 55.835938 L 60.957031 22.464844 L 15.492188 22.464844 " fill-opacity="1" fill-rule="nonzero"/></g><g clip-path="url(#0a1004324a)"><path fill="#ffffff" d="M 69.515625 52.609375 C 70.371094 52.609375 71.152344 52.945312 71.6875 53.550781 C 72.226562 54.15625 72.472656 54.976562 72.375 55.832031 C 72.277344 56.6875 71.84375 57.507812 71.171875 58.113281 C 70.5 58.714844 69.640625 59.054688 68.785156 59.054688 C 67.003906 59.054688 65.722656 57.613281 65.925781 55.832031 C 66.023438 54.976562 66.457031 54.15625 67.128906 53.550781 C 67.800781 52.945312 68.660156 52.609375 69.515625 52.609375 Z M 69.894531 49.265625 C 68.152344 49.265625 66.40625 49.957031 65.03125 51.1875 C 63.660156 52.417969 62.78125 54.089844 62.582031 55.832031 C 62.386719 57.574219 62.886719 59.242188 63.980469 60.476562 C 65.070312 61.707031 66.664062 62.398438 68.40625 62.398438 C 70.148438 62.398438 71.894531 61.707031 73.265625 60.476562 C 74.636719 59.242188 75.519531 57.574219 75.71875 55.832031 C 75.914062 54.089844 75.414062 52.417969 74.320312 51.1875 C 73.230469 49.957031 71.636719 49.265625 69.894531 49.265625 " fill-opacity="1" fill-rule="nonzero"/></g><g clip-path="url(#97eb8c0b85)"><path fill="#ffffff" d="M 26.421875 52.609375 C 27.273438 52.609375 28.058594 52.945312 28.59375 53.550781 C 29.128906 54.15625 29.375 54.976562 29.277344 55.832031 C 29.183594 56.6875 28.75 57.507812 28.074219 58.113281 C 27.402344 58.714844 26.542969 59.054688 25.6875 59.054688 C 23.90625 59.054688 22.628906 57.613281 22.832031 55.832031 C 22.925781 54.976562 23.359375 54.15625 24.03125 53.550781 C 24.707031 52.945312 25.566406 52.609375 26.421875 52.609375 Z M 26.800781 49.265625 C 25.058594 49.265625 23.308594 49.957031 21.9375 51.1875 C 20.566406 52.417969 19.683594 54.089844 19.488281 55.832031 C 19.289062 57.574219 19.792969 59.242188 20.882812 60.476562 C 21.976562 61.707031 23.566406 62.398438 25.308594 62.398438 C 27.050781 62.398438 28.800781 61.707031 30.171875 60.476562 C 31.542969 59.242188 32.425781 57.574219 32.621094 55.832031 C 32.820312 54.089844 32.316406 52.417969 31.226562 51.1875 C 30.132812 49.957031 28.542969 49.265625 26.800781 49.265625 " fill-opacity="1" fill-rule="nonzero"/></g><path fill="#ffffff" d="M 27.195312 55.832031 C 27.160156 56.132812 27.007812 56.425781 26.769531 56.636719 C 26.53125 56.851562 26.226562 56.972656 25.925781 56.972656 C 25.621094 56.972656 25.347656 56.851562 25.15625 56.636719 C 24.964844 56.425781 24.878906 56.132812 24.914062 55.832031 C 24.984375 55.203125 25.554688 54.691406 26.183594 54.691406 C 26.8125 54.691406 27.265625 55.203125 27.195312 55.832031 " fill-opacity="1" fill-rule="nonzero"/><path fill="#ffffff" d="M 70.289062 55.832031 C 70.257812 56.132812 70.101562 56.425781 69.863281 56.636719 C 69.625 56.851562 69.324219 56.972656 69.019531 56.972656 C 68.71875 56.972656 68.441406 56.851562 68.253906 56.636719 C 68.0625 56.425781 67.976562 56.132812 68.007812 55.832031 C 68.082031 55.203125 68.648438 54.691406 69.277344 54.691406 C 69.910156 54.691406 70.363281 55.203125 70.289062 55.832031 " fill-opacity="1" fill-rule="nonzero"/></svg>