<svg xmlns="http://www.w3.org/2000/svg" xmlns:xlink="http://www.w3.org/1999/xlink" width="60" zoomAndPan="magnify" viewBox="0 0 45 45.749998" height="61" preserveAspectRatio="xMidYMid meet" version="1.0"><defs><clipPath id="29d9fc3cbc"><path d="M 8.675781 23 L 36.273438 23 L 36.273438 44.753906 L 8.675781 44.753906 Z M 8.675781 23 " clip-rule="nonzero"/></clipPath></defs><path fill="#f6edeb" d="M 31.703125 19.238281 C 31.703125 14.972656 30.914062 10.875 29.640625 7.558594 C 29.625 7.5625 29.613281 7.566406 29.601562 7.566406 L 28.4375 7.566406 C 28.109375 7.566406 27.847656 7.304688 27.847656 6.980469 C 27.847656 6.652344 28.109375 6.390625 28.4375 6.390625 L 29.15625 6.390625 C 27.4375 2.53125 25.027344 0 22.496094 0 C 19.96875 0 17.558594 2.53125 15.835938 6.390625 L 16.558594 6.390625 C 16.882812 6.390625 17.148438 6.652344 17.148438 6.980469 C 17.148438 7.304688 16.882812 7.566406 16.558594 7.566406 L 15.394531 7.566406 C 15.378906 7.566406 15.367188 7.5625 15.351562 7.558594 C 14.078125 10.875 13.289062 14.972656 13.289062 19.238281 C 13.289062 20.667969 13.394531 22.035156 13.566406 23.339844 C 15.742188 23.382812 17.667969 24.113281 19.226562 25.023438 C 19.324219 24.839844 19.515625 24.707031 19.742188 24.707031 L 20.90625 24.707031 C 21.230469 24.707031 21.496094 24.972656 21.496094 25.296875 C 21.496094 25.621094 21.230469 25.886719 20.90625 25.886719 L 20.539062 25.886719 C 21.609375 26.664062 22.421875 27.453125 22.914062 27.980469 C 23.441406 27.183594 24.003906 26.496094 24.589844 25.886719 L 24.089844 25.886719 C 23.761719 25.886719 23.5 25.621094 23.5 25.296875 C 23.5 24.972656 23.761719 24.707031 24.089844 24.707031 L 25.253906 24.707031 C 25.414062 24.707031 25.558594 24.773438 25.664062 24.878906 C 27.59375 23.265625 29.675781 22.46875 31.5625 22.121094 C 31.648438 21.1875 31.703125 20.226562 31.703125 19.238281 Z M 16.558594 22.222656 L 15.394531 22.222656 C 15.070312 22.222656 14.804688 21.960938 14.804688 21.632812 C 14.804688 21.308594 15.070312 21.042969 15.394531 21.042969 L 16.558594 21.042969 C 16.882812 21.042969 17.148438 21.308594 17.148438 21.632812 C 17.148438 21.960938 16.882812 22.222656 16.558594 22.222656 Z M 16.558594 18.558594 L 15.394531 18.558594 C 15.070312 18.558594 14.804688 18.292969 14.804688 17.96875 C 14.804688 17.644531 15.070312 17.378906 15.394531 17.378906 L 16.558594 17.378906 C 16.882812 17.378906 17.148438 17.644531 17.148438 17.96875 C 17.148438 18.292969 16.882812 18.558594 16.558594 18.558594 Z M 16.558594 14.894531 L 15.394531 14.894531 C 15.070312 14.894531 14.804688 14.632812 14.804688 14.304688 C 14.804688 13.980469 15.070312 13.714844 15.394531 13.714844 L 16.558594 13.714844 C 16.882812 13.714844 17.148438 13.980469 17.148438 14.304688 C 17.148438 14.632812 16.882812 14.894531 16.558594 14.894531 Z M 16.558594 11.230469 L 15.394531 11.230469 C 15.070312 11.230469 14.804688 10.96875 14.804688 10.640625 C 14.804688 10.316406 15.070312 10.050781 15.394531 10.050781 L 16.558594 10.050781 C 16.882812 10.050781 17.148438 10.316406 17.148438 10.640625 C 17.148438 10.96875 16.882812 11.230469 16.558594 11.230469 Z M 20.90625 22.222656 L 19.742188 22.222656 C 19.414062 22.222656 19.152344 21.960938 19.152344 21.632812 C 19.152344 21.308594 19.414062 21.042969 19.742188 21.042969 L 20.90625 21.042969 C 21.230469 21.042969 21.496094 21.308594 21.496094 21.632812 C 21.496094 21.960938 21.230469 22.222656 20.90625 22.222656 Z M 20.90625 18.558594 L 19.742188 18.558594 C 19.414062 18.558594 19.152344 18.292969 19.152344 17.96875 C 19.152344 17.644531 19.414062 17.378906 19.742188 17.378906 L 20.90625 17.378906 C 21.230469 17.378906 21.496094 17.644531 21.496094 17.96875 C 21.496094 18.292969 21.230469 18.558594 20.90625 18.558594 Z M 20.90625 14.894531 L 19.742188 14.894531 C 19.414062 14.894531 19.152344 14.632812 19.152344 14.304688 C 19.152344 13.980469 19.414062 13.714844 19.742188 13.714844 L 20.90625 13.714844 C 21.230469 13.714844 21.496094 13.980469 21.496094 14.304688 C 21.496094 14.632812 21.230469 14.894531 20.90625 14.894531 Z M 20.90625 11.230469 L 19.742188 11.230469 C 19.414062 11.230469 19.152344 10.96875 19.152344 10.640625 C 19.152344 10.316406 19.414062 10.050781 19.742188 10.050781 L 20.90625 10.050781 C 21.230469 10.050781 21.496094 10.316406 21.496094 10.640625 C 21.496094 10.96875 21.230469 11.230469 20.90625 11.230469 Z M 20.90625 7.566406 L 19.742188 7.566406 C 19.414062 7.566406 19.152344 7.304688 19.152344 6.980469 C 19.152344 6.652344 19.414062 6.390625 19.742188 6.390625 L 20.90625 6.390625 C 21.230469 6.390625 21.496094 6.652344 21.496094 6.980469 C 21.496094 7.304688 21.230469 7.566406 20.90625 7.566406 Z M 20.90625 3.902344 L 19.742188 3.902344 C 19.414062 3.902344 19.152344 3.640625 19.152344 3.3125 C 19.152344 2.988281 19.414062 2.726562 19.742188 2.726562 L 20.90625 2.726562 C 21.230469 2.726562 21.496094 2.988281 21.496094 3.3125 C 21.496094 3.640625 21.230469 3.902344 20.90625 3.902344 Z M 25.253906 22.222656 L 24.089844 22.222656 C 23.761719 22.222656 23.5 21.960938 23.5 21.632812 C 23.5 21.308594 23.761719 21.042969 24.089844 21.042969 L 25.253906 21.042969 C 25.578125 21.042969 25.84375 21.308594 25.84375 21.632812 C 25.84375 21.960938 25.578125 22.222656 25.253906 22.222656 Z M 25.253906 18.558594 L 24.089844 18.558594 C 23.761719 18.558594 23.5 18.292969 23.5 17.96875 C 23.5 17.644531 23.761719 17.378906 24.089844 17.378906 L 25.253906 17.378906 C 25.578125 17.378906 25.84375 17.644531 25.84375 17.96875 C 25.84375 18.292969 25.578125 18.558594 25.253906 18.558594 Z M 25.253906 14.894531 L 24.089844 14.894531 C 23.761719 14.894531 23.5 14.632812 23.5 14.304688 C 23.5 13.980469 23.761719 13.714844 24.089844 13.714844 L 25.253906 13.714844 C 25.578125 13.714844 25.84375 13.980469 25.84375 14.304688 C 25.84375 14.632812 25.578125 14.894531 25.253906 14.894531 Z M 25.253906 11.230469 L 24.089844 11.230469 C 23.761719 11.230469 23.5 10.96875 23.5 10.640625 C 23.5 10.316406 23.761719 10.050781 24.089844 10.050781 L 25.253906 10.050781 C 25.578125 10.050781 25.84375 10.316406 25.84375 10.640625 C 25.84375 10.96875 25.578125 11.230469 25.253906 11.230469 Z M 25.253906 7.566406 L 24.089844 7.566406 C 23.761719 7.566406 23.5 7.304688 23.5 6.980469 C 23.5 6.652344 23.761719 6.390625 24.089844 6.390625 L 25.253906 6.390625 C 25.578125 6.390625 25.84375 6.652344 25.84375 6.980469 C 25.84375 7.304688 25.578125 7.566406 25.253906 7.566406 Z M 25.253906 3.902344 L 24.089844 3.902344 C 23.761719 3.902344 23.5 3.640625 23.5 3.3125 C 23.5 2.988281 23.761719 2.726562 24.089844 2.726562 L 25.253906 2.726562 C 25.578125 2.726562 25.84375 2.988281 25.84375 3.3125 C 25.84375 3.640625 25.578125 3.902344 25.253906 3.902344 Z M 28.4375 10.050781 L 29.601562 10.050781 C 29.925781 10.050781 30.191406 10.316406 30.191406 10.640625 C 30.191406 10.96875 29.925781 11.230469 29.601562 11.230469 L 28.4375 11.230469 C 28.109375 11.230469 27.847656 10.96875 27.847656 10.640625 C 27.847656 10.316406 28.109375 10.050781 28.4375 10.050781 Z M 29.601562 22.222656 L 28.4375 22.222656 C 28.109375 22.222656 27.847656 21.960938 27.847656 21.632812 C 27.847656 21.308594 28.109375 21.042969 28.4375 21.042969 L 29.601562 21.042969 C 29.925781 21.042969 30.191406 21.308594 30.191406 21.632812 C 30.191406 21.960938 29.925781 22.222656 29.601562 22.222656 Z M 29.601562 18.558594 L 28.4375 18.558594 C 28.109375 18.558594 27.847656 18.292969 27.847656 17.96875 C 27.847656 17.644531 28.109375 17.378906 28.4375 17.378906 L 29.601562 17.378906 C 29.925781 17.378906 30.191406 17.644531 30.191406 17.96875 C 30.191406 18.292969 29.925781 18.558594 29.601562 18.558594 Z M 29.601562 14.894531 L 28.4375 14.894531 C 28.109375 14.894531 27.847656 14.632812 27.847656 14.304688 C 27.847656 13.980469 28.109375 13.714844 28.4375 13.714844 L 29.601562 13.714844 C 29.925781 13.714844 30.191406 13.980469 30.191406 14.304688 C 30.191406 14.632812 29.925781 14.894531 29.601562 14.894531 Z M 29.601562 14.894531 " fill-opacity="1" fill-rule="nonzero"/><g clip-path="url(#29d9fc3cbc)"><path fill="#f6edeb" d="M 25.175781 42.359375 C 29.046875 41.886719 30.828125 40 31.167969 36.175781 C 31.601562 31.367188 33.113281 25.648438 36.070312 23.1875 C 33.332031 22.820312 27.527344 22.910156 23.695312 28.964844 C 24.289062 29.949219 25.835938 32.980469 25.613281 37.597656 C 25.597656 37.914062 25.335938 38.160156 25.023438 38.160156 C 25.011719 38.160156 25.003906 38.160156 24.992188 38.160156 C 24.667969 38.144531 24.417969 37.867188 24.433594 37.542969 C 24.679688 32.421875 22.550781 29.359375 22.511719 29.308594 C 22.164062 28.863281 16.328125 21.640625 8.683594 25.769531 C 10.09375 26.691406 12.371094 28.714844 12.871094 32.363281 C 13.804688 39.136719 16.558594 41.460938 19.816406 42.1875 L 19.816406 43.777344 C 19.816406 44.511719 20.414062 45.105469 21.148438 45.105469 L 23.84375 45.105469 C 24.582031 45.105469 25.175781 44.511719 25.175781 43.777344 Z M 16.683594 37.550781 L 16.671875 37.550781 C 16.351562 37.550781 16.085938 37.292969 16.082031 36.972656 C 15.972656 30.863281 13.1875 28.039062 13.160156 28.011719 C 12.925781 27.78125 12.925781 27.410156 13.152344 27.179688 C 13.382812 26.945312 13.757812 26.945312 13.988281 27.171875 C 14.117188 27.300781 17.144531 30.367188 17.261719 36.949219 C 17.269531 37.277344 17.007812 37.546875 16.683594 37.550781 Z M 16.683594 37.550781 " fill-opacity="1" fill-rule="nonzero"/></g></svg>