<svg xmlns="http://www.w3.org/2000/svg" xmlns:xlink="http://www.w3.org/1999/xlink" width="60" zoomAndPan="magnify" viewBox="0 0 45 44.999999" height="60" preserveAspectRatio="xMidYMid meet" version="1.0"><defs><clipPath id="e844172544"><path d="M 32 27 L 41.785156 27 L 41.785156 40.824219 L 32 40.824219 Z M 32 27 " clip-rule="nonzero"/></clipPath><clipPath id="7b38df04bc"><path d="M 2.785156 3.324219 L 40 3.324219 L 40 40.824219 L 2.785156 40.824219 Z M 2.785156 3.324219 " clip-rule="nonzero"/></clipPath><clipPath id="97148403c0"><path d="M 24 29 L 34 29 L 34 40.824219 L 24 40.824219 Z M 24 29 " clip-rule="nonzero"/></clipPath></defs><g clip-path="url(#e844172544)"><path fill="#f6edeb" d="M 37.359375 27.4375 C 34.832031 27.4375 32.777344 30.308594 32.777344 33.847656 C 32.777344 37.390625 34.832031 40.261719 37.359375 40.261719 C 39.886719 40.261719 41.941406 37.390625 41.941406 33.847656 C 41.941406 30.308594 39.886719 27.4375 37.359375 27.4375 " fill-opacity="1" fill-rule="nonzero"/></g><g clip-path="url(#7b38df04bc)"><path fill="#f6edeb" d="M 23.507812 24.027344 C 21.78125 25.753906 19.382812 26.15625 18.148438 24.921875 C 16.914062 23.6875 17.3125 21.289062 19.042969 19.5625 C 20.765625 17.835938 23.167969 17.4375 24.398438 18.671875 C 25.632812 19.902344 25.234375 22.300781 23.507812 24.027344 Z M 13.496094 34.039062 C 11.769531 35.765625 9.371094 36.167969 8.136719 34.933594 C 6.902344 33.699219 7.304688 31.300781 9.03125 29.574219 C 10.757812 27.847656 13.15625 27.445312 14.386719 28.679688 C 15.621094 29.914062 15.222656 32.3125 13.496094 34.039062 Z M 29.050781 9.550781 C 30.777344 7.828125 33.179688 7.425781 34.410156 8.660156 C 35.644531 9.894531 35.246094 12.292969 33.515625 14.019531 C 31.792969 15.746094 29.390625 16.144531 28.15625 14.910156 C 26.925781 13.675781 27.324219 11.277344 29.050781 9.550781 Z M 27.757812 21.40625 C 28.058594 19.953125 29.207031 18.804688 30.65625 18.507812 C 32.183594 18.191406 33.753906 17.355469 35.066406 16.042969 C 36.507812 14.601562 37.371094 12.855469 37.609375 11.1875 C 37.882812 9.230469 38.390625 7.3125 39.027344 5.441406 L 39.738281 3.332031 L 37.628906 4.042969 C 35.757812 4.675781 33.839844 5.183594 31.882812 5.464844 C 30.214844 5.699219 28.46875 6.5625 27.027344 8.003906 C 25.714844 9.316406 24.878906 10.886719 24.5625 12.414062 C 24.261719 13.867188 23.117188 15.011719 21.664062 15.3125 C 20.136719 15.628906 18.566406 16.460938 17.253906 17.777344 C 15.941406 19.089844 15.105469 20.660156 14.789062 22.1875 C 14.492188 23.636719 13.34375 24.785156 11.890625 25.085938 C 10.363281 25.402344 8.796875 26.234375 7.484375 27.550781 C 6.042969 28.992188 5.175781 30.738281 4.941406 32.402344 C 4.664062 34.359375 4.15625 36.277344 3.523438 38.148438 L 2.808594 40.261719 L 4.917969 39.546875 C 6.792969 38.914062 8.707031 38.40625 10.667969 38.128906 C 12.332031 37.894531 14.078125 37.027344 15.519531 35.585938 C 16.835938 34.273438 17.667969 32.707031 17.984375 31.175781 C 18.285156 29.726562 19.429688 28.578125 20.882812 28.277344 C 22.414062 27.960938 23.980469 27.128906 25.292969 25.816406 C 26.605469 24.5 27.441406 22.933594 27.757812 21.40625 " fill-opacity="1" fill-rule="nonzero"/></g><g clip-path="url(#97148403c0)"><path fill="#f6edeb" d="M 32.320312 30.890625 C 32.152344 30.75 31.984375 30.617188 31.8125 30.496094 C 29.472656 28.828125 26.695312 28.621094 25.160156 30.152344 C 23.375 31.941406 23.953125 35.421875 26.457031 37.929688 C 28.804688 40.273438 32.007812 40.933594 33.875 39.53125 C 32.640625 38.183594 31.847656 36.136719 31.847656 33.847656 C 31.847656 32.796875 32.019531 31.796875 32.320312 30.890625 " fill-opacity="1" fill-rule="nonzero"/></g></svg>