<svg xmlns="http://www.w3.org/2000/svg" xmlns:xlink="http://www.w3.org/1999/xlink" width="120" zoomAndPan="magnify" viewBox="0 0 90 72" height="96" preserveAspectRatio="xMidYMid meet" version="1.0"><path fill="#f6edeb" d="M 48.042969 15.304688 C 47.222656 14.832031 46.378906 14.40625 45.511719 14.035156 C 44.644531 13.660156 43.753906 13.34375 42.847656 13.074219 C 41.941406 12.808594 41.023438 12.59375 40.089844 12.433594 C 39.15625 12.277344 38.21875 12.171875 37.273438 12.125 C 36.332031 12.078125 35.386719 12.085938 34.445312 12.152344 C 33.5 12.214844 32.5625 12.335938 31.636719 12.511719 C 30.707031 12.6875 29.789062 12.917969 28.886719 13.199219 C 27.988281 13.484375 27.105469 13.820312 26.242188 14.210938 C 25.378906 14.597656 24.542969 15.035156 23.734375 15.523438 C 22.925781 16.011719 22.144531 16.542969 21.398438 17.125 C 20.652344 17.703125 19.941406 18.324219 19.269531 18.988281 C 18.59375 19.652344 17.964844 20.355469 17.375 21.09375 C 16.785156 21.832031 16.238281 22.601562 15.742188 23.40625 C 15.242188 24.210938 14.792969 25.039062 14.390625 25.894531 C 13.992188 26.753906 13.644531 27.628906 13.347656 28.527344 C 13.050781 29.425781 12.808594 30.339844 12.621094 31.265625 L 15.613281 31.863281 C 15.777344 31.054688 15.992188 30.257812 16.25 29.476562 C 16.511719 28.691406 16.816406 27.925781 17.167969 27.179688 C 17.515625 26.433594 17.910156 25.707031 18.347656 25.007812 C 18.78125 24.308594 19.257812 23.636719 19.773438 22.992188 C 20.289062 22.347656 20.839844 21.734375 21.429688 21.15625 C 22.015625 20.574219 22.636719 20.035156 23.289062 19.527344 C 23.9375 19.019531 24.617188 18.554688 25.324219 18.128906 C 26.03125 17.703125 26.761719 17.320312 27.515625 16.984375 C 28.265625 16.644531 29.035156 16.347656 29.824219 16.101562 C 30.609375 15.851562 31.410156 15.652344 32.21875 15.496094 C 33.03125 15.34375 33.847656 15.238281 34.671875 15.179688 C 35.492188 15.121094 36.316406 15.113281 37.140625 15.15625 C 37.964844 15.195312 38.785156 15.28125 39.597656 15.417969 C 40.414062 15.554688 41.214844 15.742188 42.007812 15.972656 C 42.800781 16.203125 43.574219 16.480469 44.335938 16.804688 C 45.09375 17.128906 45.832031 17.496094 46.546875 17.90625 Z M 48.042969 15.304688 " fill-opacity="1" fill-rule="nonzero"/><path fill="#f6edeb" d="M 36.074219 59.984375 C 40.347656 59.988281 44.335938 58.925781 48.042969 56.800781 L 46.546875 54.195312 C 45.832031 54.609375 45.09375 54.976562 44.332031 55.300781 C 43.574219 55.625 42.796875 55.90625 42.003906 56.140625 C 41.210938 56.371094 40.410156 56.558594 39.59375 56.695312 C 38.78125 56.832031 37.960938 56.921875 37.132812 56.960938 C 36.308594 57.003906 35.484375 56.996094 34.660156 56.9375 C 33.835938 56.882812 33.019531 56.777344 32.207031 56.625 C 31.394531 56.46875 30.59375 56.269531 29.804688 56.019531 C 29.019531 55.773438 28.246094 55.476562 27.496094 55.136719 C 26.742188 54.800781 26.011719 54.417969 25.304688 53.992188 C 24.59375 53.566406 23.914062 53.097656 23.261719 52.589844 C 22.609375 52.085938 21.988281 51.542969 21.398438 50.960938 C 20.8125 50.382812 20.257812 49.769531 19.742188 49.125 C 19.226562 48.480469 18.75 47.804688 18.316406 47.105469 C 17.878906 46.402344 17.484375 45.675781 17.136719 44.929688 C 16.785156 44.179688 16.480469 43.414062 16.21875 42.628906 C 15.960938 41.847656 15.746094 41.050781 15.582031 40.238281 L 12.589844 40.839844 C 12.863281 42.179688 13.25 43.492188 13.75 44.765625 C 14.25 46.042969 14.851562 47.269531 15.5625 48.441406 C 16.273438 49.613281 17.078125 50.714844 17.976562 51.75 C 18.875 52.785156 19.855469 53.734375 20.917969 54.601562 C 21.980469 55.46875 23.109375 56.238281 24.300781 56.910156 C 25.496094 57.582031 26.738281 58.148438 28.03125 58.605469 C 29.320312 59.0625 30.644531 59.410156 31.992188 59.640625 C 33.34375 59.871094 34.707031 59.988281 36.074219 59.984375 Z M 36.074219 59.984375 " fill-opacity="1" fill-rule="nonzero"/><path fill="#f6edeb" d="M 12.140625 36.050781 C 12.140625 36.605469 12.140625 37.144531 12.140625 37.683594 L 15.132812 37.414062 C 15.054688 36.503906 15.054688 35.597656 15.132812 34.691406 L 12.140625 34.421875 C 12.140625 34.960938 12.140625 35.496094 12.140625 36.050781 Z M 12.140625 36.050781 " fill-opacity="1" fill-rule="nonzero"/><path fill="#f6edeb" d="M 1.519531 41.855469 C 1.304688 41.871094 1.105469 41.933594 0.917969 42.035156 C 0.730469 42.140625 0.570312 42.277344 0.441406 42.449219 C 0.3125 42.621094 0.226562 42.8125 0.179688 43.019531 C 0.132812 43.230469 0.128906 43.441406 0.175781 43.652344 C 1.109375 48.105469 2.824219 52.234375 5.320312 56.035156 C 5.566406 56.410156 5.910156 56.628906 6.351562 56.695312 C 6.789062 56.761719 7.175781 56.65625 7.519531 56.378906 C 7.796875 56.160156 8.09375 55.964844 8.40625 55.796875 C 8.71875 55.632812 9.046875 55.492188 9.382812 55.386719 C 9.722656 55.277344 10.070312 55.203125 10.421875 55.160156 C 10.773438 55.113281 11.125 55.101562 11.480469 55.121094 C 11.835938 55.140625 12.1875 55.195312 12.53125 55.277344 C 12.875 55.363281 13.210938 55.476562 13.535156 55.621094 C 13.859375 55.765625 14.167969 55.941406 14.460938 56.140625 C 14.753906 56.34375 15.023438 56.570312 15.277344 56.820312 C 15.527344 57.074219 15.753906 57.34375 15.957031 57.636719 C 16.15625 57.929688 16.332031 58.238281 16.476562 58.5625 C 16.621094 58.886719 16.734375 59.222656 16.820312 59.566406 C 16.902344 59.910156 16.957031 60.261719 16.976562 60.617188 C 16.996094 60.96875 16.984375 61.324219 16.9375 61.675781 C 16.894531 62.027344 16.820312 62.375 16.710938 62.714844 C 16.605469 63.050781 16.464844 63.378906 16.300781 63.691406 C 16.132812 64.003906 15.9375 64.300781 15.714844 64.578125 C 15.433594 64.925781 15.332031 65.320312 15.402344 65.761719 C 15.472656 66.195312 15.691406 66.535156 16.0625 66.777344 C 19.871094 69.289062 24.011719 71.011719 28.476562 71.953125 C 28.683594 71.996094 28.890625 71.996094 29.101562 71.949219 C 29.308594 71.90625 29.496094 71.820312 29.667969 71.695312 C 29.839844 71.570312 29.976562 71.414062 30.082031 71.230469 C 30.1875 71.046875 30.25 70.847656 30.273438 70.636719 C 30.308594 70.28125 30.375 69.929688 30.476562 69.585938 C 30.578125 69.242188 30.710938 68.910156 30.871094 68.589844 C 31.03125 68.273438 31.222656 67.96875 31.441406 67.683594 C 31.65625 67.402344 31.898438 67.136719 32.164062 66.898438 C 32.429688 66.65625 32.714844 66.445312 33.019531 66.257812 C 33.328125 66.070312 33.644531 65.910156 33.980469 65.78125 C 34.316406 65.652344 34.65625 65.554688 35.011719 65.492188 C 35.363281 65.425781 35.71875 65.394531 36.074219 65.394531 C 36.433594 65.394531 36.789062 65.425781 37.140625 65.492188 C 37.492188 65.554688 37.835938 65.652344 38.171875 65.78125 C 38.503906 65.910156 38.824219 66.070312 39.128906 66.257812 C 39.4375 66.445312 39.722656 66.65625 39.988281 66.898438 C 40.253906 67.136719 40.496094 67.402344 40.710938 67.683594 C 40.929688 67.96875 41.117188 68.273438 41.28125 68.589844 C 41.441406 68.910156 41.574219 69.242188 41.675781 69.585938 C 41.773438 69.929688 41.84375 70.28125 41.878906 70.636719 C 41.921875 71.078125 42.121094 71.433594 42.476562 71.699219 C 42.742188 71.890625 43.035156 71.984375 43.359375 71.984375 L 43.675781 71.984375 C 48.128906 71.046875 52.257812 69.332031 56.0625 66.835938 C 56.429688 66.59375 56.648438 66.257812 56.71875 65.820312 C 56.792969 65.378906 56.6875 64.984375 56.40625 64.636719 C 56.179688 64.363281 55.984375 64.066406 55.816406 63.753906 C 55.644531 63.441406 55.507812 63.113281 55.394531 62.777344 C 55.285156 62.4375 55.207031 62.089844 55.164062 61.738281 C 55.117188 61.386719 55.101562 61.03125 55.121094 60.675781 C 55.140625 60.320312 55.191406 59.96875 55.277344 59.625 C 55.359375 59.277344 55.476562 58.941406 55.621094 58.617188 C 55.765625 58.292969 55.941406 57.984375 56.140625 57.691406 C 56.34375 57.398438 56.570312 57.125 56.824219 56.875 L 56.945312 56.769531 L 56.0625 55.5 L 55.195312 54.285156 C 55.023438 54.402344 54.867188 54.535156 54.730469 54.691406 C 54.0625 55.359375 53.515625 56.117188 53.09375 56.960938 C 52.671875 57.808594 52.394531 58.699219 52.257812 59.632812 C 52.125 60.566406 52.140625 61.5 52.304688 62.429688 C 52.472656 63.363281 52.78125 64.242188 53.234375 65.070312 C 50.519531 66.671875 47.640625 67.863281 44.585938 68.648438 C 44.316406 67.742188 43.90625 66.898438 43.363281 66.125 C 42.820312 65.351562 42.167969 64.679688 41.40625 64.117188 C 40.648438 63.550781 39.816406 63.121094 38.917969 62.820312 C 38.019531 62.523438 37.097656 62.375 36.152344 62.375 C 35.203125 62.375 34.28125 62.523438 33.382812 62.820312 C 32.484375 63.121094 31.65625 63.550781 30.894531 64.117188 C 30.132812 64.679688 29.484375 65.351562 28.9375 66.125 C 28.394531 66.898438 27.988281 67.742188 27.714844 68.648438 C 24.664062 67.867188 21.789062 66.675781 19.082031 65.070312 C 19.53125 64.234375 19.835938 63.351562 20 62.414062 C 20.160156 61.480469 20.171875 60.542969 20.035156 59.605469 C 19.894531 58.664062 19.613281 57.773438 19.1875 56.925781 C 18.761719 56.078125 18.210938 55.316406 17.539062 54.648438 C 16.871094 53.976562 16.109375 53.425781 15.261719 53 C 14.414062 52.574219 13.519531 52.292969 12.582031 52.152344 C 11.644531 52.015625 10.707031 52.027344 9.773438 52.1875 C 8.835938 52.351562 7.953125 52.65625 7.113281 53.105469 C 5.503906 50.394531 4.304688 47.511719 3.523438 44.457031 C 4.429688 44.183594 5.273438 43.777344 6.046875 43.234375 C 6.820312 42.6875 7.492188 42.039062 8.054688 41.277344 C 8.621094 40.519531 9.050781 39.6875 9.351562 38.789062 C 9.648438 37.890625 9.796875 36.96875 9.796875 36.019531 C 9.796875 35.074219 9.648438 34.152344 9.351562 33.253906 C 9.050781 32.355469 8.621094 31.523438 8.054688 30.765625 C 7.492188 30.003906 6.820312 29.355469 6.046875 28.808594 C 5.273438 28.265625 4.429688 27.855469 3.523438 27.585938 C 4.304688 24.535156 5.5 21.65625 7.113281 18.953125 C 7.953125 19.402344 8.835938 19.707031 9.773438 19.871094 C 10.707031 20.03125 11.644531 20.042969 12.582031 19.90625 C 13.519531 19.765625 14.414062 19.484375 15.261719 19.058594 C 16.109375 18.628906 16.871094 18.082031 17.539062 17.410156 C 18.210938 16.738281 18.761719 15.980469 19.1875 15.132812 C 19.613281 14.285156 19.894531 13.390625 20.035156 12.453125 C 20.171875 11.515625 20.160156 10.578125 20 9.644531 C 19.835938 8.707031 19.53125 7.824219 19.082031 6.984375 C 21.785156 5.371094 24.664062 4.175781 27.714844 3.394531 C 27.988281 4.300781 28.394531 5.144531 28.9375 5.917969 C 29.484375 6.691406 30.132812 7.363281 30.894531 7.925781 C 31.65625 8.492188 32.484375 8.921875 33.382812 9.21875 C 34.28125 9.519531 35.203125 9.667969 36.152344 9.667969 C 37.097656 9.667969 38.019531 9.519531 38.917969 9.21875 C 39.816406 8.921875 40.648438 8.492188 41.40625 7.925781 C 42.167969 7.363281 42.820312 6.691406 43.363281 5.917969 C 43.90625 5.144531 44.316406 4.300781 44.585938 3.394531 C 47.640625 4.175781 50.523438 5.375 53.234375 6.984375 C 52.785156 7.816406 52.476562 8.695312 52.308594 9.625 C 52.144531 10.550781 52.128906 11.484375 52.261719 12.417969 C 52.398438 13.351562 52.675781 14.238281 53.097656 15.082031 C 53.519531 15.929688 54.0625 16.683594 54.730469 17.351562 C 54.875 17.503906 55.035156 17.636719 55.207031 17.757812 L 57.019531 15.394531 L 56.898438 15.289062 C 56.648438 15.035156 56.417969 14.765625 56.21875 14.472656 C 56.015625 14.179688 55.839844 13.871094 55.695312 13.546875 C 55.550781 13.21875 55.433594 12.886719 55.351562 12.539062 C 55.269531 12.191406 55.214844 11.84375 55.199219 11.488281 C 55.179688 11.132812 55.191406 10.777344 55.238281 10.425781 C 55.285156 10.070312 55.363281 9.726562 55.472656 9.386719 C 55.582031 9.046875 55.71875 8.722656 55.890625 8.410156 C 56.058594 8.097656 56.257812 7.800781 56.480469 7.523438 C 56.757812 7.183594 56.859375 6.792969 56.792969 6.359375 C 56.726562 5.921875 56.503906 5.582031 56.136719 5.339844 C 52.3125 2.816406 48.160156 1.085938 43.675781 0.148438 C 43.46875 0.105469 43.257812 0.105469 43.050781 0.152344 C 42.84375 0.195312 42.65625 0.28125 42.484375 0.40625 C 42.3125 0.53125 42.175781 0.6875 42.070312 0.871094 C 41.964844 1.058594 41.902344 1.253906 41.878906 1.464844 C 41.84375 1.824219 41.773438 2.171875 41.675781 2.515625 C 41.574219 2.859375 41.441406 3.191406 41.28125 3.511719 C 41.117188 3.832031 40.929688 4.132812 40.710938 4.417969 C 40.496094 4.703125 40.253906 4.964844 39.988281 5.203125 C 39.722656 5.445312 39.4375 5.660156 39.128906 5.847656 C 38.824219 6.035156 38.503906 6.191406 38.171875 6.320312 C 37.835938 6.449219 37.492188 6.546875 37.140625 6.613281 C 36.789062 6.675781 36.433594 6.710938 36.074219 6.710938 C 35.71875 6.710938 35.363281 6.675781 35.011719 6.613281 C 34.65625 6.546875 34.316406 6.449219 33.980469 6.320312 C 33.644531 6.191406 33.328125 6.035156 33.019531 5.847656 C 32.714844 5.660156 32.429688 5.445312 32.164062 5.203125 C 31.898438 4.964844 31.65625 4.703125 31.441406 4.417969 C 31.222656 4.132812 31.03125 3.832031 30.871094 3.511719 C 30.710938 3.191406 30.578125 2.859375 30.476562 2.515625 C 30.375 2.171875 30.308594 1.824219 30.273438 1.464844 C 30.25 1.253906 30.1875 1.058594 30.082031 0.871094 C 29.976562 0.6875 29.839844 0.53125 29.667969 0.40625 C 29.496094 0.28125 29.308594 0.195312 29.101562 0.152344 C 28.890625 0.105469 28.683594 0.105469 28.476562 0.148438 C 24.019531 1.085938 19.890625 2.804688 16.089844 5.308594 C 15.722656 5.550781 15.5 5.890625 15.433594 6.328125 C 15.367188 6.761719 15.46875 7.152344 15.746094 7.496094 C 15.96875 7.773438 16.160156 8.066406 16.328125 8.382812 C 16.496094 8.695312 16.632812 9.019531 16.742188 9.359375 C 16.847656 9.699219 16.925781 10.042969 16.96875 10.394531 C 17.011719 10.75 17.027344 11.101562 17.003906 11.457031 C 16.984375 11.8125 16.933594 12.160156 16.847656 12.507812 C 16.765625 12.851562 16.652344 13.1875 16.503906 13.511719 C 16.359375 13.835938 16.1875 14.144531 15.984375 14.4375 C 15.785156 14.730469 15.558594 15 15.304688 15.25 C 15.054688 15.503906 14.78125 15.730469 14.492188 15.929688 C 14.199219 16.132812 13.890625 16.304688 13.566406 16.449219 C 13.242188 16.597656 12.90625 16.710938 12.5625 16.792969 C 12.214844 16.878906 11.867188 16.929688 11.511719 16.949219 C 11.15625 16.972656 10.804688 16.960938 10.449219 16.914062 C 10.097656 16.871094 9.753906 16.792969 9.414062 16.6875 C 9.074219 16.578125 8.75 16.441406 8.4375 16.273438 C 8.121094 16.105469 7.828125 15.914062 7.550781 15.691406 C 7.207031 15.414062 6.816406 15.3125 6.382812 15.378906 C 5.941406 15.441406 5.59375 15.664062 5.351562 16.035156 C 2.839844 19.847656 1.113281 23.984375 0.175781 28.453125 C 0.128906 28.660156 0.132812 28.867188 0.175781 29.074219 C 0.222656 29.28125 0.304688 29.472656 0.433594 29.644531 C 0.558594 29.816406 0.710938 29.953125 0.898438 30.058594 C 1.082031 30.164062 1.277344 30.226562 1.492188 30.246094 C 1.847656 30.285156 2.195312 30.351562 2.539062 30.453125 C 2.882812 30.554688 3.214844 30.683594 3.535156 30.847656 C 3.855469 31.007812 4.15625 31.199219 4.441406 31.414062 C 4.726562 31.632812 4.988281 31.875 5.230469 32.140625 C 5.46875 32.40625 5.683594 32.691406 5.871094 32.996094 C 6.058594 33.300781 6.214844 33.621094 6.34375 33.957031 C 6.472656 34.289062 6.570312 34.632812 6.636719 34.984375 C 6.703125 35.339844 6.734375 35.691406 6.734375 36.050781 C 6.734375 36.410156 6.703125 36.765625 6.636719 37.117188 C 6.570312 37.46875 6.472656 37.8125 6.34375 38.148438 C 6.214844 38.480469 6.058594 38.800781 5.871094 39.105469 C 5.683594 39.410156 5.46875 39.695312 5.230469 39.960938 C 4.988281 40.226562 4.726562 40.46875 4.441406 40.6875 C 4.15625 40.90625 3.855469 41.09375 3.535156 41.257812 C 3.214844 41.417969 2.882812 41.550781 2.539062 41.648438 C 2.195312 41.75 1.847656 41.820312 1.492188 41.855469 Z M 1.519531 41.855469 " fill-opacity="1" fill-rule="nonzero"/><path fill="#f6edeb" d="M 30.09375 30.066406 C 29.894531 30.066406 29.703125 30.105469 29.519531 30.179688 C 29.335938 30.257812 29.175781 30.367188 29.035156 30.507812 C 28.894531 30.644531 28.785156 30.808594 28.710938 30.992188 C 28.632812 31.175781 28.597656 31.367188 28.597656 31.5625 L 28.597656 46.523438 C 28.597656 46.722656 28.632812 46.910156 28.710938 47.09375 C 28.785156 47.277344 28.894531 47.441406 29.035156 47.582031 C 29.175781 47.722656 29.335938 47.828125 29.519531 47.90625 C 29.703125 47.980469 29.894531 48.019531 30.09375 48.019531 L 39.066406 48.019531 C 39.265625 48.019531 39.457031 47.980469 39.640625 47.90625 C 39.824219 47.828125 39.984375 47.722656 40.125 47.582031 C 40.265625 47.441406 40.375 47.277344 40.449219 47.09375 C 40.527344 46.910156 40.5625 46.722656 40.5625 46.523438 L 40.5625 31.5625 C 40.5625 31.367188 40.527344 31.175781 40.449219 30.992188 C 40.375 30.808594 40.265625 30.644531 40.125 30.507812 C 39.984375 30.367188 39.824219 30.257812 39.640625 30.179688 C 39.457031 30.105469 39.265625 30.066406 39.066406 30.066406 Z M 37.570312 45.027344 L 31.589844 45.027344 L 31.589844 33.058594 L 37.570312 33.058594 Z M 37.570312 45.027344 " fill-opacity="1" fill-rule="nonzero"/><path fill="#f6edeb" d="M 55.523438 46.523438 L 55.523438 25.578125 C 55.523438 25.382812 55.484375 25.191406 55.410156 25.007812 C 55.332031 24.824219 55.226562 24.664062 55.085938 24.523438 C 54.945312 24.382812 54.78125 24.273438 54.597656 24.199219 C 54.414062 24.121094 54.226562 24.085938 54.027344 24.085938 L 45.050781 24.085938 C 44.851562 24.085938 44.664062 24.121094 44.480469 24.199219 C 44.296875 24.273438 44.132812 24.382812 43.992188 24.523438 C 43.851562 24.664062 43.746094 24.824219 43.667969 25.007812 C 43.59375 25.191406 43.554688 25.382812 43.554688 25.578125 L 43.554688 46.523438 C 43.554688 46.722656 43.59375 46.910156 43.667969 47.09375 C 43.746094 47.277344 43.851562 47.441406 43.992188 47.582031 C 44.132812 47.722656 44.296875 47.828125 44.480469 47.90625 C 44.664062 47.980469 44.851562 48.019531 45.050781 48.019531 L 54.027344 48.019531 C 54.226562 48.019531 54.414062 47.980469 54.597656 47.90625 C 54.78125 47.828125 54.945312 47.722656 55.085938 47.582031 C 55.226562 47.441406 55.332031 47.277344 55.410156 47.09375 C 55.484375 46.910156 55.523438 46.722656 55.523438 46.523438 Z M 52.53125 45.027344 L 46.546875 45.027344 L 46.546875 27.074219 L 52.53125 27.074219 Z M 52.53125 45.027344 " fill-opacity="1" fill-rule="nonzero"/><path fill="#f6edeb" d="M 60.011719 48.019531 L 68.984375 48.019531 C 69.183594 48.019531 69.375 47.980469 69.558594 47.90625 C 69.742188 47.828125 69.902344 47.722656 70.042969 47.582031 C 70.183594 47.441406 70.292969 47.277344 70.367188 47.09375 C 70.445312 46.910156 70.480469 46.722656 70.480469 46.523438 L 70.480469 19.597656 C 70.480469 19.398438 70.445312 19.207031 70.367188 19.023438 C 70.292969 18.839844 70.183594 18.679688 70.042969 18.539062 C 69.902344 18.398438 69.742188 18.289062 69.558594 18.214844 C 69.375 18.136719 69.183594 18.101562 68.984375 18.101562 L 60.011719 18.101562 C 59.8125 18.101562 59.621094 18.136719 59.4375 18.214844 C 59.253906 18.289062 59.09375 18.398438 58.953125 18.539062 C 58.8125 18.679688 58.703125 18.839844 58.628906 19.023438 C 58.550781 19.207031 58.515625 19.398438 58.515625 19.597656 L 58.515625 46.523438 C 58.515625 46.722656 58.550781 46.910156 58.628906 47.09375 C 58.703125 47.277344 58.8125 47.441406 58.953125 47.582031 C 59.09375 47.722656 59.253906 47.828125 59.4375 47.90625 C 59.621094 47.980469 59.8125 48.019531 60.011719 48.019531 Z M 61.507812 21.09375 L 67.488281 21.09375 L 67.488281 45.027344 L 61.507812 45.027344 Z M 61.507812 21.09375 " fill-opacity="1" fill-rule="nonzero"/><path fill="#f6edeb" d="M 70.480469 15.109375 L 73.472656 15.109375 L 73.472656 46.523438 C 73.472656 46.722656 73.511719 46.910156 73.585938 47.09375 C 73.664062 47.277344 73.769531 47.441406 73.910156 47.582031 C 74.050781 47.722656 74.214844 47.828125 74.398438 47.90625 C 74.582031 47.980469 74.769531 48.019531 74.96875 48.019531 L 83.945312 48.019531 C 84.144531 48.019531 84.335938 47.980469 84.515625 47.90625 C 84.699219 47.828125 84.863281 47.722656 85.003906 47.582031 C 85.144531 47.441406 85.25 47.277344 85.328125 47.09375 C 85.402344 46.910156 85.441406 46.722656 85.441406 46.523438 L 85.441406 15.109375 L 88.433594 15.109375 C 88.714844 15.109375 88.976562 15.035156 89.21875 14.886719 C 89.460938 14.734375 89.644531 14.535156 89.769531 14.28125 C 89.898438 14.027344 89.949219 13.761719 89.921875 13.476562 C 89.898438 13.195312 89.800781 12.941406 89.628906 12.714844 L 80.652344 0.746094 C 80.511719 0.558594 80.335938 0.414062 80.125 0.308594 C 79.914062 0.203125 79.691406 0.148438 79.457031 0.148438 C 79.222656 0.148438 79 0.203125 78.789062 0.308594 C 78.578125 0.414062 78.402344 0.558594 78.261719 0.746094 L 69.285156 12.714844 C 69.117188 12.941406 69.019531 13.199219 68.992188 13.480469 C 68.96875 13.765625 69.023438 14.03125 69.152344 14.285156 C 69.277344 14.539062 69.460938 14.738281 69.699219 14.886719 C 69.941406 15.035156 70.199219 15.109375 70.480469 15.109375 Z M 79.457031 4.144531 L 85.441406 12.117188 L 83.945312 12.117188 C 83.746094 12.117188 83.554688 12.15625 83.371094 12.230469 C 83.1875 12.304688 83.027344 12.414062 82.886719 12.554688 C 82.746094 12.695312 82.640625 12.855469 82.5625 13.039062 C 82.488281 13.222656 82.449219 13.414062 82.449219 13.613281 L 82.449219 45.027344 L 76.464844 45.027344 L 76.464844 13.613281 C 76.464844 13.414062 76.425781 13.222656 76.351562 13.039062 C 76.277344 12.855469 76.167969 12.695312 76.027344 12.554688 C 75.886719 12.414062 75.726562 12.304688 75.542969 12.230469 C 75.359375 12.15625 75.167969 12.117188 74.96875 12.117188 L 73.472656 12.117188 Z M 79.457031 4.144531 " fill-opacity="1" fill-rule="nonzero"/></svg>