<svg xmlns="http://www.w3.org/2000/svg" xmlns:xlink="http://www.w3.org/1999/xlink" width="121" zoomAndPan="magnify" viewBox="0 0 90.75 73.499998" height="98" preserveAspectRatio="xMidYMid meet" version="1.0"><defs><clipPath id="7c41f5aefc"><path d="M 15.917969 0 L 74 0 L 74 72.257812 L 15.917969 72.257812 Z M 15.917969 0 " clip-rule="nonzero"/></clipPath></defs><g clip-path="url(#7c41f5aefc)"><path fill="#f6edeb" d="M 18.332031 4.832031 C 18.332031 3.5 19.417969 2.414062 20.746094 2.414062 L 63.011719 2.414062 L 63.011719 6.039062 C 63.011719 8.703125 65.179688 10.867188 67.84375 10.867188 L 71.464844 10.867188 L 71.464844 67.625 C 71.464844 68.957031 70.382812 70.042969 69.050781 70.042969 L 20.746094 70.042969 C 19.417969 70.042969 18.332031 68.957031 18.332031 67.625 Z M 69.757812 8.453125 L 67.84375 8.453125 C 66.511719 8.453125 65.429688 7.367188 65.429688 6.039062 L 65.429688 4.121094 Z M 20.746094 72.457031 L 69.050781 72.457031 C 71.714844 72.457031 73.882812 70.292969 73.882812 67.625 L 73.882812 10.660156 C 73.882812 10.152344 73.773438 9.664062 73.574219 9.210938 C 73.5625 9.183594 73.546875 9.164062 73.539062 9.140625 C 73.359375 8.761719 73.125 8.40625 72.820312 8.097656 L 65.78125 1.0625 C 65.476562 0.753906 65.117188 0.519531 64.734375 0.339844 C 64.710938 0.332031 64.695312 0.316406 64.671875 0.3125 C 64.21875 0.109375 63.730469 0 63.21875 0 L 20.746094 0 C 18.082031 0 15.917969 2.164062 15.917969 4.832031 L 15.917969 67.625 C 15.917969 70.292969 18.082031 72.457031 20.746094 72.457031 " fill-opacity="1" fill-rule="nonzero"/></g><path fill="#f6edeb" d="M 25.578125 16.90625 C 25.578125 16.242188 26.121094 15.699219 26.785156 15.699219 L 34.03125 15.699219 C 34.550781 15.699219 34.984375 16.027344 35.152344 16.492188 L 31.617188 20.027344 L 30.054688 18.46875 C 29.582031 17.996094 28.816406 17.996094 28.347656 18.46875 C 27.875 18.941406 27.875 19.703125 28.347656 20.175781 L 30.761719 22.589844 C 30.996094 22.828125 31.304688 22.945312 31.617188 22.945312 C 31.925781 22.945312 32.234375 22.828125 32.46875 22.589844 L 35.238281 19.820312 L 35.238281 24.152344 C 35.238281 24.816406 34.695312 25.359375 34.03125 25.359375 L 26.785156 25.359375 C 26.121094 25.359375 25.578125 24.816406 25.578125 24.152344 Z M 26.785156 27.773438 L 34.03125 27.773438 C 36.03125 27.773438 37.652344 26.152344 37.652344 24.152344 L 37.652344 17.40625 L 40.921875 14.136719 C 41.394531 13.664062 41.394531 12.902344 40.921875 12.429688 C 40.449219 11.957031 39.6875 11.957031 39.214844 12.429688 L 36.914062 14.730469 C 36.246094 13.859375 35.210938 13.285156 34.03125 13.285156 L 26.785156 13.285156 C 24.785156 13.285156 23.160156 14.90625 23.160156 16.90625 L 23.160156 24.152344 C 23.160156 26.152344 24.785156 27.773438 26.785156 27.773438 " fill-opacity="1" fill-rule="nonzero"/><path fill="#f6edeb" d="M 25.578125 33.8125 C 25.578125 33.148438 26.121094 32.605469 26.785156 32.605469 L 34.03125 32.605469 C 34.695312 32.605469 35.238281 33.148438 35.238281 33.8125 L 35.238281 41.058594 C 35.238281 41.722656 34.695312 42.265625 34.03125 42.265625 L 26.785156 42.265625 C 26.121094 42.265625 25.578125 41.722656 25.578125 41.058594 Z M 26.785156 44.679688 L 34.03125 44.679688 C 36.03125 44.679688 37.652344 43.058594 37.652344 41.058594 L 37.652344 33.8125 C 37.652344 31.8125 36.03125 30.191406 34.03125 30.191406 L 26.785156 30.191406 C 24.785156 30.191406 23.160156 31.8125 23.160156 33.8125 L 23.160156 41.058594 C 23.160156 43.058594 24.785156 44.679688 26.785156 44.679688 " fill-opacity="1" fill-rule="nonzero"/><path fill="#f6edeb" d="M 25.578125 50.71875 C 25.578125 50.054688 26.121094 49.511719 26.785156 49.511719 L 34.03125 49.511719 C 34.695312 49.511719 35.238281 50.054688 35.238281 50.71875 L 35.238281 57.964844 C 35.238281 58.628906 34.695312 59.171875 34.03125 59.171875 L 26.785156 59.171875 C 26.121094 59.171875 25.578125 58.628906 25.578125 57.964844 Z M 26.785156 61.585938 L 34.03125 61.585938 C 36.03125 61.585938 37.652344 59.964844 37.652344 57.964844 L 37.652344 50.71875 C 37.652344 48.71875 36.03125 47.097656 34.03125 47.097656 L 26.785156 47.097656 C 24.785156 47.097656 23.160156 48.71875 23.160156 50.71875 L 23.160156 57.964844 C 23.160156 59.964844 24.785156 61.585938 26.785156 61.585938 " fill-opacity="1" fill-rule="nonzero"/><path fill="#f6edeb" d="M 44.898438 18.113281 L 65.429688 18.113281 C 66.09375 18.113281 66.636719 17.570312 66.636719 16.90625 C 66.636719 16.242188 66.09375 15.699219 65.429688 15.699219 L 44.898438 15.699219 C 44.234375 15.699219 43.691406 16.242188 43.691406 16.90625 C 43.691406 17.570312 44.234375 18.113281 44.898438 18.113281 " fill-opacity="1" fill-rule="nonzero"/><path fill="#f6edeb" d="M 44.898438 24.152344 L 56.976562 24.152344 C 57.640625 24.152344 58.183594 23.609375 58.183594 22.945312 C 58.183594 22.28125 57.640625 21.738281 56.976562 21.738281 L 44.898438 21.738281 C 44.234375 21.738281 43.691406 22.28125 43.691406 22.945312 C 43.691406 23.609375 44.234375 24.152344 44.898438 24.152344 " fill-opacity="1" fill-rule="nonzero"/><path fill="#f6edeb" d="M 44.898438 35.019531 L 65.429688 35.019531 C 66.09375 35.019531 66.636719 34.476562 66.636719 33.8125 C 66.636719 33.148438 66.09375 32.605469 65.429688 32.605469 L 44.898438 32.605469 C 44.234375 32.605469 43.691406 33.148438 43.691406 33.8125 C 43.691406 34.476562 44.234375 35.019531 44.898438 35.019531 " fill-opacity="1" fill-rule="nonzero"/><path fill="#f6edeb" d="M 44.898438 41.058594 L 56.976562 41.058594 C 57.640625 41.058594 58.183594 40.515625 58.183594 39.851562 C 58.183594 39.1875 57.640625 38.644531 56.976562 38.644531 L 44.898438 38.644531 C 44.234375 38.644531 43.691406 39.1875 43.691406 39.851562 C 43.691406 40.515625 44.234375 41.058594 44.898438 41.058594 " fill-opacity="1" fill-rule="nonzero"/><path fill="#f6edeb" d="M 44.898438 51.925781 L 65.429688 51.925781 C 66.09375 51.925781 66.636719 51.382812 66.636719 50.71875 C 66.636719 50.054688 66.09375 49.511719 65.429688 49.511719 L 44.898438 49.511719 C 44.234375 49.511719 43.691406 50.054688 43.691406 50.71875 C 43.691406 51.382812 44.234375 51.925781 44.898438 51.925781 " fill-opacity="1" fill-rule="nonzero"/><path fill="#f6edeb" d="M 44.898438 57.964844 L 56.976562 57.964844 C 57.640625 57.964844 58.183594 57.421875 58.183594 56.757812 C 58.183594 56.09375 57.640625 55.550781 56.976562 55.550781 L 44.898438 55.550781 C 44.234375 55.550781 43.691406 56.09375 43.691406 56.757812 C 43.691406 57.421875 44.234375 57.964844 44.898438 57.964844 " fill-opacity="1" fill-rule="nonzero"/></svg>