<svg xmlns="http://www.w3.org/2000/svg" xmlns:xlink="http://www.w3.org/1999/xlink" width="115" zoomAndPan="magnify" viewBox="0 0 86.25 86.249996" height="115" preserveAspectRatio="xMidYMid meet" version="1.0"><defs><clipPath id="381a4ac3d6"><path d="M 55 20 L 74.246094 20 L 74.246094 40 L 55 40 Z M 55 20 " clip-rule="nonzero"/></clipPath><clipPath id="fa591d9fa5"><path d="M 28 25 L 65 25 L 65 72.992188 L 28 72.992188 Z M 28 25 " clip-rule="nonzero"/></clipPath><clipPath id="35e4183d0d"><path d="M 11.792969 40 L 25 40 L 25 45 L 11.792969 45 Z M 11.792969 40 " clip-rule="nonzero"/></clipPath></defs><g clip-path="url(#381a4ac3d6)"><path fill="#ffffff" d="M 71.765625 20.867188 L 58.566406 20.867188 C 56.984375 20.867188 55.722656 22.136719 55.722656 23.691406 L 55.722656 29.191406 L 60.988281 29.238281 C 62.804688 29.265625 64.503906 29.980469 65.765625 31.296875 C 67.035156 32.585938 67.703125 34.285156 67.703125 36.101562 C 67.679688 37.253906 67.394531 38.324219 66.863281 39.28125 L 71.765625 39.28125 C 73.34375 39.28125 74.609375 38.011719 74.609375 36.441406 L 74.609375 23.691406 C 74.609375 22.128906 73.339844 20.867188 71.765625 20.867188 Z M 71.765625 20.867188 " fill-opacity="1" fill-rule="nonzero"/></g><path fill="#ffffff" d="M 29.394531 52.59375 C 29.054688 52.308594 28.726562 52.019531 28.460938 51.78125 L 27.144531 53.957031 C 27.070312 54.101562 26.933594 54.195312 26.761719 54.195312 L 15.8125 55.507812 C 13.707031 55.773438 12.199219 57.683594 12.464844 59.769531 C 12.703125 61.898438 14.613281 63.378906 16.722656 63.140625 L 27.675781 61.824219 C 30.1875 61.539062 32.410156 60.125 33.722656 57.949219 L 34.4375 56.753906 C 33.03125 55.582031 31.421875 54.265625 30.105469 53.167969 Z M 29.394531 52.59375 " fill-opacity="1" fill-rule="nonzero"/><g clip-path="url(#fa591d9fa5)"><path fill="#ffffff" d="M 60.941406 32.828125 L 53.496094 32.75 C 52.8125 32.742188 52.144531 32.492188 51.617188 32.054688 C 45.519531 26.996094 44.695312 26.851562 43.820312 26.691406 L 38.648438 25.773438 C 36.460938 25.382812 34.3125 26.652344 33.59375 28.757812 L 30.046875 39.152344 C 28.414062 43.648438 27.554688 46.265625 29.929688 48.328125 C 30.410156 48.75 31.316406 49.511719 32.402344 50.417969 C 35.667969 53.121094 40.535156 57.121094 40.535156 57.121094 C 41.585938 58.003906 42.464844 59.125 43.027344 60.382812 L 47.722656 70.574219 C 48.363281 71.988281 49.785156 72.8125 51.253906 72.792969 C 51.78125 72.789062 52.304688 72.683594 52.800781 72.449219 C 54.726562 71.5625 55.570312 69.277344 54.683594 67.359375 L 50.011719 57.175781 C 48.957031 54.902344 47.378906 52.832031 45.453125 51.226562 L 40.476562 47.097656 L 45.472656 35.296875 C 46.070312 35.773438 46.75 36.328125 47.539062 36.976562 C 49.191406 38.351562 51.28125 39.117188 53.429688 39.144531 L 60.882812 39.222656 C 62.640625 39.257812 64.09375 37.820312 64.113281 36.0625 C 64.121094 34.296875 62.707031 32.847656 60.941406 32.828125 Z M 60.941406 32.828125 " fill-opacity="1" fill-rule="nonzero"/></g><path fill="#ffffff" d="M 41.652344 24.523438 C 45.472656 25.390625 49.269531 22.988281 50.136719 19.167969 C 51.003906 15.347656 48.601562 11.550781 44.785156 10.683594 C 40.964844 9.820312 37.167969 12.21875 36.304688 16.035156 C 35.429688 19.863281 37.832031 23.65625 41.652344 24.523438 Z M 41.652344 24.523438 " fill-opacity="1" fill-rule="nonzero"/><path fill="#ffffff" d="M 23.429688 30.5 L 27.933594 30.5 C 28.988281 30.5 29.84375 29.648438 29.84375 28.589844 C 29.84375 27.53125 28.984375 26.679688 27.933594 26.679688 L 23.429688 26.679688 C 22.371094 26.679688 21.519531 27.53125 21.519531 28.589844 C 21.519531 29.648438 22.371094 30.5 23.429688 30.5 Z M 23.429688 30.5 " fill-opacity="1" fill-rule="nonzero"/><path fill="#ffffff" d="M 18.5625 37.378906 L 25.457031 37.378906 C 26.515625 37.378906 27.371094 36.527344 27.371094 35.46875 C 27.371094 34.410156 26.511719 33.558594 25.457031 33.558594 L 18.5625 33.558594 C 17.503906 33.558594 16.652344 34.410156 16.652344 35.46875 C 16.652344 36.527344 17.511719 37.378906 18.5625 37.378906 Z M 18.5625 37.378906 " fill-opacity="1" fill-rule="nonzero"/><g clip-path="url(#35e4183d0d)"><path fill="#ffffff" d="M 22.992188 44.25 C 24.050781 44.25 24.902344 43.394531 24.902344 42.335938 C 24.902344 41.28125 24.042969 40.425781 22.992188 40.425781 L 13.703125 40.425781 C 12.644531 40.425781 11.792969 41.28125 11.792969 42.335938 C 11.792969 43.394531 12.652344 44.25 13.703125 44.25 Z M 22.992188 44.25 " fill-opacity="1" fill-rule="nonzero"/></g></svg>