<svg xmlns="http://www.w3.org/2000/svg" xmlns:xlink="http://www.w3.org/1999/xlink" width="60" zoomAndPan="magnify" viewBox="0 0 45 44.999999" height="60" preserveAspectRatio="xMidYMid meet" version="1.0"><defs><clipPath id="8a00dede7c"><path d="M 4.027344 8 L 40 8 L 40 40 L 4.027344 40 Z M 4.027344 8 " clip-rule="nonzero"/></clipPath></defs><g clip-path="url(#8a00dede7c)"><path fill="#f6edeb" d="M 35.074219 11.039062 L 33.9375 8.375 C 33.457031 8.816406 32.925781 9.199219 32.339844 9.5 C 31.398438 9.984375 30.480469 10.199219 29.703125 10.28125 L 31.136719 12.945312 C 31.273438 13.195312 31.34375 13.476562 31.347656 13.757812 C 31.394531 19.636719 27.597656 25.003906 22.109375 26.808594 C 16.542969 28.640625 10.253906 26.511719 6.820312 21.636719 C 6.742188 21.53125 6.632812 21.460938 6.503906 21.445312 C 6.484375 21.445312 6.464844 21.441406 6.445312 21.441406 C 6.34375 21.441406 6.246094 21.476562 6.164062 21.546875 L 4.25 23.164062 C 4.082031 23.304688 4.042969 23.546875 4.15625 23.734375 L 4.8125 24.828125 C 4.871094 24.929688 4.921875 25.039062 4.960938 25.152344 C 8.03125 34.292969 16.828125 40.175781 25.414062 38.839844 C 31.679688 37.867188 38.609375 32.800781 39.734375 25.003906 C 40.722656 18.167969 36.640625 12.9375 35.367188 11.5 C 35.246094 11.363281 35.148438 11.207031 35.074219 11.039062 Z M 35.074219 11.039062 " fill-opacity="1" fill-rule="nonzero"/></g><path fill="#f6edeb" d="M 31.753906 8.363281 C 32.375 8.042969 32.921875 7.621094 33.398438 7.113281 L 32.234375 4.386719 C 32.171875 4.238281 32.035156 4.140625 31.871094 4.117188 C 31.179688 4.019531 30.167969 4.054688 29.277344 4.757812 C 28.355469 5.480469 28.105469 6.488281 28.039062 7.023438 C 28.027344 7.113281 28.042969 7.203125 28.089844 7.285156 L 29.035156 9.042969 C 29.765625 9.027344 30.746094 8.882812 31.753906 8.363281 Z M 31.753906 8.363281 " fill-opacity="1" fill-rule="nonzero"/></svg>